<svg xmlns="http://www.w3.org/2000/svg" width="979.586" height="979.729" viewBox="0 0 259.182 259.22" xmlns:v="https://vecta.io/nano"><path d="M122.983 259.057c-39.347-2.105-75.271-21.641-98.44-53.535-12.623-17.375-20.847-38.196-23.514-59.531C-5.079 97.147 16.309 49.9 57.102 22.127c37.887-25.796 88.011-29.319 129.249-9.085 12.947 6.353 23.464 13.781 33.698 23.802 6.177 6.048 10.713 11.318 15.265 17.733 19.904 28.051 27.744 62.389 22.065 96.636-8.353 50.374-46.402 91.601-96.031 104.051-12.35 3.098-26.042 4.452-38.365 3.793zm11.016-32.363c21.162-1.078 39.513-7.971 56.361-21.172 3.858-3.023 11.819-10.995 15.116-15.136 12.994-16.324 20.322-35.767 21.195-56.235.753-17.665-2.871-34.248-10.804-49.433-11.666-22.331-31.662-39.426-55.365-47.334-10.338-3.449-19.649-4.936-30.904-4.936-11.437 0-20.704 1.504-31.315 5.082-19.211 6.479-36.541 19.46-48.188 36.097-8.229 11.754-13.57 24.455-16.143 38.382-2.029 10.986-2.029 24.168 0 35.154 8.163 44.199 45.763 77.237 90.486 79.507l4.366.234c.218.018 2.556-.077 5.195-.211z"/></svg>