<?xml version="1.0" encoding="UTF-8" standalone="no"?>
<!-- Created with Inkscape (http://www.inkscape.org/) -->

<svg
   width="83.043427mm"
   height="83.105873mm"
   viewBox="0 0 83.043427 83.105873"
   version="1.1"
   id="svg5"
   xml:space="preserve"
   xmlns="http://www.w3.org/2000/svg"
   xmlns:svg="http://www.w3.org/2000/svg"><defs
     id="defs2" /><g
     id="layer1"
     transform="translate(-104.56383,-174.47809)"><path
       style="fill:#ffffff;stroke-width:0.264583"
       d="m 142.51391,257.50945 c -3.9642,-0.48315 -8.88692,-1.57208 -10.11672,-2.23788 -0.25269,-0.1368 -0.58229,-0.24873 -0.73245,-0.24873 -0.15017,0 -0.97772,-0.31441 -1.839,-0.6987 -1.07978,-0.48177 -1.65264,-0.91304 -1.84509,-1.38906 -0.57667,-1.42634 -1.07707,-5.01959 -1.07711,-7.73447 -1e-4,-5.98687 2.02749,-10.4011 6.77625,-14.75248 3.48786,-3.19599 6.22302,-4.80729 11.74454,-6.91878 8.36679,-3.19955 10.70453,-4.7519 12.24665,-8.13227 0.76845,-1.68447 0.83813,-6.84282 0.11069,-8.19411 -1.42885,-2.65422 -3.64499,-4.00311 -6.94401,-4.2266 -2.56653,-0.17386 -4.29259,0.16331 -6.82348,1.33291 -2.52171,1.16536 -4.77993,3.28096 -6.07552,5.69181 -0.84681,1.57577 -1.06393,2.328 -1.39148,4.82103 -0.51959,3.95461 -0.53919,4.02723 -1.76305,6.53113 -2.88246,5.89723 -9.96235,10.2973 -20.31605,12.62618 -1.67349,0.37642 -3.51896,0.79395 -4.10104,0.92785 -0.93482,0.21503 -1.11169,0.17562 -1.51547,-0.33769 -0.25143,-0.31962 -0.45979,-0.66689 -0.46302,-0.77172 -0.003,-0.10483 -0.30354,-0.84134 -0.66735,-1.6367 -0.3638,-0.79535 -0.66146,-1.5744 -0.66146,-1.73122 0,-0.15682 -0.11192,-0.49187 -0.24872,-0.74456 -0.41955,-0.77494 -1.28214,-4.03128 -1.76875,-6.67713 -0.63369,-3.44562 -0.63878,-10.85566 -0.01,-14.15521 1.19433,-6.26448 3.55119,-11.92287 6.99803,-16.80105 2.27359,-3.21771 6.9073,-7.85383 10.05019,-10.05541 4.91449,-3.44258 11.12718,-5.99963 17.12584,-7.04875 3.58058,-0.62621 10.17624,-0.62636 13.75833,-3.1e-4 17.65169,3.085 31.13436,16.62476 34.15776,34.30239 0.63982,3.74102 0.64746,10.04801 0.0165,13.62604 -3.05918,17.34792 -16.37176,30.86199 -33.51281,34.02004 -2.66261,0.49055 -9.1723,0.84991 -11.1125,0.61345 z m 25.75026,-55.65014 c 0.35711,-0.13577 1.08625,-0.63051 1.62031,-1.09943 3.279,-2.879 2.44176,-8.01724 -1.59751,-9.804 -3.47044,-1.53514 -7.66994,0.56968 -8.34489,4.18252 -0.46914,2.51122 0.86333,5.21565 3.1703,6.4345 1.06018,0.56013 4.00173,0.72367 5.15179,0.28641 z"
       id="path287" /></g></svg>
