<?xml version="1.0" encoding="UTF-8" standalone="no"?>
<!-- Created with Inkscape (http://www.inkscape.org/) -->

<svg
   width="301.01224mm"
   height="375.08234mm"
   viewBox="0 0 301.01224 375.08234"
   version="1.1"
   id="svg5"
   xml:space="preserve"
   xmlns="http://www.w3.org/2000/svg"
   xmlns:svg="http://www.w3.org/2000/svg"><defs
     id="defs2" /><g
     id="layer1"
     transform="translate(268.87624,-169.97829)"><path
       style="fill:#000000;stroke-width:0.264583"
       d="m -103.45013,544.93578 c -10.51491,-0.2455 -19.16065,-0.97417 -24.60625,-2.07375 -4.95859,-1.00126 -14.01151,-3.81381 -20.59686,-6.399 -36.72,-14.41505 -71.01502,-45.75276 -92.8184,-84.81444 -13.94415,-24.98153 -22.31486,-52.33964 -24.02207,-78.51164 -0.35452,-5.43499 -0.45503,-30.51678 -0.18129,-45.24375 0.22503,-12.10639 0.0813,-15.3611 -0.76791,-17.39362 -0.37043,-0.88657 -0.30462,-1.16257 2.14977,-9.01496 4.7099,-15.06851 8.91008,-26.13559 13.80878,-36.3848 1.65131,-3.45492 1.78655,-3.6518 2.42481,-3.52979 0.80765,0.1544 2.27955,-0.41782 3.14935,-1.22435 1.2949,-1.20071 2.69355,-3.65537 4.41277,-7.74449 3.41309,-8.11797 4.15914,-9.79362 5.6195,-12.62164 1.18956,-2.3036 1.60298,-2.87859 2.15604,-2.99866 0.37634,-0.0817 0.80702,-0.1844 0.95704,-0.22821 0.15004,-0.0438 0.47491,-0.71847 0.72195,-1.49925 1.66133,-5.25077 7.20759,-11.61988 20.84255,-23.9348 3.56023,-3.21554 7.5447,-6.9377 8.85439,-8.27147 2.57896,-2.62637 2.68206,-2.64016 2.75175,-0.36802 0.0145,0.47294 0.0924,0.85989 0.17306,0.85989 0.0807,0 0.94629,-0.6882 1.9236,-1.52934 9.23284,-7.94646 21.17358,-14.45837 44.89325,-24.4826 4.65667,-1.96797 9.03995,-3.82507 9.74062,-4.12689 1.20739,-0.52008 1.26584,-0.52317 1.11851,-0.059 -0.0899,0.28329 0.0168,0.6327 0.25307,0.82881 0.55562,0.46112 2.47579,0.23698 8.99556,-1.05006 4.7746,-0.94254 9.14107,-1.62829 9.33457,-1.46599 0.0405,0.0339 -0.79298,0.51098 -1.85209,1.0601 -2.68797,1.39363 -6.02669,3.37608 -6.02669,3.57849 0,0.0931 0.74414,0.01 1.65364,-0.18492 2.88288,-0.6175 6.4195,-0.71331 9.59115,-0.25982 1.60073,0.22887 3.86291,0.49854 5.02708,0.59927 l 2.11667,0.18313 -1.84526,0.62474 c -1.87968,0.63638 -2.78437,1.23742 -2.41642,1.60537 0.1126,0.1126 2.01052,0.1993 4.21758,0.19266 3.32628,-0.01 4.69187,-0.14488 7.9816,-0.78824 4.933916,-0.96491 8.673326,-1.0237 11.906246,-0.18717 1.16417,0.30123 2.33876,0.63489 2.61022,0.74147 0.39931,0.15677 0.46434,0.0977 0.34056,-0.30927 -0.30022,-0.98712 -0.67052,-2.87151 -0.58173,-2.9603 0.0497,-0.0497 1.13769,0.27932 2.41776,0.73113 1.28007,0.45181 5.42968,1.77816 9.22134,2.94745 11.50801,3.54889 12.69435,4.00295 20.78456,7.95499 6.80888,3.32612 6.46913,3.26921 11.21988,1.87943 3.21516,-0.94056 5.53957,-0.91329 8.71361,0.10224 l 2.33871,0.74826 0.60735,1.45521 c 0.33404,0.80037 1.11435,2.02889 1.73403,2.73006 1.05736,1.19642 7.57247,5.76803 8.75508,6.14337 1.44637,0.45906 0.81859,-0.84558 -1.67321,-3.4772 -2.10997,-2.22837 -1.98039,-2.20561 2.17121,0.3814 15.4396,9.62094 29.44932,23.34955 39.52402,38.73093 4.2291,6.45673 7.63722,13.04639 10.02741,19.38832 1.33819,3.55056 2.19538,6.36912 1.69829,5.58416 -0.91705,-1.44813 -1.98131,-2.68121 -2.38049,-2.75809 -0.57917,-0.11153 -0.59415,1.20716 -0.0536,4.71455 0.42844,2.77999 0.51411,5.45256 0.18137,5.65821 -0.11853,0.0733 0.65482,2.74307 1.71855,5.93293 1.7544,5.26098 4.59057,15.47414 4.56943,16.4547 -0.005,0.21828 -0.76658,-2.10344 -1.69307,-5.15938 -2.36553,-7.80256 -5.16519,-15.17565 -7.73242,-20.36383 -1.13866,-2.30115 -4.39258,-7.80499 -4.61756,-7.81036 -0.0909,-0.002 -0.23238,0.32349 -0.3143,0.72367 -0.35692,1.74366 -1.31297,2.08872 -4.35665,1.57241 -1.00217,-0.17001 -1.21127,-0.11295 -1.82121,0.49699 -0.64048,0.64049 -0.6771,0.80395 -0.51962,2.31946 0.30009,2.88809 1.50921,6.70889 2.44711,7.73282 0.95472,1.04233 1.43886,0.99536 1.88354,-0.18275 0.17537,-0.46454 0.45294,-0.76439 0.64757,-0.69951 0.18735,0.0624 0.82952,1.03136 1.42706,2.15312 0.90185,1.69311 1.13813,2.46056 1.39096,4.51788 0.16751,1.36307 0.83064,4.78158 1.4736,7.5967 0.64299,2.81512 1.2537,5.53512 1.35718,6.04444 l 0.18812,0.92604 -0.57769,-0.51802 c -0.31774,-0.28491 -1.16994,-1.49851 -1.89378,-2.69689 -1.2187,-2.01758 -1.99771,-2.727 -2.59157,-2.35998 -0.13338,0.0824 0.037,1.23557 0.38526,2.60682 1.06497,4.19401 2.50537,7.60113 4.24918,10.05095 l 0.89834,1.26205 -0.6487,0.24664 c -0.35682,0.13566 -0.79754,0.52024 -0.97941,0.85462 -0.448,0.82371 -0.36878,5.5963 0.13605,8.19648 0.68762,3.54181 1.4865,4.3697 3.43217,3.55675 0.90879,-0.37972 0.96361,-0.37442 0.96361,0.093 0,0.27261 -0.78748,2.61802 -1.74995,5.21202 -2.5799,6.95312 -3.0688,9.02532 -3.11042,13.18376 l -0.0344,3.44031 -0.95533,-2.51427 c -0.52544,-1.38285 -1.17015,-2.99052 -1.43269,-3.5726 l -0.47736,-1.05833 -0.2367,1.98437 c -0.13017,1.09141 -0.17468,2.75828 -0.0989,3.70417 0.0987,1.23163 0.0619,1.58836 -0.1297,1.25677 -0.36084,-0.62455 -0.83326,-0.58255 -1.48797,0.13229 -0.47376,0.51726 -0.56353,1.0463 -0.68469,4.0349 -0.22105,5.45348 -1.14024,8.2659 -5.99955,18.35707 -3.30822,6.87002 -3.97256,8.6655 -4.20503,11.36442 l -0.16711,1.94024 -1.76646,-2.44225 -1.76644,-2.44226 -1.47799,2.26744 c -0.81291,1.24709 -1.92289,3.1994 -2.4666,4.33847 -1.0286,2.15476 -1.03971,2.23857 -0.83574,6.30437 0.061,1.21611 -0.0663,1.91888 -0.5443,3.00399 l -0.62394,1.41649 -0.37624,-0.71806 c -0.34618,-0.66073 -0.31454,-0.8425 0.39616,-2.27639 1.46576,-2.95732 -0.019,-1.90259 -7.48235,5.31516 -6.07143,5.87164 -9.88157,9.06084 -14.93839,12.50389 -15.19732,10.34746 -31.26738,15.34269 -49.47708,15.37951 -8.33182,0.0169 -15.60329,-0.86224 -23.735136,-2.86946 -6.5069,-1.60613 -12.77736,-3.68603 -12.77736,-4.23822 0,-0.64845 -1.1732,-1.78563 -4.58044,-4.43981 -21.2825,-16.57865 -30.43335,-28.65627 -34.42432,-45.43439 -1.39445,-5.86233 -1.61076,-8.21157 -1.58352,-17.19792 0.0311,-10.25323 0.41548,-14.03326 1.56547,-15.39426 0.94294,-1.11598 1.52987,-2.45574 3.52517,-8.04674 0.88784,-2.48781 2.01159,-5.46437 2.49723,-6.61458 1.7769,-4.20849 4.30383,-7.85575 6.67211,-9.63023 0.85972,-0.64416 1.52384,-1.4807 2.20389,-2.77605 3.61852,-6.89248 11.56028,-13.92405 20.40728,-18.06841 11.52802,-5.40029 25.247596,-6.2995 37.054626,-2.42865 2.73371,0.89623 8.10339,3.37887 10.68278,4.93911 4.26622,2.58059 9.43562,6.83244 12.33597,10.14637 l 1.71979,1.96503 -1.32292,-1.09095 c -3.87436,-3.19501 -10.37535,-6.72195 -15.55664,-8.43986 -11.66808,-3.86867 -24.74912,-3.58952 -36.058676,0.76951 -8.06376,3.108 -13.74513,6.67873 -19.37684,12.17831 -7.48282,7.30726 -12.65659,16.44603 -15.22613,26.89493 -1.2515,5.08912 -1.9829,12.24749 -1.63295,15.98195 l 0.18548,1.97939 0.66576,-0.43622 c 0.36617,-0.23993 0.76553,-0.68272 0.88747,-0.984 0.15548,-0.38418 0.22671,-0.0508 0.23847,1.1163 0.0727,7.21693 2.41642,16.66376 5.97065,24.06628 3.47584,7.23922 7.2278,12.48344 13.21393,18.46949 5.86602,5.86595 11.14632,9.65767 18.27073,13.12001 6.069926,2.94988 11.631906,4.69961 17.991666,5.65996 3.43473,0.51866 10.3281,0.58944 13.62604,0.13991 3.21513,-0.43825 8.14706,-1.71413 10.9301,-2.82761 2.13622,-0.85468 2.42459,-0.91212 2.69851,-0.53751 0.27369,0.37428 0.70437,0.28455 4.00098,-0.83357 4.83162,-1.63877 7.0527,-2.94392 10.72495,-6.30221 1.64922,-1.50822 3.71296,-3.30205 4.58608,-3.9863 l 1.5875,-1.24408 -1.34809,1.44818 c -2.13342,2.29183 -2.40362,3.154 -0.98843,3.154 2.10603,0 8.03535,-4.51457 20.45804,-15.5767 6.22498,-5.54321 6.22641,-5.54546 6.15546,-9.69101 -0.0466,-2.72184 0.005,-3.04756 0.80119,-5.02708 l 0.851,-2.11667 2.77813,-1.42566 2.77812,-1.42565 1.93098,-5.07463 c 3.21514,-8.44935 3.73798,-10.51516 3.92028,-15.48968 l 0.12121,-3.3073 -1.187,2.24896 c -0.65286,1.23693 -1.19301,2.18386 -1.20031,2.10428 -0.007,-0.0796 0.22603,-1.24119 0.51853,-2.58137 1.15697,-5.30105 1.35927,-8.49621 1.27648,-20.16041 -0.0429,-6.03911 -0.044,-12.42958 -0.003,-14.20104 0.0746,-3.187 0.069,-3.22175 -0.53446,-3.30729 -0.58135,-0.0824 -0.63019,-0.2668 -1.044,-3.94089 -1.56966,-13.93715 -6.44249,-26.63398 -15.42741,-40.1987 -11.56587,-17.46121 -27.07087,-31.19834 -42.51798,-37.6701 -16.21385,-6.793 -39.636176,-9.53233 -56.711976,-6.63267 -1.30852,0.2222 -2.64932,0.47181 -2.97955,0.5547 -0.45163,0.11335 -0.56391,0.0556 -0.4531,-0.23323 0.32405,-0.84444 -0.45437,-0.9762 -3.45508,-0.5848 -6.11972,0.79823 -10.5061,1.83832 -13.98037,3.31499 -0.99879,0.42452 -3.79676,1.95187 -6.2177,3.39411 -4.78645,2.85144 -8.04163,4.34372 -11.94236,5.47476 -2.45848,0.71286 -3.70416,1.43036 -3.70416,2.13357 0,0.55304 1.84434,0.42901 4.81384,-0.32372 1.46344,-0.37096 2.85423,-0.63499 3.09066,-0.58674 0.26031,0.0531 -0.30068,0.51576 -1.42221,1.17284 -2.03759,1.19379 -3.04548,1.4373 -8.59896,2.07763 -6.18207,0.7128 -8.7624,1.55296 -12.74765,4.15068 -3.70804,2.41702 -9.98859,8.06358 -9.6244,8.65285 0.31543,0.51038 1.13519,0.3122 3.19427,-0.77224 1.10772,-0.58339 1.9278,-0.91082 1.82241,-0.72761 -0.10539,0.18321 -0.67862,1.01425 -1.27385,1.84675 -1.06908,1.49524 -1.09845,1.51374 -2.41571,1.52136 -3.74357,0.0216 -8.84052,2.33052 -15.20299,6.88681 -8.69889,6.22946 -20.78196,18.30516 -29.39329,29.37536 -1.94747,2.50355 -5.10681,7.12424 -4.96324,7.25897 0.0511,0.048 0.74784,0.19341 1.5482,0.32315 1.27991,0.20746 1.44774,0.30574 1.39318,0.81587 -0.10963,1.02515 -2.60366,6.29007 -6.53184,13.78872 -5.79067,11.05408 -6.52738,13.02468 -7.0348,18.81716 -0.15934,1.81901 -0.70023,7.1255 -1.20198,11.79219 -2.18572,20.32911 -2.7636,29.77067 -2.27613,37.188 0.44977,6.84363 1.19891,10.56908 2.86275,14.23626 0.49045,1.08098 1.1739,2.33535 1.51876,2.78749 l 0.62703,0.82208 -0.48918,4.75314 -0.48918,4.75314 1.90809,3.90048 c 1.97735,4.04206 1.99479,4.16931 0.57128,4.16931 h -0.63208 l 1.34802,3.9026 c 1.61864,4.68608 2.95263,7.63996 4.43811,9.82743 1.52311,2.24287 2.55619,2.86153 5.59701,3.35171 3.47702,0.56051 5.0535,1.69907 7.54795,5.45126 1.11989,1.68455 4.58593,8.62716 5.48381,10.98428 l 0.42124,1.10583 -1.37946,-0.56714 c -0.96981,-0.3987 -2.00063,-1.19271 -3.47124,-2.67374 l -2.09179,-2.10664 0.17013,1.06391 c 0.59032,3.69168 4.55279,11.23921 9.29376,17.70232 0.18073,0.24638 -0.0695,0.7279 -0.87399,1.68201 l -1.12722,1.33681 1.16555,1.78792 c 1.2531,1.92223 2.8177,3.65223 4.62102,5.10953 l 1.12816,0.9117 h -0.99587 c -0.88996,0 -1.00479,0.0775 -1.07967,0.72829 -0.14346,1.24704 2.05584,5.1484 6.0986,10.81831 2.5951,3.63958 9.49178,12.92736 9.59927,12.92736 0.0467,0 0.44934,-0.62508 0.8947,-1.38906 l 0.80975,-1.38907 0.006,0.94417 c 0.0193,3.12079 3.72008,9.91605 8.52762,15.65812 l 1.05249,1.25709 h 2.74418 c 2.57626,0 2.76342,0.0364 3.05864,0.59531 1.08442,2.05298 5.09257,6.36773 7.97711,8.58734 1.804,1.38814 5.25995,3.25277 6.02878,3.25277 0.28322,0 0.51493,0.0706 0.51493,0.15681 0,0.0863 -0.65484,0.9996 -1.4552,2.02968 -0.80037,1.03007 -1.45521,1.94214 -1.45521,2.02686 0,0.0847 0.80148,0.43376 1.78108,0.77563 2.88144,1.00563 5.06069,2.17117 7.60453,4.06715 1.31359,0.97904 3.05565,2.13767 3.87125,2.57471 1.54581,0.82833 7.23937,3.18582 7.69405,3.18582 0.22304,0 -0.65051,-1.74953 -2.11371,-4.23333 -0.21432,-0.3638 2.3355,2.08119 5.66625,5.43332 8.15547,8.2078 11.29543,10.31799 18.64819,12.53247 4.84825,1.46016 7.04052,1.94945 14.26294,3.18328 3.41974,0.58423 7.82505,1.46955 9.78958,1.96739 l 3.571876,0.90517 -1.98438,-0.0285 c -1.0914,-0.0156 -3.294056,-0.059 -4.894786,-0.0964 z m 20.108326,-123.81604 c -17.539836,-1.13777 -38.216816,-10.29904 -52.710136,-23.35406 -4.46758,-4.02422 -9.46624,-9.93589 -11.66891,-13.80024 -0.53219,-0.93367 -0.5499,-1.04248 -0.13229,-0.81259 0.69264,0.38129 3.3939,3.22751 7.82066,8.24035 4.14469,4.69344 7.35567,7.9319 9.80807,9.89203 1.67894,1.34192 4.68157,2.97562 4.68157,2.5472 0,-0.14762 -0.0942,-0.26839 -0.20936,-0.26839 -0.37883,0 -5.8206,-5.64453 -7.52482,-7.80521 -3.20526,-4.06375 -3.24417,-4.26182 -0.27758,-1.41302 5.59338,5.37131 11.45367,9.59929 17.56271,12.67086 l 2.09072,1.05119 v -0.7967 c 0,-0.43819 0.0539,-0.79671 0.11969,-0.79671 0.0658,0 0.70066,0.58097 1.41073,1.29104 3.27284,3.27284 8.41513,6.44586 12.624786,7.79006 7.12849,2.27622 15.36207,3.32732 26.45833,3.37768 l 6.35,0.0288 -1.85208,0.60683 c -3.53364,1.15779 -9.99542,1.84644 -14.55209,1.55086 z M -147.2709,393.8406 c -0.93859,-0.98227 -2.1322,-2.32172 -2.65246,-2.97656 -1.83356,-2.30788 -7.10489,-10.10536 -7.10489,-10.50972 0,-0.22522 0.13988,-1.16868 0.31086,-2.09659 l 0.31086,-1.68711 1.57341,2.84723 c 0.86538,1.56598 2.91636,5.04989 4.55775,7.74202 3.0615,5.02138 5.02458,8.46667 4.82418,8.46667 -0.0622,0 -0.88111,-0.80367 -1.81971,-1.78594 z m -0.0288,-16.80104 c -1.71799,-3.04604 -2.13838,-3.8756 -3.09524,-6.10787 -0.86854,-2.02622 -0.63624,-1.81222 0.66601,0.61353 0.66279,1.2346 1.59427,2.72289 2.06996,3.30729 0.70727,0.86892 2.4847,5.16361 2.13705,5.16361 -0.0544,0 -0.85444,-1.33945 -1.77778,-2.97656 z m 65.602626,-5.50126 c -4.39622,-0.94755 -8.28227,-2.34479 -8.78537,-3.15881 -0.22382,-0.36216 -0.34801,-0.35453 6.87606,-0.42203 4.44072,-0.0415 6.90688,-0.17859 8.20208,-0.45598 1.01865,-0.21815 1.88468,-0.36612 1.92451,-0.32882 0.13524,0.12664 -5.55483,4.93004 -5.78821,4.88625 -0.0578,-0.0108 -1.15085,-0.24511 -2.42907,-0.52061 z m 26.66569,-13.25458 c -0.16569,-0.36904 -0.75905,-0.76137 -1.5875,-1.04962 -0.7276,-0.25317 -1.12382,-0.46953 -0.88047,-0.48081 0.24334,-0.0113 1.40524,-0.51415 2.582,-1.1175 2.35052,-1.20516 2.34385,-1.19721 4.68995,-5.59191 1.61679,-3.02856 1.62226,-2.59044 0.0125,1.00014 -1.08193,2.41325 -3.16898,6.12553 -4.06272,7.22645 l -0.48918,0.60257 z m -3.41127,-1.96945 c -0.3115,-0.81174 -0.15317,-1.73053 0.53352,-3.09601 0.76088,-1.51302 3.90393,-6.14219 4.36295,-6.42588 0.37603,-0.2324 0.10753,0.27966 -2.45915,4.69001 -1.31806,2.26484 -2.11142,3.91863 -2.12601,4.43177 -0.0263,0.92618 -0.082,0.99771 -0.31131,0.40011 z m 79.76444,-2.64624 c 0.0127,-0.30823 0.0754,-0.37092 0.15986,-0.15985 0.0764,0.19099 0.067,0.4192 -0.0209,0.50712 -0.0879,0.0879 -0.15047,-0.0684 -0.13899,-0.34727 z m 0.26987,-0.6821 c -0.0143,-0.0962 0.26035,-1.40592 0.61053,-2.91041 0.35018,-1.50449 0.89255,-4.2014 1.20528,-5.99312 0.54957,-3.14886 1.24373,-5.7107 0.90959,-3.35691 -0.48596,3.42309 -2.61483,13.00005 -2.7254,12.26044 z m -4.76779,-9.63665 c 0.0127,-0.30823 0.0754,-0.37092 0.15986,-0.15985 0.0764,0.19099 0.067,0.4192 -0.0209,0.50712 -0.0879,0.0879 -0.15047,-0.0684 -0.13898,-0.34727 z m 0.28549,-1.43316 c 0,-0.3638 0.0601,-0.51263 0.13345,-0.33073 0.0734,0.1819 0.0734,0.47956 0,0.66146 -0.0734,0.1819 -0.13345,0.0331 -0.13345,-0.33073 z m 0.24368,-2.27101 c 0.0127,-0.30822 0.0754,-0.37092 0.15986,-0.15985 0.0764,0.191 0.067,0.4192 -0.0209,0.50712 -0.0879,0.0879 -0.15047,-0.0684 -0.13899,-0.34727 z m -61.00426,-11.48234 c -0.0882,-0.14279 -0.39456,-0.94009 -0.68071,-1.77179 -0.28614,-0.8317 -0.69128,-1.77319 -0.90031,-2.0922 -0.44626,-0.68107 -0.21801,-1.75873 0.71938,-3.39647 1.26995,-2.21877 1.88823,-1.23788 1.90496,3.02214 0.007,1.67349 -0.0796,3.37013 -0.19154,3.77032 -0.20716,0.74075 -0.56253,0.93601 -0.85178,0.468 z M -268.79558,287.26733 c -0.13566,-1.7958 -0.10057,-3.04043 0.10814,-3.83646 0.32481,-1.23882 2.33747,-4.88716 2.56858,-4.65605 0.17601,0.17601 -1.34996,7.53849 -1.98408,9.57283 l -0.49184,1.57784 z m 8.4512,-29.40921 c 0.92196,-2.16544 1.47509,-4.07595 1.61521,-5.57894 l 0.16562,-1.7766 h 1.489 1.489 l -0.0723,0.79375 c -0.0398,0.43656 -0.38438,1.62718 -0.76582,2.64583 -0.62996,1.68232 -0.85074,1.96851 -2.40854,3.12221 -1.03962,0.76994 -1.63513,1.08252 -1.51218,0.79375 z m 149.03943,-81.48733 c 0.191,-0.0764 0.4192,-0.067 0.50712,0.0209 0.0879,0.0879 -0.0684,0.15045 -0.34726,0.13897 -0.30823,-0.0127 -0.37092,-0.0754 -0.15986,-0.15986 z m 5.82539,-1.41615 c -0.24306,-0.14183 -1.13603,-0.43612 -1.98437,-0.65397 l -1.54245,-0.39609 2.38125,0.13257 c 1.30969,0.0729 2.66382,0.20995 3.00917,0.30453 l 0.62792,0.17196 -0.62792,0.34811 c -0.74933,0.41542 -1.26669,0.44121 -1.8636,0.0929 z m -5.64349,-4.76829 c 0.58209,-0.1204 1.29646,-0.2139 1.58751,-0.20778 0.42797,0.009 0.40267,0.0516 -0.1323,0.22296 -0.3638,0.11651 -1.07817,0.21002 -1.5875,0.20779 l -0.92604,-0.004 1.05833,-0.21891 z"
       id="path125" /></g></svg>
