<?xml version="1.0" encoding="UTF-8" standalone="no"?>
<!-- Created with Inkscape (http://www.inkscape.org/) -->

<svg
   width="259.24698mm"
   height="259.20438mm"
   viewBox="0 0 259.24698 259.20437"
   version="1.1"
   id="svg5"
   xml:space="preserve"
   xmlns="http://www.w3.org/2000/svg"
   xmlns:svg="http://www.w3.org/2000/svg"><defs
     id="defs2" /><g
     id="layer1"
     transform="translate(330.19998,17.956892)"><path
       style="fill:#ffffff;stroke-width:0.264583"
       d="m -291.83131,241.05271 c -5.1195,-0.58498 -9.44143,-1.88997 -14.41979,-4.35399 -4.42384,-2.18957 -7.76082,-4.58299 -11.23867,-8.06084 -3.47388,-3.47388 -5.86755,-6.80958 -8.06476,-11.23867 -2.55464,-5.14959 -3.74142,-9.17222 -4.37129,-14.81667 -0.36555,-3.27573 -0.36555,-178.493007 0,-181.768737 0.5906,-5.29252 1.78623,-9.53452 3.98764,-14.1477898 6.46212,-13.54202 19.38667,-22.6763002 34.42717,-24.3310102 3.49482,-0.38449 113.39662,-0.3915 115.83178,-0.007 8.64603,1.36378 15.54256,7.6822502 17.72288,16.2373702 0.72026,2.82615 0.72362,7.15229 0.008,10.13775 -1.81291,7.5618698 -7.54674,13.5213998 -15.25623,15.8567498 -1.4492,0.439 -4.55967,0.47844 -48.51202,0.61521 l -46.96354,0.14615 -1.98825,0.57808 c -2.79866,0.81371 -4.30502,1.51306 -6.78853,3.1517 -5.12978,3.38467 -8.56476,8.96812 -9.33382,15.17186 -0.38671,3.11942 -0.38671,131.831957 0,134.951377 0.55502,4.47713 2.47712,8.62549 5.54856,11.97516 2.77648,3.02798 5.76131,4.88599 9.96714,6.20437 l 2.33031,0.73047 47.09584,0.13268 47.09583,0.13267 1.85208,0.62235 c 2.01744,0.67791 5.05317,2.12636 6.33482,3.02255 2.64828,1.8518 5.34169,5.04986 6.96556,8.27067 1.6312,3.23537 2.04616,5.14528 2.03871,9.38339 -0.008,4.50665 -0.35281,6.07502 -2.12359,9.65729 -2.72059,5.50371 -7.39158,9.37892 -13.61238,11.29328 l -1.98437,0.61066 -57.28229,0.035 c -31.50526,0.0193 -58.17526,-0.067 -59.26667,-0.19172 z m 164.09045,-64.94493 c -2.57477,-0.6929 -5.18141,-2.68878 -6.54395,-5.01065 -1.41137,-2.40506 -1.44234,-2.85492 -1.44234,-20.95176 v -16.73954 l -44.78072,-0.0732 -44.78073,-0.0732 -2.11667,-0.59835 c -9.94257,-2.81062 -16.26817,-10.96166 -16.26817,-20.96285 0,-9.96969 6.35691,-18.161087 16.26817,-20.962847 l 2.11667,-0.59835 44.78073,-0.0732 44.78072,-0.0732 v -16.73954 c 0,-14.27509 0.0605,-16.9717 0.41064,-18.31648 1.46979,-5.6444 7.41424,-9.17852 12.95082,-7.69957 1.64057,0.43823 3.22976,1.23885 4.38152,2.20738 1.31292,1.10404 45.180127,56.031957 45.910917,57.486917 1.43809,2.86318 1.49467,6.26007 0.15205,9.12917 -0.55081,1.17706 -6.9791,9.40232 -22.97302,29.3949 -12.214497,15.26828 -22.604657,28.09362 -23.089217,28.50075 -2.66287,2.23737 -6.38978,3.06 -9.75742,2.15374 z"
       id="path474" /></g></svg>
