<?xml version="1.0" encoding="UTF-8" standalone="no"?>
<!-- Created with Inkscape (http://www.inkscape.org/) -->

<svg
   width="564.70764mm"
   height="551.03723mm"
   viewBox="0 0 564.70764 551.03723"
   version="1.1"
   id="svg5"
   xml:space="preserve"
   xmlns="http://www.w3.org/2000/svg"
   xmlns:svg="http://www.w3.org/2000/svg"><defs
     id="defs2" /><g
     id="layer1"
     transform="translate(72.6035,7.3582364)"><path
       style="fill:#ffffff;stroke-width:0.264583"
       d="m 121.81173,543.40125 c -1.53424,-0.22593 -7.56698,-2.28455 -14.54007,-4.96171 -49.67105,-19.07 -91.19177,-50.71327 -123.83207,-94.37336 -34.53738,-46.19765 -52.84875,-96.78781 -55.78448,-154.11979 -0.32921,-6.42919 -0.34811,-22.61116 -0.0337,-28.83958 1.39427,-27.61934 5.79598,-51.37964 14.1409,-76.33229 4.12547,-12.33581 8.64144,-23.14826 14.86319,-35.58646 23.60572,-47.19132 58.881,-86.10035 103.15344,-113.77934 11.64045,-7.27758 27.19575,-15.4817 38.49687,-20.30389 31.56937,-13.4706604 62.43117,-20.4984404 97.76354,-22.2625104 5.45399,-0.27231 21.9786,-0.26594 27.78125,0.0107 43.88141,2.09206 84.74097,13.61489 122.35485,34.5053804 47.32604,26.28456 84.55676,63.47118 111.12815,110.99654 2.99847,5.36306 8.80385,16.97285 11.23836,22.47479 10.91237,24.66194 17.97238,50.08272 21.4199,77.12604 1.69521,13.29777 2.14429,21.09052 2.1423,37.17396 -0.003,13.34476 -0.15994,17.39937 -1.0741,27.51666 -4.3021,47.61259 -20.63205,92.44941 -48.08543,132.02709 -32.55481,46.93213 -74.66253,81.08521 -125.32923,101.65307 -7.85429,3.18842 -17.36276,6.57723 -19.57917,6.97799 -4.04138,0.73075 -7.90726,0.38333 -10.74981,-0.96607 -1.98461,-0.94213 -4.51141,-3.53624 -5.65915,-5.80988 -1.65541,-3.27938 -1.57411,-0.89519 -1.58289,-46.4249 -0.005,-24.84668 -0.11457,-43.13444 -0.27318,-45.50834 -1.15168,-17.23567 -5.49694,-29.7434 -13.78765,-39.6875 -1.09194,-1.30969 -2.67079,-3.00635 -3.50859,-3.77039 -0.9234,-0.84212 -1.38457,-1.4297 -1.17107,-1.49214 0.19367,-0.0567 2.61432,-0.36492 5.37921,-0.68506 9.73813,-1.12755 23.09649,-3.60307 31.61771,-5.85928 12.39118,-3.28086 26.35896,-9.27521 38.27537,-16.42602 12.79768,-7.67964 23.64634,-17.74063 31.05708,-28.80217 11.18846,-16.70024 18.83368,-40.17897 21.27454,-65.33473 0.95618,-9.85464 1.26616,-25.09459 0.66029,-32.46318 -1.5789,-19.20262 -7.43283,-36.35663 -17.58907,-51.54203 -2.61933,-3.91633 -6.9337,-9.4766 -9.49656,-12.23896 -1.04259,-1.12373 -1.49,-1.80375 -1.39266,-2.11667 0.0789,-0.25357 0.63799,-1.83025 1.24248,-3.50374 1.9708,-5.45598 3.47827,-12.13362 4.27067,-18.91771 0.50509,-4.32411 0.43066,-15.02132 -0.13714,-19.71146 -1.15861,-9.57052 -3.5374,-19.22303 -7.12189,-28.89856 l -1.34512,-3.63086 -2.0016,-0.45743 c -2.63641,-0.6025 -8.20031,-0.58569 -11.79118,0.0356 -6.23834,1.07941 -12.861,3.15877 -22.30189,7.00229 -12.55559,5.11155 -20.47274,9.23762 -33.50768,17.46274 -4.08421,2.57716 -7.54946,4.75837 -7.70051,4.84714 -0.15108,0.0888 -2.53233,-0.41597 -5.29167,-1.12165 -15.74302,-4.02611 -30.38731,-6.37731 -47.8795,-7.68723 -5.14898,-0.38559 -25.76666,-0.5429 -31.22083,-0.23821 -18.23479,1.01866 -34.96958,3.54665 -51.59375,7.79385 l -5.55625,1.41953 -4.36563,-2.85167 c -12.05669,-7.87554 -18.14023,-11.15976 -30.47296,-16.45096 -18.49186,-7.93368 -27.64023,-10.61047 -36.20204,-10.5926 -2.90782,0.006 -6.43654,0.51745 -6.87162,0.99584 -0.11269,0.1239 -0.8101,1.95168 -1.5498,4.06173 -3.395,9.68451 -5.31709,17.61327 -6.57437,27.1198 -0.65746,4.97122 -0.65275,17.71518 0.008,22.48958 0.90233,6.51706 2.52976,13.14516 4.55557,18.55395 0.59835,1.59752 0.88127,2.70689 0.73956,2.89987 -0.12623,0.17191 -1.16769,1.36825 -2.31434,2.65853 -10.69009,12.02935 -18.67143,27.03261 -22.78293,42.82723 -2.6186,10.05954 -3.59235,18.49633 -3.59108,31.11405 0.003,23.59742 3.06253,42.50023 9.94209,61.41304 8.36613,22.99968 20.28494,38.82621 38.36048,50.9374 10.57749,7.08726 25.16108,14.01268 37.51723,17.81601 10.04554,3.09214 25.51972,6.15194 38.15361,7.54436 2.32833,0.25659 4.28333,0.50617 4.34448,0.55456 0.0611,0.0484 -0.78129,1.01034 -1.87203,2.13763 -7.96393,8.23073 -13.00859,18.89847 -15.32009,32.39685 -0.30655,1.79017 -0.64744,3.34878 -0.75753,3.46355 -0.11009,0.11478 -1.6718,0.80616 -3.47049,1.53641 -8.85597,3.59543 -17.64384,5.2749 -29.75559,5.68659 -9.40742,0.3198 -15.46553,-0.94499 -23.01754,-4.80539 -5.32897,-2.72407 -9.78249,-6.07817 -14.42421,-10.86334 -3.80227,-3.91981 -6.8046,-7.90493 -10.43855,-13.85568 -4.15594,-6.80545 -6.70904,-10.06364 -11.51866,-14.69964 -3.99521,-3.85098 -9.85274,-7.86828 -16.00729,-10.97835 -4.95438,-2.5036 -7.33179,-3.26467 -12.7766,-4.09023 -4.68961,-0.71101 -7.12571,-0.70318 -11.0134405,0.0354 -5.05185,0.95978 -6.45067,2.88767 -4.66373,6.42761 2.00083,3.96359 6.32322,8.08572 11.4111905,10.88247 6.11341,3.36039 11.60481,8.80914 17.85167,17.71295 4.99449,7.1188 7.99306,12.9108 12.67563,24.48404 1.99726,4.93636 3.83345,8.27783 6.48973,11.81 7.32782,9.74399 19.82819,17.35934 32.67763,19.90751 10.42249,2.06688 21.15701,2.97059 32.27917,2.71751 7.84492,-0.17851 9.47737,-0.33583 17.27636,-1.66478 3.09907,-0.52811 5.67317,-0.9161 5.72019,-0.86223 0.0945,0.1083 0.41666,33.32523 0.45254,46.6665 l 0.0228,8.46852 -0.70027,2.08608 c -1.62343,4.8361 -5.07307,8.07048 -9.64004,9.03848 -1.89505,0.40169 -5.36721,0.44688 -7.71962,0.10052 z"
       id="path125" /></g></svg>
