<?xml version="1.0" encoding="UTF-8" standalone="no"?>
<!-- Created with Inkscape (http://www.inkscape.org/) -->

<svg
   width="416.95099mm"
   height="256.3291mm"
   viewBox="0 0 416.95099 256.3291"
   version="1.1"
   id="svg5"
   xml:space="preserve"
   xmlns="http://www.w3.org/2000/svg"
   xmlns:svg="http://www.w3.org/2000/svg"><defs
     id="defs2" /><g
     id="layer1"
     transform="translate(132.11099,-97.618526)"><path
       style="fill:#ffffff;stroke-width:0.264583"
       d="m -90.608854,353.57419 c -10.347176,-1.51622 -19.374616,-5.91902 -26.786486,-13.06409 -8.31087,-8.01169 -13.32368,-18.41481 -14.49055,-30.07233 -0.20747,-2.07272 -0.26488,-27.01303 -0.19946,-86.65104 l 0.0919,-83.74063 0.57788,-2.96905 c 0.85174,-4.37613 2.537,-9.25418 4.59415,-13.29795 6.7252,-13.21989 18.70725,-22.26554 33.713546,-25.451496 l 2.89594,-0.61483 165.232293,-0.0698 c 146.781581,-0.062 165.557291,-0.0248 168.142711,0.33317 16.03518,2.219986 29.76306,12.193436 36.78418,26.724086 2.54124,5.25924 4.05228,10.79926 4.61857,16.93333 0.36525,3.95641 0.36589,163.93226 0,168.14271 -0.91808,10.58384 -4.78954,19.77657 -11.69639,27.77279 -6.12373,7.08959 -15.11548,12.64406 -24.15315,14.92014 -6.40292,1.61253 7.43244,1.49527 -172.672232,1.46349 -129.706802,-0.0229 -164.878532,-0.0985 -166.652862,-0.35854 z M 188.52657,289.93256 V 273.79298 H 76.343236 -35.840104 v 16.13958 16.13958 H 76.343236 188.52657 Z M -35.840104,225.7711 v -16.00729 h -16.13958 -16.13958 v 16.00729 16.00729 h 16.13958 16.13958 z m 48.154172,0 V 209.76381 H -3.8255145 -19.965094 v 16.00729 16.00729 H -3.8255145 12.314068 Z m 47.889584,0 V 209.76381 H 44.19636 28.189069 v 16.00729 16.00729 H 44.19636 60.203652 Z m 48.154168,0 V 209.76381 H 92.350528 76.343236 v 16.00729 16.00729 h 16.007292 16.007292 z m 48.15417,0 V 209.76381 H 140.5047 124.4974 v 16.00729 16.00729 h 16.0073 16.00729 z m 48.15417,0 v -16.00729 h -16.13959 -16.13958 v 16.00729 16.00729 h 16.13958 16.13959 z M -51.979684,161.60964 v -16.13958 h -16.00729 -16.00729 v 16.13958 16.13959 h 16.00729 16.00729 z m 48.0900735,0.0661 -0.0682,-16.07344 -15.9411435,-0.0682 -15.94115,-0.0682 v 16.14165 16.14165 h 16.00935 16.0093335 z M 44.19636,161.60964 V 145.60235 H 28.189069 12.181777 l -0.06864,15.74271 c -0.03775,8.65849 -0.01138,15.89247 0.05864,16.07551 0.1007,0.2633 3.457694,0.31855 16.075935,0.26458 l 15.948655,-0.0682 z m 48.154168,0 V 145.60235 H 76.343236 60.335944 l -0.0682,16.07549 -0.0682,16.07549 16.075489,-0.0682 16.075488,-0.0682 z m 48.021872,0 v -16.13958 h -16.00729 -16.00729 v 16.13958 16.13959 h 16.00729 16.00729 z m 48.15417,0 v -16.13958 h -16.00729 -16.00729 v 16.13958 16.13959 h 16.00729 16.00729 z m 48.15417,0 v -16.13958 h -16.00729 -16.00729 v 16.13958 16.13959 h 16.00729 16.00729 z"
       id="path390" /></g></svg>
