<?xml version="1.0" encoding="UTF-8" standalone="no"?>
<!-- Created with Inkscape (http://www.inkscape.org/) -->

<svg
   width="37.831913mm"
   height="28.607313mm"
   viewBox="0 0 37.831913 28.607313"
   version="1.1"
   id="svg5"
   xml:space="preserve"
   xmlns="http://www.w3.org/2000/svg"
   xmlns:svg="http://www.w3.org/2000/svg"><defs
     id="defs2" /><g
     id="layer1"
     transform="translate(-187.60694,-99.757846)"><path
       style="fill:#ffffff;stroke-width:0.264583"
       d="m 190.37237,127.87946 c -1.15814,-0.52607 -2.41876,-1.84458 -2.64284,-2.76421 -0.0771,-0.31621 -0.10678,-4.21765 -0.0661,-8.66987 l 0.074,-8.09495 8.4384,6.28806 c 4.64113,3.45843 8.68925,6.35539 8.99584,6.43769 0.71425,0.19173 1.9881,0.19173 2.70235,0 0.30658,-0.0823 4.35471,-2.97926 8.99583,-6.43769 l 8.43841,-6.28806 0.074,8.09495 c 0.0407,4.45222 0.011,8.35366 -0.0661,8.66987 -0.22409,0.91963 -1.4847,2.23814 -2.64284,2.76421 -0.99735,0.45303 -2.08381,0.4857 -16.15053,0.4857 -14.06672,0 -15.15318,-0.0327 -16.15053,-0.4857 z m 14.81371,-9.52217 c -2.40811,-1.4685 -16.98036,-12.76447 -17.26086,-13.38011 -0.81049,-1.77882 -0.007,-4.09725 1.66164,-4.79444 1.35586,-0.566525 32.51621,-0.566525 33.87207,0 1.66862,0.69719 2.47213,3.01562 1.66165,4.79444 -0.19608,0.43036 -3.44415,3.062 -8.38662,6.79499 -8.77952,6.63107 -9.4238,7.07764 -10.21106,7.07764 -0.29104,0 -0.89261,-0.22164 -1.33682,-0.49252 z"
       id="path243" /></g></svg>
