<?xml version="1.0" encoding="UTF-8" standalone="no"?>
<!-- Created with Inkscape (http://www.inkscape.org/) -->

<svg
   width="63.203915mm"
   height="83.886734mm"
   viewBox="0 0 63.203914 83.886734"
   version="1.1"
   id="svg5"
   xml:space="preserve"
   xmlns="http://www.w3.org/2000/svg"
   xmlns:svg="http://www.w3.org/2000/svg"><defs
     id="defs2" /><g
     id="layer1"
     transform="translate(23.883753,-60.792711)"><path
       style="fill:#ffffff;stroke-width:0.264583"
       d="m -23.883753,103.20771 0.104949,-38.975361 c -0.360422,-5.684611 3.941161,-3.020685 6.638068,-1.193175 3.708661,2.513108 8.5026757,5.75991 10.6533651,7.215119 2.1506893,1.455208 10.7546895,7.284847 19.1199999,12.954753 16.772703,11.368334 22.780964,15.439883 25.475202,17.258414 1.623205,1.52062 1.642149,4.22322 -0.09883,5.52181 -1.554631,1.04857 -3.62989,2.45168 -5.668795,3.83331 -3.4925,2.36664 -17.244218,11.68319 -30.5593733,20.70345 -13.3151557,9.02025 -17.2088457,11.88391 -17.6090277,12.16414 -0.457844,0.23125 -7.606611,5.04453 -8.038681,-1.1951 z"
       id="path181" /></g></svg>
