<svg xmlns="http://www.w3.org/2000/svg" width="238.122" height="638.135" viewBox="0 0 63.003 168.84"><path d="M61.33 118.829l-20.591 11.048-18.989 10.18c-.039.033 8.236 4.498 18.389 9.922l18.688 10.07c.21.191-3.595 7.787-4.381 8.745-.306.373-3.391-1.212-27.299-14.029L.205 140.083c.006-.127 9.184-5.124 20.395-11.106l20.393-11.033c.005-.087-9.215-5.087-20.489-11.113L0 95.739c-.004-.075 9.22-5.075 20.498-11.111l20.501-11.108c-.003-.074-9.232-5.067-20.509-11.097L.229 51.217c.134-.134 9.312-5.096 20.397-11.026l20.167-11.015c.01-.174-27.086-14.869-35.959-19.502L3.72 9.093l2.445-4.547L8.61 0l26.979 14.431 27.178 14.614c.109.101-8.999 5.105-20.241 11.119L21.909 51.263c-.097.09 9.043 5.089 20.311 11.11l20.587 11.113c.054.091-9.116 5.098-20.377 11.125L21.953 95.73c0 .088 8.781 4.856 19.513 10.595l20.525 11.006 1.012.57z"/></svg>
