<?xml version="1.0" encoding="UTF-8" standalone="no"?>
<!-- Created with Inkscape (http://www.inkscape.org/) -->

<svg
   width="465.54337mm"
   height="630.0459mm"
   viewBox="0 0 465.54337 630.0459"
   version="1.1"
   id="svg5"
   xml:space="preserve"
   xmlns="http://www.w3.org/2000/svg"
   xmlns:svg="http://www.w3.org/2000/svg"><defs
     id="defs2" /><g
     id="layer1"
     transform="translate(33.80291,87.244345)"><path
       style="fill:#000000;stroke-width:0.264583"
       d="m 245.59977,538.43172 c -3.37442,-13.39985 -7.94679,-26.21357 -13.5372,-37.93699 -0.89304,-1.87278 -2.08727,-4.63124 -2.65384,-6.12998 -1.17369,-3.10464 -2.45662,-5.6307 -3.2026,-6.30581 -0.43751,-0.39592 -0.63483,-0.41608 -1.3921,-0.14227 -0.48529,0.17548 -1.04986,0.25477 -1.2546,0.17622 -0.20475,-0.0786 -1.18483,-1.77737 -2.17796,-3.77511 -2.50096,-5.03081 -4.26911,-7.89291 -5.86715,-9.49711 -1.16725,-1.17173 -1.5468,-1.39009 -2.65785,-1.52903 -2.39063,-0.29895 -2.43875,-0.33922 -4.12835,-3.45402 -1.99618,-3.68002 -4.36104,-7.20178 -5.30507,-7.9003 -0.66032,-0.48861 -0.82028,-0.50639 -1.69887,-0.18868 -1.22074,0.44143 -1.31595,0.32666 -2.46156,-2.96735 -1.3311,-3.82736 -3.02019,-7.12105 -4.4484,-8.67429 l -1.28621,-1.39882 -2.28218,-0.15153 c -1.2552,-0.0833 -2.38855,-0.27033 -2.51856,-0.4155 -0.13001,-0.14518 -0.61734,-1.37483 -1.08295,-2.73257 -2.44906,-7.1415 -5.42778,-11.39378 -8.30884,-11.86132 -0.85672,-0.13904 -0.99995,-0.29197 -1.53875,-1.64293 -2.25849,-5.66293 -4.78921,-9.92973 -6.33296,-10.67739 -0.95455,-0.46231 -1.56047,-0.37233 -2.33187,0.34636 -0.53553,0.49893 -0.54714,0.48715 -2.0459,-2.07528 -0.82902,-1.4174 -2.09012,-3.57095 -2.80245,-4.78568 -0.9825,-1.67545 -1.39149,-2.71653 -1.69429,-4.31279 -1.36807,-7.21185 -3.78709,-10.87271 -8.60225,-13.01827 l -2.22741,-0.99247 -4.21195,-7.41048 c -2.91552,-5.12953 -4.46209,-7.58889 -5.02463,-7.99018 -1.21154,-0.86421 -2.73583,-0.73165 -5.54461,0.48218 -2.28148,0.98594 -2.36128,1.00084 -2.71121,0.50615 -0.71082,-1.00489 -1.57428,-1.79301 -3.53251,-3.22432 -3.94127,-2.88079 -4.92009,-4.21402 -5.33426,-7.26567 -0.62622,-4.61399 -3.49318,-7.74372 -7.63805,-8.33811 l -1.45205,-0.20825 -0.16187,-2.77522 c -0.40994,-7.02842 -1.99936,-9.92132 -6.11043,-11.1216 -1.06138,-0.30988 -2.22744,-0.65283 -2.59124,-0.76213 -0.64059,-0.19246 -0.65729,-0.25641 -0.52917,-2.0274 0.0728,-1.00576 0.12092,-3.6146 0.10702,-5.79741 -0.0218,-3.42086 -0.10578,-4.17659 -0.60835,-5.47415 -0.9573,-2.47156 -2.76373,-3.65234 -5.58408,-3.65006 h -1.190628 l -12.465658,11.44076 c -6.856111,6.29246 -12.705524,11.65456 -12.998699,11.91583 -0.516342,0.46017 -0.576074,0.44969 -1.906711,-0.33488 -0.755518,-0.44548 -1.82925,-1.04238 -2.386066,-1.32644 l -1.012396,-0.51649 -2.760578,5.61388 c -1.518319,3.08766 -3.424975,6.68644 -4.237016,7.99735 -1.329796,2.14672 -4.478949,5.9541 -4.920377,5.94883 -0.09625,0 -0.933381,-1.31643 -1.860293,-2.92287 -0.926915,-1.60642 -1.717429,-2.88539 -1.756699,-2.84216 -7.302708,8.03812 -9.152244,10.32269 -10.026136,12.38438 -0.27695,0.65336 -0.800825,1.8428 -1.164164,2.64316 -0.508669,1.12049 -0.672333,1.95331 -0.711541,3.62069 l -0.05092,2.16551 -2.979393,5.04902 -2.979396,5.04904 -2.583805,-6.42077 c -5.732946,-14.24641 -9.768411,-22.44165 -14.985049,-30.43172 -1.784305,-2.73293 -2.317205,-3.37005 -2.806705,-3.35563 -0.33232,0.01 -2.0925,0.17161 -3.91151,0.35954 -1.8190102,0.18796 -3.3799902,0.30224 -3.4688502,0.25395 -0.24617,-0.13375 -0.9764,-2.93412 -1.2685,-4.86463 -0.14313,-0.94588 -0.45181,-3.80338 -0.68596,-6.35 -0.23416,-2.54661 -0.61052,-5.46364 -0.83636,-6.48229 -1.26554,-5.70809 -4.59745002,-8.59896 -9.91091,-8.59896 h -1.82734 l 0.15798,-0.99219 c 1.05838,-6.64699 2.86544,-20.87192 2.66862,-21.00693 -0.13709,-0.0941 -1.78026,-0.25617 -3.65147,-0.36026 -2.4450498,-0.13502 -3.4022098,-0.28133 -3.4022098,-0.51909 0,-0.18195 0.468,-1.98678 1.04001,-4.01074 1.4679898,-5.19432 1.7365598,-6.9161 1.3379698,-8.57758 -0.41472,-1.72876 -0.76066,-2.11767 -5.5073698,-6.1913 l -3.973,-3.40963 0.6093,-0.81513 c 0.33511,-0.44831 1.53273,-2.42247 2.66138,-4.387 2.52552,-4.39592 4.19452,-6.84197 6.1212098,-8.97102 0.81392,-0.89942 1.43542,-1.67859 1.38111,-1.73151 -0.0543,-0.0529 -1.17031,-0.5357 -2.48,-1.07289 -1.3096798,-0.53718 -2.4690998,-1.05881 -2.5765098,-1.15914 -0.10739,-0.10033 0.096,-1.12643 0.45199,-2.28023 0.46143,-1.49556 0.5613,-2.15096 0.34783,-2.28288 -0.16468,-0.10178 -1.94566,-0.74361 -3.95772,-1.42629 -2.01206,-0.68267 -3.65829,-1.29839 -3.65829,-1.36824 0,-0.0699 0.4069,-0.86074 0.90423,-1.75752 1.72244,-3.10586 1.84219,-5.05306 0.39761,-6.46541 -1.15883,-1.13294 -2.95054,-1.60737 -8.31329,-2.2012 -2.61938,-0.29004 -5.37908,-0.70165 -6.13267,-0.91469 l -1.37017,-0.38738 3.58216,-7.34028 c 1.97019,-4.03714 3.97873,-8.20296 4.46342,-9.25732 l 0.88127,-1.91707 -3.39966,-2.51944 -3.39967,-2.51944 4.36172,-4.29175 c 2.39894,-2.36048 4.49155,-4.372 4.65024,-4.47008 0.17157,-0.10602 -1.01373,-1.54673 -2.924,-3.55402 l -3.21253,-3.37571 2.30827,-0.5923 c 2.94098,-0.75464 4.00829,-1.21338 6.19743,-2.66359 1.89142,-1.25298 3.57107,-3.1429 4.60933,-5.18633 l 0.63855,-1.25677 h -1.21243 -1.21245 l 0.057,-3.88668 0.057,-3.88665 -0.89953,-0.63751 c -2.8439,-2.01547 -6.83797,-3.38331 -12.23487,-4.19005 l -2.97166,-0.44421 1.2225,-1.2551 c 1.35599,-1.39216 2.61263,-3.19839 4.0653,-5.84327 1.09362,-1.99115 5.44732,-11.57295 5.44732,-11.98867 0,-0.14986 -1.62026,-1.89585 -3.60059,-3.87997 l -3.60059,-3.6075 8.11668,-5.65634 8.11669,-5.65634 -0.13074,-1.38316 c -0.19517,-2.06472 -1.30499,-3.84379 -4.37583,-7.0146 l -2.75192,-2.84149 1.54625,-0.68383 c 5.81636,-2.57227 11.1702898,-2.95169 14.0523698,-0.99585 1.11621,0.75747 1.27724,0.63029 1.53699,-1.21391 0.29372,-2.08549 0.3372,-2.15461 1.14693,-1.82334 1.38272,0.56568 5.0166,0.35259 7.32055,-0.42928 2.49273,-0.84595 6.7427002,-2.98749 6.9378202,-3.49596 0.0753,-0.19635 -0.27749,-2.74949 -0.78409,-5.67364 L 9.8812398,118.29093 10.70829,117.775 c 0.45488,-0.28376 2.03928,-1.12381 3.52089,-1.86679 2.32398,-1.1654 2.959706,-1.36761 4.630214,-1.47279 3.102139,-0.19532 5.641406,0.94471 8.866267,3.9806 l 1.373645,1.29314 2.783662,-1.89481 c 1.585648,-1.07933 3.015655,-2.27018 3.322709,-2.767 1.141315,-1.84669 0.438751,-3.67744 -2.139651,-5.57555 -1.368769,-1.00763 -1.474581,-1.1493 -0.951973,-1.27458 0.879104,-0.21075 13.043042,-2.73845 14.893729,-3.09497 2.142434,-0.41272 3.814519,-1.28824 4.571071,-2.39346 0.870006,-1.27096 0.664647,-3.119595 -0.602665,-5.425188 -0.519182,-0.944533 -0.943965,-1.755256 -0.943965,-1.801606 0,-0.04635 2.440858,-0.949878 5.424128,-2.007838 l 5.424127,-1.923566 2.625516,1.259237 c 1.444035,0.692578 2.783412,1.197575 2.976393,1.122214 0.192982,-0.07536 4.160877,-3.068333 8.817544,-6.651048 5.046636,-3.882747 8.618143,-6.45691 8.841666,-6.372627 0.206248,0.07777 1.040037,0.210912 1.852866,0.29587 1.787938,0.186875 3.196818,-0.316754 3.903118,-1.395238 0.767955,-1.172628 0.610126,-3.913156 -0.403482,-7.006048 -0.457991,-1.397497 -0.83271,-2.601417 -0.83271,-2.675374 0,-0.07396 1.637109,0.201118 3.638021,0.611281 2.000911,0.410159 3.784089,0.750874 3.962617,0.757144 0.208745,0.0073 -0.09932,-1.183597 -0.863137,-3.33675 -0.653251,-1.841481 -1.14395,-3.391932 -1.090435,-3.445444 0.05351,-0.05351 2.22786,2.410733 4.831884,5.476097 l 4.734591,5.573395 5.48262,2.764301 5.48262,2.7643 1.62364,2.053061 c 0.893,1.129186 4.45627,5.803532 7.91837,10.387439 3.46211,4.583906 7.58217,9.882188 9.15569,11.773958 3.70572,4.45523 10.0874,10.80199 13.60178,13.52734 2.64096,2.04804 2.86712,2.16596 4.75715,2.48031 2.87696,0.47849 7.76228,1.7037 10.05417,2.52152 6.42132,-23.96684 9.91715,-54.08788 10.96205,-62.450003 1.22597,-9.749896 2.47213,-20.167865 2.76924,-23.151042 1.62994,-16.365747 2.64792,-38.91763085 2.65528,-58.82423 0.003,-8.620554 -0.008,-8.793176 -1.44938,-23.01875 -1.55958,-15.38878 -4.71678,-18.18923 -5.74434,-21.47681 1.54801,-13.918923 -5.64134,-11.06859 6.60871,-16.94036 1.85086,-0.91114 4.39401,-3.07208 5.51976,-4.6902 l 0.5068,-0.72848 3.23797,13.56077 c 1.78088,7.45842 3.35808,14.63233 3.50489,15.942018 0.81311,7.253759 1.0417,40.913336 0.32343,47.625 -0.36237,3.3860772 -0.72208,11.6348462 -1.37881,31.617709 -1.04256,31.723256 -1.18304,34.260078 -2.53471,45.772916 -1.10157,9.38261 -2.98798,22.522675 -4.10227,28.575 -0.57602,3.128698 -1.34633,7.712602 -1.7118,10.186462 -0.7224,4.88998 -1.10326,12.33213 -0.71764,14.02291 l 0.24138,1.05834 0.6082,-1.17589 c 1.86966,-3.61478 5.56093,-8.5391 10.18846,-13.59183 l 3.10528,-3.39063 -0.30327,-6.972059 c -0.1668,-3.83463 -0.46454,-12.667281 -0.66165,-19.628117 l -0.35838,-12.656061 1.67658,-6.085416 c 0.92213,-3.34698 1.75368,-6.859323 1.84791,-7.805209 0.58771,-5.899755 3.13299,-11.323042 7.76278,-16.540347 l 0.88462,-0.996868 3.13522,3.127055 3.13522,3.127052 2.904,-1.137992 2.90401,-1.137991 0.27906,-1.620975 c 0.15348,-0.891537 0.46498,-2.868396 0.69221,-4.393023 0.91427,-6.134248 2.1379,-10.652792 3.76325,-13.896702 1.136,-2.267263 1.03799,-2.292546 3.02035,0.779237 0.99121,1.535951 1.84784,2.792638 1.90361,2.792638 0.0558,0 0.49267,-0.794774 0.97088,-1.766163 1.0713,-2.176105 2.74165,-3.886959 4.64623,-4.758912 1.84274,-0.843637 6.23935,-1.7746 6.48716,-1.373632 0.0969,0.156805 0.5031,1.551675 0.90265,3.099715 0.39955,1.54804 0.77121,2.892489 0.82587,2.987665 0.35031,0.609669 7.98192,-3.309864 13.26811,-6.814376 2.28259,-1.5132598 4.22061,-2.7513808 4.30673,-2.7513808 0.0861,0 0.91715,2.8608288 1.84679,6.3573928 0.92964,3.496566 1.75475,6.455195 1.83359,6.574732 0.0788,0.119533 4.22614,0.518009 9.21626,0.885499 4.9901,0.367491 9.1399,0.73514 9.22176,0.816999 0.0819,0.08186 -0.0563,1.888382 -0.30705,4.014494 -0.25072,2.126112 -0.4119,3.90761 -0.35822,3.958884 0.0537,0.05128 1.16298,-1.786041 2.46505,-4.082923 l 2.36738,-4.176155 1.70696,1.292204 c 1.78366,1.350262 2.02317,1.458616 2.28553,1.034066 0.31813,-0.51472 3.49244,-2.10566 5.56024,-2.78674 1.16417,-0.383447 3.90261,-1.105381 6.08542,-1.604298 2.18281,-0.49892 4.23664,-0.968912 4.56406,-1.04443 l 0.59531,-0.137305 0.003,4.172228 c 0,2.294725 0.0774,4.797305 0.16915,5.56129 l 0.16684,1.389062 h 2.87764 2.87763 l 3.13037,1.569207 3.13036,1.56921 -0.89328,4.949375 c -0.49131,2.722157 -0.85167,4.991007 -0.80079,5.041887 0.0509,0.05088 4.78369,0.45775 10.51737,0.904152 5.73365,0.446405 10.47144,0.858258 10.52841,0.915231 0.057,0.05697 -0.43572,2.193613 -1.09485,4.748093 -1.04135,4.035703 -1.14065,4.645033 -0.7574,4.648483 1.01645,0.0092 20.46182,2.06923 20.57202,2.179437 0.0663,0.06627 -0.55692,1.625886 -1.38488,3.465803 -0.82799,1.839918 -1.44891,3.401783 -1.37988,3.470812 0.069,0.06903 1.7858,0.317784 3.81505,0.552786 2.02925,0.235003 3.73488,0.472186 3.79026,0.527074 0.0554,0.05489 -0.0934,0.872697 -0.33073,1.817354 -0.55509,2.209925 -0.54978,2.270263 0.2009,2.270263 2.26182,0 9.14699,1.967886 12.12654,3.465946 1.9009,0.955728 5.49738,3.373173 5.49738,3.695169 0,0.118718 -2.17913,2.235406 -4.84248,4.703746 -2.66338,2.46834 -5.54265,5.2436 -6.39837,6.167245 -2.766,2.985553 -5.09471,6.475584 -4.81213,7.211954 0.0679,0.177059 1.67952,1.122775 3.58126,2.101593 1.90175,0.978818 3.53473,1.904259 3.62884,2.056538 0.0941,0.152275 -0.18245,0.653531 -0.61457,1.113901 -2.35241,2.506093 -4.58391,6.434333 -5.63126,9.913073 -0.31999,1.06275 -0.53851,1.96768 -0.48559,2.01094 0.0529,0.0433 2.53696,1.2765 5.52014,2.74054 6.0661,2.97703 9.04554,4.82467 12.61398,7.82228 l 2.42752,2.03922 -3.08898,3.12074 c -4.53274,4.57935 -6.83143,8.17323 -7.32028,11.44477 l -0.18124,1.21285 6.25033,6.37317 6.25033,6.37316 -1.72894,4.31226 c -0.95094,2.37174 -1.72498,4.43491 -1.72008,4.58481 0.005,0.14991 1.78196,1.33038 3.94906,2.62328 2.16712,1.29289 5.07458,3.19635 6.46102,4.22991 2.48068,1.84928 2.5278,1.90502 2.95976,3.50079 l 0.43894,1.62159 3.74063,0.14715 c 5.10413,0.20079 9.50688,1.32924 15.12493,3.87659 l 1.82192,0.82608 -3.9248,3.93134 c -2.15863,2.16226 -3.8562,4.04231 -3.77238,4.17793 0.0838,0.13563 1.99406,1.65942 4.24498,3.38619 l 4.09257,3.1396 -1.05793,2.10415 c -0.58187,1.15729 -0.94861,2.17673 -0.81497,2.26542 0.13364,0.0887 1.27309,0.9289 2.53211,1.86711 2.21922,1.6537 2.35077,1.8134 4.30533,5.22669 2.25589,3.9394 3.43665,6.73488 3.6699,8.68849 l 0.15669,1.31233 -4.52448,3.175 c -2.48846,1.74625 -4.63465,3.30565 -4.7693,3.46536 -0.16071,0.1906 1.42917,3.18547 4.62822,8.71818 l 4.87302,8.42782 -0.40701,0.80682 c -0.83823,1.66156 -2.50449,3.59582 -3.56267,4.13565 -0.77713,0.39645 -1.45222,0.52859 -2.37408,0.46466 -0.7085,-0.0491 -1.28812,-0.0575 -1.28801,-0.0188 0,0.15856 2.59947,4.3426 4.31159,6.94081 3.09362,4.69464 4.27691,7.54076 3.67991,8.85105 -0.23532,0.51644 -0.55552,0.64882 -1.95358,0.80751 -0.91969,0.10441 -1.81615,0.26792 -1.99218,0.36338 -0.22307,0.121 1.16641,3.48515 4.58655,11.10475 2.69859,6.01213 4.84672,10.99098 4.77361,11.06411 -0.0731,0.0731 -2.73237,-0.28935 -5.90944,-0.80545 -8.25995,-1.34181 -9.78006,-1.5149 -13.25697,-1.50939 -2.45785,0.004 -4.36494,-0.21656 -9.17382,-1.06048 -3.90978,-0.68612 -6.27997,-1.22465 -6.65813,-1.51281 -0.32298,-0.24611 -1.45132,-1.22137 -2.50743,-2.16725 -2.09564,-1.8769 -2.05071,-1.89691 -1.41635,0.63058 0.12372,0.49294 0.0702,0.69122 -0.18565,0.68852 -0.19767,-0.003 -2.28778,-0.51755 -4.64463,-1.14543 l -4.28525,-1.14165 -2.01363,-1.8311 c -3.61725,-3.28938 -7.34425,-6.46081 -8.25154,-7.02154 -1.27719,-0.78936 -1.74506,-0.51263 -1.62771,0.96271 0.11266,1.41658 0.14867,1.42216 -2.54299,-0.39412 -5.45325,-3.67983 -14.2837,5.70777 -23.61013,1.22512 -10.47103,-0.22692 -10.68694,5.23383 -11.63052,14.48966 2.05854,1.94747 4.51673,4.19499 5.46261,4.99449 2.55225,2.1573 6.49851,4.71164 9.06471,5.8674 l 2.26742,1.02118 -1.82962,2.64417 c -1.00626,1.45428 -1.82959,2.77386 -1.82959,2.93243 0,0.15854 1.44322,1.89531 3.20715,3.85948 3.96491,4.41494 5.20932,6.14164 6.70176,9.29901 1.00991,2.13657 2.26192,5.84955 2.26192,6.70799 0,0.18682 -0.95239,0.21008 -2.95529,0.0722 -1.62541,-0.11186 -3.01395,-0.14472 -3.08565,-0.073 -0.0717,0.0717 -0.265,2.24425 -0.42958,4.82785 -0.27212,4.27231 -0.36406,4.82251 -1.0156,6.07819 l -0.71638,1.38068 7.37928,11.84849 c 8.50566,13.65708 7.9924,11.78849 3.86593,14.07462 -2.83115,1.56847 -6.46073,2.81247 -8.92969,3.06051 -0.98226,0.0987 -1.78347,0.25927 -1.78046,0.35682 0.003,0.0975 0.40947,4.70175 0.90326,10.23154 0.4938,5.52979 0.86858,10.08372 0.83289,10.11981 -0.0357,0.0361 -1.85413,0.30697 -4.04088,0.60193 l -3.97597,0.53626 -4.71057,-1.59523 c -2.59082,-0.87736 -4.75286,-1.55292 -4.80454,-1.50124 -0.0517,0.0517 1.32247,1.86787 3.05366,4.036 l 3.14765,3.94206 0.59769,6.74687 c 0.68662,7.75094 0.7829,15.86384 0.21826,18.38854 l -0.35505,1.5875 -1.71979,0.20606 c -3.03252,0.3633 -8.23984,0.34271 -9.525,-0.0377 -0.78094,-0.23114 -1.58046,-0.75782 -2.32352,-1.53058 -1.05844,-1.10075 -1.1199,-1.12948 -0.93522,-0.43715 0.10872,0.40756 0.20114,2.28883 0.20539,4.1806 0.006,2.84139 -0.0948,3.76169 -0.58189,5.29167 -0.59418,1.86642 -2.02499,4.63021 -2.39702,4.63021 -0.11039,0 -2.49968,-0.76859 -5.3095,-1.70799 l -5.10881,-1.70799 0.22164,1.37726 c 0.12189,0.7575 0.22164,2.74949 0.22164,4.42664 0,2.91287 -0.0389,3.12843 -0.86961,4.81472 -0.95919,1.94718 -2.37416,3.35915 -4.55639,4.54689 l -1.38009,0.75113 -2.35074,-0.72109 c -3.9904,-1.2241 -7.88948,-1.28556 -10.42411,-0.16439 -2.31577,1.02439 -4.62346,4.26601 -5.04685,7.0893 -0.20539,1.36969 -0.44574,1.56985 -1.22751,1.0223 -0.89011,-0.62347 -2.16106,-0.51414 -3.08774,0.26558 -1.80202,1.5163 -3.41003,6.41647 -4.16224,12.68368 -0.22704,1.89177 -0.46529,3.71364 -0.52943,4.0486 -0.11417,0.59621 -0.17563,0.60733 -2.92235,0.52917 l -2.80569,-0.0798 -3.54439,7.67291 c -1.94942,4.22011 -3.8985,8.43211 -4.33133,9.36001 l -0.78692,1.68711 -0.53944,-0.6858 c -0.2967,-0.37719 -0.98052,-0.8083 -1.51961,-0.95803 -1.34339,-0.37308 -3.30406,-0.34454 -3.81439,0.0556 -0.68156,0.53435 -3.11348,4.33636 -4.43891,6.93965 -2.8276,5.55376 -2.93468,6.01937 -5.55808,24.16371 -2.16738,14.99055 -4.42103,30.0488 -4.57147,30.54543 -0.0332,0.10961 -0.57769,-1.85492 -1.20994,-4.36563 z M -19.15446,285.82295 c -0.0927,-0.14999 0.0135,-0.19436 0.24897,-0.10401 0.45837,0.1759 0.54223,0.36555 0.16165,0.36555 -0.13693,0 -0.32171,-0.11769 -0.41062,-0.26154 z"
       id="path125" /></g></svg>
