<?xml version="1.0" encoding="UTF-8" standalone="no"?>
<!-- Created with Inkscape (http://www.inkscape.org/) -->

<svg
   width="323.75131mm"
   height="263.07352mm"
   viewBox="0 0 323.75131 263.07352"
   version="1.1"
   id="svg5"
   xml:space="preserve"
   inkscape:version="1.2.2 (b0a8486541, 2022-12-01)"
   sodipodi:docname="blender.svg"
   xmlns:inkscape="http://www.inkscape.org/namespaces/inkscape"
   xmlns:sodipodi="http://sodipodi.sourceforge.net/DTD/sodipodi-0.dtd"
   xmlns="http://www.w3.org/2000/svg"
   xmlns:svg="http://www.w3.org/2000/svg"><sodipodi:namedview
     id="namedview7"
     pagecolor="#505050"
     bordercolor="#eeeeee"
     borderopacity="1"
     inkscape:showpageshadow="0"
     inkscape:pageopacity="0"
     inkscape:pagecheckerboard="0"
     inkscape:deskcolor="#505050"
     inkscape:document-units="mm"
     showgrid="false"
     inkscape:zoom="0.53672095"
     inkscape:cx="503.98629"
     inkscape:cy="354.93304"
     inkscape:window-width="1521"
     inkscape:window-height="1128"
     inkscape:window-x="10"
     inkscape:window-y="62"
     inkscape:window-maximized="1"
     inkscape:current-layer="layer1" /><defs
     id="defs2"><inkscape:perspective
       sodipodi:type="inkscape:persp3d"
       inkscape:vp_x="0 : 114.57347 : 1"
       inkscape:vp_y="0 : 999.99998 : 0"
       inkscape:vp_z="210.00002 : 114.57347 : 1"
       inkscape:persp3d-origin="105.00001 : 65.073578 : 1"
       id="perspective517" /></defs><g
     inkscape:label="Layer 1"
     inkscape:groupmode="layer"
     id="layer1"
     transform="translate(-1359.6843,925.86881)"><ellipse
       style="fill:#ffffff;stroke-width:0.264583"
       id="path2122"
       cx="1572.1779"
       cy="-773.32269"
       rx="81.932114"
       ry="73.553078"
       transform="translate(-4.3749997e-6)" /><g
       id="g2031"
       transform="translate(-166.99651,144.76699)"><path
         style="fill:#fe6f20;stroke-width:0.264583"
         d="m 1729.3403,-807.74889 -1.3229,-0.0902 -3.8805,-0.39338 -3.8805,-0.39338 -3.131,-0.53798 -3.1309,-0.53797 -4.1011,-0.91013 -4.101,-0.91014 -4.3657,-1.34739 -4.3656,-1.34738 -4.3038,-1.70652 -4.3038,-1.70651 -3.5014,-1.66649 -3.5014,-1.66648 -3.175,-1.80245 -3.175,-1.80245 -3.3073,-2.16342 -3.3073,-2.16341 -2.9104,-2.2059 -2.9104,-2.2059 -2.6357,-2.27587 -2.6357,-2.27586 -3.0628,-3.05271 -3.0629,-3.05271 -2.3742,-2.76813 -2.3742,-2.76812 -2.2885,-3.04936 -2.2885,-3.04936 -1.84,-2.90376 -1.84,-2.90377 -1.8812,-3.43958 -1.8813,-3.43959 -1.561,-3.57187 -1.561,-3.57187 -1.2295,-3.5423 -1.2295,-3.5423 -0.7982,-3.07229 -0.7982,-3.07228 -0.704,-3.96875 -0.7041,-3.96875 -0.013,-4.63021 -0.013,-4.63021 0.2239,-2.84427 0.2239,-2.84427 h -0.2251 -0.2251 l -32.1457,26.31766 -32.1456,26.31766 -2.2284,1.32965 -2.2284,1.32965 -2.0717,0.79891 -2.0716,0.79891 -1.5208,0.39789 -1.5208,0.3979 -2.4474,0.30247 -2.4474,0.30246 -2.4497,-0.30106 -2.4497,-0.30105 -1.9317,-0.657 -1.9316,-0.65699 -1.4549,-0.8324 -1.4549,-0.8324 -1.5583,-1.44271 -1.5583,-1.44272 -1.0715,-1.69652 -1.0714,-1.69651 -0.7229,-2.05805 -0.7229,-2.05804 v -3.57188 -3.57187 l 0.5941,-2.06071 0.5941,-2.06071 0.7918,-1.74642 0.7919,-1.74642 1.4967,-2.24948 1.4968,-2.24948 2.0122,-2.01318 2.0121,-2.01318 18.1207,-13.8859 18.1207,-13.8859 12.4354,-9.54912 12.4354,-9.54913 27.5167,-21.10868 27.5166,-21.10868 0.6555,-0.6339 0.6554,-0.6339 -0.2586,-10e-4 -0.2585,-10e-4 -33.8667,-0.0675 -33.8667,-0.0675 -1.98,-0.61086 -1.9801,-0.61086 -1.8564,-0.96543 -1.8564,-0.96543 -1.6074,-1.59619 -1.6073,-1.5962 -0.8332,-1.71979 -0.8331,-1.71979 -0.2766,-1.78594 -0.2765,-1.78594 0.2758,-1.72615 0.2757,-1.72615 0.5607,-1.515 0.5607,-1.51498 1.1073,-1.7198 1.1073,-1.7198 1.6785,-1.6596 1.6786,-1.6596 1.8713,-1.2329 1.8714,-1.2328 2.0487,-0.8879 2.0488,-0.8878 2.0538,-0.5725 2.0539,-0.5724 49.8739,-0.176 49.874,-0.1759 16.2278,-0.035 16.2277,-0.035 -0.1066,-0.3308 -0.1066,-0.3307 -20.8837,-16.9876 -20.8836,-16.9875 -1.0304,-1.1364 -1.0305,-1.1364 -0.8216,-1.7198 -0.8217,-1.7198 v -2.6458 -2.6459 l 0.7394,-1.579 0.7394,-1.5791 1.0272,-1.3605 1.0272,-1.3606 1.6712,-1.2562 1.6713,-1.2563 1.5107,-0.7627 1.5108,-0.7626 2.3275,-0.6803 2.3274,-0.6804 2.8287,-0.1546 2.8287,-0.1547 2.0661,0.3319 2.0661,0.3319 1.9936,0.726 1.9935,0.726 1.1511,0.7267 1.1511,0.7266 42.2314,32.4413 42.2314,32.4413 8.7312,6.70221 8.7313,6.70219 2.7781,2.2863 2.7781,2.28631 4.5158,4.51564 4.5157,4.51564 2.2841,2.80263 2.2841,2.80263 2.154,3.00901 2.1539,3.00901 2.0787,3.49122 2.0786,3.49122 1.5689,3.13256 1.5688,3.13256 1.09,2.56412 1.09,2.56413 0.9044,2.49852 0.9045,2.49851 0.9408,3.28129 0.9409,3.28129 0.6546,3.03315 0.6546,3.03315 0.5364,3.70417 0.5363,3.70416 0.292,4.80823 0.2919,4.80822 -0.2841,4.82015 -0.284,4.82015 -0.5418,3.73308 -0.5418,3.73309 -0.8106,3.57187 -0.8106,3.57188 -1.0515,3.43958 -1.0515,3.43959 -1.4615,3.70416 -1.4616,3.70417 -2.0507,4.10104 -2.0507,4.10104 -1.525,2.51354 -1.5249,2.51354 -2.0808,3.04271 -2.0808,3.04271 -1.9993,2.51354 -1.9993,2.51354 -3.0419,3.36298 -3.0419,3.36298 -3.363,3.04191 -3.3629,3.04192 -2.5136,2.0007 -2.5135,2.0007 -2.9007,2.04545 -2.9007,2.04545 -4.1108,2.45803 -4.1107,2.45802 -4.2334,2.08005 -4.2333,2.08004 -4.3656,1.72226 -4.3657,1.72225 -3.4395,1.07347 -3.4396,1.07348 -3.7042,0.92681 -3.7042,0.92681 -3.5718,0.65264 -3.5719,0.65265 -3.175,0.40291 -3.175,0.40293 -3.5586,0.27496 -3.5586,0.27498 -6.0987,-0.0477 -6.0987,-0.0477 z m 18.9177,-49.41316 2.7781,-0.43596 3.0427,-0.67166 3.0427,-0.67166 3.8365,-1.26612 3.8365,-1.26612 2.8527,-1.25509 2.8528,-1.25509 3.2327,-1.84745 3.2326,-1.84746 2.6349,-1.87604 2.6349,-1.87605 2.6568,-2.30615 2.6567,-2.30614 1.3525,-1.41274 1.3526,-1.41274 1.9188,-2.24896 1.9189,-2.24895 2.127,-3.175 2.1269,-3.175 1.9215,-3.9161 1.9215,-3.9161 1.0835,-3.31527 1.0835,-3.31527 0.6442,-3.21967 0.6443,-3.21968 0.3144,-3.30729 0.3145,-3.30729 -0.1645,-3.70417 -0.1645,-3.70416 -0.4205,-2.77308 -0.4205,-2.77309 -0.7682,-2.97918 -0.7681,-2.97918 -0.9603,-2.58211 -0.9602,-2.58211 -1.5169,-3.04534 -1.5169,-3.04534 -1.4041,-2.24633 -1.4041,-2.24632 -2.0107,-2.64584 -2.0107,-2.64583 -3.4399,-3.44409 -3.4398,-3.44409 -3.0427,-2.29245 -3.0427,-2.29244 -2.3813,-1.49913 -2.3812,-1.49913 -3.9688,-1.9372 -3.9687,-1.93719 -2.9754,-1.07979 -2.9754,-1.07979 -3.5069,-0.91896 -3.5069,-0.91895 -3.3073,-0.53745 -3.3073,-0.53744 -4.4318,-0.30349 -4.4317,-0.30349 -4.4821,0.3056 -4.482,0.3056 -3.7862,0.64796 -3.7862,0.64796 -3.3443,0.92344 -3.3443,0.92343 -2.6088,0.95597 -2.6088,0.95597 -4.2334,2.075 -4.2333,2.075 -3.5719,2.37961 -3.5719,2.3796 -2.5359,2.12645 -2.536,2.12645 -2.9034,3.04035 -2.9034,3.04036 -1.969,2.66467 -1.9689,2.66468 -1.3961,2.31744 -1.396,2.31746 -1.2915,2.64583 -1.2914,2.64583 -0.9401,2.54033 -0.9401,2.54032 -0.7909,3.14822 -0.7908,3.14821 -0.4038,2.77813 -0.4038,2.77812 -0.1713,3.3073 -0.1712,3.30729 0.3096,3.43958 0.3096,3.43958 0.6609,3.3073 0.6609,3.30729 1.166,3.49883 1.1659,3.49882 1.4215,2.98347 1.4215,2.98346 1.5274,2.46311 1.5275,2.46311 1.9949,2.69626 1.9949,2.69627 3.9986,3.97296 3.9986,3.97297 2.5909,1.9384 2.591,1.9384 2.4632,1.54814 2.4631,1.54815 3.148,1.58192 3.148,1.58193 2.6483,1.0514 2.6483,1.0514 2.6434,0.8177 2.6433,0.8177 2.9104,0.64777 2.9104,0.64777 3.0427,0.41337 3.0428,0.41336 0.926,0.10682 0.926,0.10683 6.8792,-0.0812 6.8792,-0.0812 z"
         id="path2035" /><path
         style="fill:#005284;stroke-width:0.264583"
         d="m 1735.6903,-881.13051 -2.9104,-0.19382 -2.3813,-0.44061 -2.3812,-0.4406 -1.8521,-0.52494 -1.8521,-0.52495 -1.1906,-0.41951 -1.1906,-0.41952 -2.1164,-0.91607 -2.1164,-0.91607 -2.3815,-1.40174 -2.3816,-1.40174 -1.7198,-1.28638 -1.7198,-1.28637 -2.2173,-2.11722 -2.2173,-2.11722 -1.6513,-2.11666 -1.6513,-2.11667 -1.134,-1.85208 -1.134,-1.85209 -0.8583,-1.87581 -0.8584,-1.87581 -0.7927,-2.48981 -0.7928,-2.48982 -0.4239,-2.49402 -0.4239,-2.49401 v -3.47863 -3.47863 l 0.4239,-2.49402 0.4239,-2.49402 0.7942,-2.51354 0.7941,-2.51354 1.1497,-2.40985 1.1497,-2.40984 1.6496,-2.48495 1.6496,-2.48494 3.3248,-3.32594 3.3249,-3.32593 2.8821,-1.91539 2.882,-1.91539 2.7168,-1.31041 2.7167,-1.31042 2.8014,-0.91766 2.8014,-0.91767 2.6014,-0.53013 2.6014,-0.53012 3.2859,-0.28749 3.2859,-0.28749 2.7781,0.17716 2.7782,0.17716 2.9104,0.48982 2.9104,0.48982 2.3812,0.69123 2.3813,0.69124 2.7789,1.17132 2.7789,1.17132 2.1159,1.23212 2.1159,1.23213 2.3907,1.78932 2.3906,1.78932 2.6642,2.766 2.6641,2.76599 1.7513,2.63066 1.7513,2.63066 1.0386,2.23417 1.0386,2.23418 0.6912,2.11666 0.6912,2.11667 0.4142,1.85208 0.4142,1.85209 0.1447,4.24296 0.1447,4.24295 -0.4254,2.68573 -0.4254,2.68574 -0.8255,2.59631 -0.8254,2.59631 -1.1497,2.40984 -1.1497,2.40985 -1.6475,2.48494 -1.6474,2.48495 -3.327,3.31957 -3.327,3.31957 -2.8821,1.92175 -2.882,1.92175 -2.6742,1.28481 -2.6742,1.2848 -2.7862,0.9276 -2.7862,0.92759 -2.8034,0.54099 -2.8034,0.541 -2.2156,0.1488 -2.2157,0.14879 -1.3229,0.0828 -1.3229,0.0828 z"
         id="path2033" /></g></g></svg>
