<?xml version="1.0" encoding="UTF-8" standalone="no"?>
<!-- Created with Inkscape (http://www.inkscape.org/) -->

<svg
   width="118.6026mm"
   height="135.2236mm"
   viewBox="0 0 118.6026 135.2236"
   version="1.1"
   id="svg5"
   xml:space="preserve"
   xmlns="http://www.w3.org/2000/svg"
   xmlns:svg="http://www.w3.org/2000/svg"><defs
     id="defs2" /><g
     id="layer1"
     transform="translate(-1526.7929,889.89092)"><g
       id="g2936"
       transform="translate(181.65307,13.228526)"><path
         style="fill:#fbfcfd;stroke-width:0.264583"
         d="m 1389.872,-797.44357 -13.6129,-4.07606 -0.1826,-0.19835 -0.1825,-0.19835 -0.9361,-10.17637 -0.936,-10.17638 0.1289,-0.20852 0.1289,-0.20852 h 7.4926 7.4926 l 0.2687,0.33073 0.2688,0.33073 0.5936,3.61486 0.5936,3.61486 0.1926,0.31162 0.1926,0.31161 6.4747,2.08057 6.4747,2.08056 6.579,-2.06374 6.579,-2.06374 0.197,-0.37143 0.1971,-0.37142 0.6601,-7.92183 0.66,-7.92182 -0.1323,-0.21411 -0.1323,-0.21412 h -22.723 -22.7229 l -0.1634,-0.26442 -0.1634,-0.26443 -0.743,-8.0038 -0.743,-8.0038 0.2955,-0.31977 0.2955,-0.31976 15.4474,-5.96409 15.4475,-5.96409 h 0.097 0.097 v -0.26459 -0.26458 h -16.2563 -16.2562 l -0.1444,-0.23368 -0.1445,-0.23369 -0.7922,-8.00169 -0.7923,-8.00169 0.1429,-0.23129 0.143,-0.23129 h 35.1456 35.1457 l 0.1191,0.33073 0.1192,0.33073 -0.7407,8.04702 -0.7408,8.04702 -0.3423,0.21208 -0.3423,0.21209 -13.8906,5.20645 -13.8906,5.20645 -2.0516,0.77936 -2.0516,0.77936 0.149,0.24102 0.149,0.24102 h 15.4625 15.4625 v 0.7276 0.72761 l -2.0123,22.35729 -2.0122,22.35729 -0.2114,0.22455 -0.2115,0.22456 -13.6606,4.07492 -13.6605,4.07493 -0.8522,-0.0251 -0.8522,-0.0251 -13.6129,-4.07605 z"
         id="path2942" /><path
         style="fill:#327bc4;stroke-width:0.264583"
         d="m 1379.8047,-774.30886 -23.1511,-6.3494 -0.2391,-0.23192 -0.2391,-0.23192 -5.513,-60.53566 -5.513,-60.53565 0.089,-0.39687 0.089,-0.39688 0.1897,0.43234 0.1898,0.43233 5.4845,60.38039 5.4844,60.3804 0.386,0.20498 0.386,0.20498 23.0709,6.30041 23.071,6.30042 -0.134,0.21677 -0.1339,0.21677 -0.1829,-0.021 -0.1828,-0.0211 z m 25.5686,6.18566 -0.1405,-0.22735 23.1748,-6.33185 23.1748,-6.33185 0.3162,-0.26458 0.3162,-0.26458 5.4788,-60.45606 5.4788,-60.45606 0.2526,-0.25259 0.2526,-0.25258 -0.01,0.38365 -0.01,0.38364 -5.5098,60.53565 -5.5098,60.53566 -0.2391,0.23166 -0.2392,0.23167 -22.8864,6.2486 -22.8865,6.2486 -0.4407,0.13286 -0.4408,0.13286 -0.1405,-0.22735 z m -1.0245,-16.9249 -0.07,-7.60573 -14.2653,-4.24476 -14.2654,-4.24476 -0.211,-0.51878 -0.211,-0.51878 -0.8085,-9.26042 -0.8085,-9.26042 -0.1342,-0.83388 -0.1342,-0.83389 0.4228,-0.42288 0.4229,-0.42289 7.5879,0.004 7.5879,0.004 0.3573,0.22641 0.3573,0.22642 0.6515,3.93672 0.6516,3.93672 0.1817,0.17271 0.1818,0.17272 5.8519,1.8778 5.8518,1.87781 h 0.432 0.432 v -9.92187 -9.92188 h -15.4275 -15.4276 l -0.4363,-0.33073 -0.4364,-0.33073 -0.7669,-8.20208 -0.7669,-8.20208 0.3313,-0.52917 0.3314,-0.52917 14.8201,-5.68854 14.82,-5.68854 -15.4408,-0.13229 -15.4408,-0.13229 -0.2498,-0.26459 -0.2497,-0.26458 -0.8314,-8.33085 -0.8314,-8.33085 0.4572,-0.33425 0.4571,-0.33426 h 17.5404 17.5404 l 0.07,-8.13593 0.07,-8.13594 24.4594,-0.0675 24.4593,-0.0675 0.1957,0.19982 0.1957,0.19982 -5.1575,52.51979 -5.1575,52.51979 -0.3153,0.31068 -0.3152,0.31067 -18.8119,5.5763 -18.8119,5.57631 h -0.4325 -0.4325 l -0.07,-7.60573 z m 14.501,-12.3442 13.6606,-4.07492 0.2114,-0.22456 0.2115,-0.22455 2.0122,-22.35729 2.0122,-22.35729 v -0.72761 -0.7276 h -15.4625 -15.4625 l -0.149,-0.24102 -0.149,-0.24102 2.0516,-0.77936 2.0516,-0.77936 13.8906,-5.20645 13.8906,-5.20645 0.3423,-0.21209 0.3423,-0.21208 0.7408,-8.04702 0.7407,-8.04702 -0.1192,-0.33073 -0.1191,-0.33073 h -35.1457 -35.1456 l -0.143,0.23129 -0.1429,0.23129 0.7923,8.00169 0.7922,8.00169 0.1445,0.23369 0.1444,0.23368 h 16.2562 16.2563 v 0.26458 0.26459 h -0.097 -0.097 l -15.4475,5.96409 -15.4474,5.96409 -0.2955,0.31976 -0.2955,0.31977 0.743,8.0038 0.743,8.0038 0.1634,0.26443 0.1634,0.26442 h 22.7229 22.723 l 0.1323,0.21412 0.1323,0.21411 -0.66,7.92182 -0.6601,7.92183 -0.1971,0.37142 -0.197,0.37143 -6.579,2.06374 -6.579,2.06374 -6.4747,-2.08056 -6.4747,-2.08057 -0.1926,-0.31161 -0.1926,-0.31162 -0.5936,-3.61486 -0.5936,-3.61486 -0.2688,-0.33073 -0.2687,-0.33073 h -7.4926 -7.4926 l -0.1289,0.20852 -0.1289,0.20852 0.936,10.17638 0.9361,10.17637 0.1825,0.19835 0.1826,0.19835 13.6129,4.07606 13.6129,4.07605 0.8522,0.0251 0.8521,0.0251 13.6606,-4.07493 z"
         id="path2940" /><path
         style="fill:#1e61ad;stroke-width:0.264583"
         d="m 1403.4553,-768.13414 0.134,-0.21677 -23.071,-6.30042 -23.0709,-6.30041 -0.386,-0.20498 -0.386,-0.20498 -5.4839,-60.41586 -5.4839,-60.41585 -0.2839,-0.46302 -0.2839,-0.46302 h 59.3013 59.3013 l -0.2862,0.34479 -0.2861,0.34478 -5.4777,60.44323 -5.4776,60.44324 -0.3162,0.26458 -0.3162,0.26458 -23.1748,6.33185 -23.1748,6.33185 0.1338,0.21659 0.1339,0.21659 h -1.0896 -1.0895 z m 20.6406,-14.88454 18.8119,-5.5763 0.3152,-0.31068 0.3153,-0.31067 5.1575,-52.51979 5.1575,-52.51979 -0.1957,-0.19982 -0.1957,-0.19983 -24.4593,0.0675 -24.4594,0.0675 -0.07,8.13594 -0.07,8.13593 h -17.5404 -17.5404 l -0.4571,0.33426 -0.4572,0.33425 0.8314,8.33085 0.8314,8.33085 0.2497,0.26458 0.2498,0.26459 15.4408,0.13229 15.4408,0.13229 -14.82,5.68854 -14.8201,5.68854 -0.3314,0.52917 -0.3313,0.52917 0.7669,8.20208 0.7669,8.20208 0.4364,0.33073 0.4363,0.33073 h 15.4276 15.4275 v 9.92187 9.92188 h -0.432 -0.432 l -5.8518,-1.87781 -5.8519,-1.8778 -0.1818,-0.17272 -0.1817,-0.17271 -0.6516,-3.93672 -0.6515,-3.93672 -0.3573,-0.22642 -0.3573,-0.22641 -7.5879,-0.004 -7.5879,-0.004 -0.4229,0.42288 -0.4228,0.42289 0.1342,0.83388 0.1342,0.83389 0.8085,9.26042 0.8085,9.26041 0.211,0.51879 0.211,0.51878 14.2654,4.24476 14.2653,4.24475 0.07,7.60573 0.07,7.60574 h 0.4325 0.4325 l 18.8119,-5.57631 z"
         id="path2938" /></g></g></svg>
