<?xml version="1.0" encoding="UTF-8" standalone="no"?>
<!-- Created with Inkscape (http://www.inkscape.org/) -->

<svg
   width="143.29131mm"
   height="102.9239mm"
   viewBox="0 0 143.29131 102.9239"
   version="1.1"
   id="svg5"
   xml:space="preserve"
   xmlns="http://www.w3.org/2000/svg"
   xmlns:svg="http://www.w3.org/2000/svg"><defs
     id="defs2" /><g
     id="layer1"
     transform="translate(-1229.4782,-115.77561)"><path
       style="fill:#2695eb;stroke-width:0.264583"
       d="m 1272.8018,218.40893 -3.157,-0.21305 -3.5899,-0.54392 -3.5899,-0.54393 -3.4455,-0.90914 -3.4455,-0.90914 -2.6399,-1.07785 -2.6399,-1.07786 -2.0094,-1.21426 -2.0093,-1.21426 -1.906,-1.62588 -1.906,-1.62588 -1.4626,-1.71979 -1.4626,-1.7198 -1.3232,-1.98437 -1.3232,-1.98438 -1.4156,-2.91041 -1.4156,-2.91042 -1.053,-3.175 -1.0531,-3.175 -0.6768,-3.04271 -0.6769,-3.04271 -0.3878,-3.30729 -0.3878,-3.30729 -0.1736,-3.06092 -0.1735,-3.06092 0.2947,-1.09424 0.2946,-1.09423 0.7083,-0.84176 0.7083,-0.84176 0.8637,-0.3609 0.8638,-0.3609 h 48.128 48.128 l 2.3498,-0.40467 2.3497,-0.40466 1.7856,-0.55811 1.7856,-0.55811 0.4527,-0.33097 0.4526,-0.33096 -0.9727,-2.07969 -0.9727,-2.0797 -0.4307,-1.85208 -0.4306,-1.85209 0.1247,-3.43958 0.1248,-3.43958 0.4259,-1.52079 0.4259,-1.52079 0.8123,-2.10627 0.8123,-2.10626 1.3025,-1.99535 1.3026,-1.99534 0.4684,0.003 0.4683,0.003 1.5875,1.01055 1.5875,1.01056 1.5135,1.38752 1.5135,1.38752 1.2284,1.63418 1.2284,1.63418 0.8962,1.77961 0.8962,1.77961 0.6354,2.18927 0.6353,2.18927 1.6797,-0.1323 1.6797,-0.13229 3.0427,0.0173 3.0427,0.0173 2.1167,0.46956 2.1166,0.46956 1.8521,0.9005 1.8521,0.9005 0.7804,0.64904 0.7803,0.64904 -0.4551,1.44374 -0.4551,1.44374 -1.2704,1.94382 -1.2705,1.94383 -1.8968,1.75398 -1.8967,1.75399 -2.4497,1.2275 -2.4497,1.22749 -2.1167,0.53677 -2.1167,0.53677 -2.7127,0.15968 -2.7127,0.15967 -0.2501,0.30134 -0.2501,0.30134 -1.3468,3.14546 -1.3468,3.14545 -2.0383,3.98551 -2.0382,3.98552 -2.2855,3.44185 -2.2855,3.44184 -1.3765,1.7198 -1.3765,1.71979 -1.9819,2.18219 -1.9819,2.18218 -2.9572,2.54327 -2.9572,2.54328 -3.1458,2.10429 -3.1457,2.10429 -3.6011,1.80333 -3.6011,1.80334 -3.5719,1.33281 -3.5719,1.3328 -4.2977,1.07422 -4.2978,1.07421 -3.6397,0.52335 -3.6398,0.52333 -4.0559,0.27665 -4.056,0.27665 -2.9555,-0.0383 -2.9555,-0.0383 z m -30.3128,-56.931 -0.6615,-0.34153 -0.071,-6.04458 -0.071,-6.04459 0.3021,-0.36392 0.302,-0.36393 h 6.7939 6.7938 l 0.3175,0.3175 0.3175,0.3175 v 5.96635 5.96636 l -0.2505,0.39687 -0.2506,0.39688 -6.4261,0.0693 -6.4261,0.0693 z m 17.2568,-0.0767 -0.588,-0.41188 v -6.01749 -6.0175 l 0.3175,-0.3175 0.3175,-0.3175 h 6.7733 6.7733 l 0.3175,0.3175 0.3175,0.3175 v 6.0175 6.01749 l -0.588,0.41188 -0.5881,0.41188 h -6.2322 -6.2323 z m 17.7271,0 -0.5881,-0.41188 v -6.01749 -6.0175 l 0.3175,-0.3175 0.3175,-0.3175 h 6.7734 6.7733 l 0.3175,0.3175 0.3175,0.3175 v 6.0175 6.01749 l -0.588,0.41188 -0.5881,0.41188 h -6.2322 -6.2323 z m 17.4625,0 -0.5881,-0.41188 v -6.01749 -6.0175 l 0.3175,-0.3175 0.3175,-0.3175 h 6.7734 6.7733 l 0.3175,0.3175 0.3175,0.3175 v 6.0175 6.01749 l -0.588,0.41188 -0.5881,0.41188 h -6.2322 -6.2323 z m 17.8516,0.23308 -0.478,-0.13037 -0.2496,-0.65639 -0.2496,-0.65639 v -5.25722 -5.25721 l 0.2581,-0.67869 0.258,-0.67868 h 7.0087 7.0087 l 0.2739,0.51177 0.2739,0.51178 v 5.65536 5.65537 l -0.3752,0.51359 -0.3752,0.51359 -6.4378,0.0419 -6.4379,0.0419 z m -53.3117,-16.54287 -0.3175,-0.3175 v -6.0136 -6.0136 l 0.4157,-0.41577 0.4158,-0.41578 h 6.5768 6.5768 l 0.4157,0.41578 0.4158,0.41577 v 6.0136 6.0136 l -0.3175,0.3175 -0.3175,0.3175 h -6.7733 -6.7733 z m 17.727,0 -0.3175,-0.3175 v -6.0136 -6.0136 l 0.4158,-0.41577 0.4158,-0.41578 h 6.5547 6.5546 l 0.4379,0.48386 0.4379,0.48385 v 5.75125 5.75125 l -0.2739,0.51177 -0.2739,0.51177 h -6.8169 -6.817 z m 17.4625,0 -0.3175,-0.3175 v -6.0136 -6.0136 l 0.4158,-0.41577 0.4158,-0.41578 h 6.5547 6.5546 l 0.4379,0.48386 0.4379,0.48385 v 5.94552 5.94552 l -0.3175,0.3175 -0.3175,0.3175 h -6.7733 -6.7734 z m 0.1456,-16.10786 -0.4631,-0.26968 v -6.15165 -6.15164 l 0.3175,-0.3175 0.3175,-0.3175 h 6.817 6.8169 l 0.2739,0.51177 0.2739,0.51178 v 5.81932 5.81933 l -0.4158,0.41578 -0.4157,0.41577 -6.5296,-0.008 -6.5295,-0.008 z"
       id="path1081" /></g></svg>
