<?xml version="1.0" encoding="UTF-8" standalone="no"?>
<!-- Created with Inkscape (http://www.inkscape.org/) -->

<svg
   width="163.38727mm"
   height="163.55196mm"
   viewBox="0 0 163.38727 163.55196"
   version="1.1"
   id="svg5"
   xml:space="preserve"
   xmlns="http://www.w3.org/2000/svg"
   xmlns:svg="http://www.w3.org/2000/svg"><defs
     id="defs2" /><g
     id="layer1"
     transform="translate(-905.75117,-184.19443)"><g
       id="g716"
       transform="translate(179.23142,-204.14643)"><path
         style="fill:#f5f5f5;stroke-width:0.264583"
         d="m 813.42716,551.62625 4.17763,-0.26651 2.83705,-0.37275 2.83704,-0.37275 3.70095,-0.82618 3.70095,-0.82617 1.71979,-0.52787 1.71979,-0.52787 2.64584,-0.95699 2.64583,-0.95699 3.56102,-1.68625 3.56101,-1.68625 2.12753,-1.23187 2.12753,-1.23186 2.64583,-1.78681 2.64583,-1.7868 2.91042,-2.32772 2.91041,-2.32771 3.85335,-3.84062 3.85334,-3.84062 2.27501,-2.79793 2.27502,-2.79794 2.24287,-3.28748 2.24287,-3.28748 1.66026,-3.04271 1.66025,-3.04271 1.11334,-2.51354 1.11332,-2.51354 0.97511,-2.6088 0.97511,-2.60881 0.91729,-3.34432 0.91729,-3.34432 0.64436,-3.57187 0.64437,-3.57188 0.31712,-3.04271 0.31713,-3.04271 0.004,-5.68854 0.004,-5.68854 -0.3175,-3.04271 -0.3175,-3.04271 -0.52233,-2.91041 -0.52233,-2.91042 -0.64962,-2.68117 -0.64963,-2.68117 -0.93948,-2.9061 -0.93948,-2.90611 -1.45058,-3.36373 -1.45058,-3.36374 -1.75081,-3.21982 -1.75082,-3.21983 -2.24388,-3.28748 -2.24387,-3.28748 -2.28005,-2.79793 -2.28005,-2.79794 -3.58372,-3.58709 -3.58373,-3.58709 -2.77812,-2.24773 -2.77813,-2.24773 -1.85208,-1.32796 -1.85209,-1.32796 -3.3859,-2.06321 -3.3859,-2.0632 -3.94977,-1.81715 -3.94977,-1.81714 -3.10975,-1.07229 -3.10976,-1.07229 -2.51916,-0.63537 -2.51915,-0.63537 -2.68817,-0.54468 -2.68818,-0.54468 -3.52953,-0.3804 -3.52954,-0.38039 -3.175,-0.16925 -3.175,-0.16924 -4.89479,0.27641 -4.89479,0.27642 -4.82246,0.81242 -4.82247,0.81242 -3.6442,1.06471 -3.64421,1.06471 -3.70416,1.45686 -3.70417,1.45686 -3.57187,1.88653 -3.57188,1.88654 -3.10261,2.07372 -3.10261,2.07373 -2.84416,2.25434 -2.84416,2.25434 -2.7103,2.5133 -2.71029,2.51329 -2.72774,3.09506 -2.72774,3.09506 -2.10894,2.84201 -2.10895,2.84201 -1.80258,2.84578 -1.80259,2.84578 -1.94888,3.96875 -1.94889,3.96875 -1.33205,3.74735 -1.33206,3.74735 -0.78654,3.13182 -0.78654,3.13182 -0.40972,2.24895 -0.40973,2.24896 -0.38484,3.175 -0.38484,3.175 -0.17214,4.36563 -0.17213,4.36562 0.2939,3.83646 0.29391,3.83646 0.52854,3.63088 0.52854,3.63087 0.92576,3.68353 0.92575,3.68354 0.94259,2.73975 0.94258,2.73976 0.92943,2.24896 0.92942,2.24896 1.42651,2.77813 1.42651,2.77812 1.72475,2.74498 1.72476,2.74499 1.96053,2.69023 1.96054,2.69022 2.88792,3.29604 2.88791,3.29604 2.37142,2.24896 2.37141,2.24896 3.16418,2.55069 3.16417,2.55069 3.18878,2.12424 3.18878,2.12424 3.55809,1.86018 3.5581,1.86019 2.60298,1.08192 2.60297,1.08193 2.02724,0.66666 2.02723,0.66665 3.29229,0.90718 3.2923,0.90717 4.31392,0.67222 4.31392,0.67223 3.2417,0.21921 3.2417,0.21921 1.98438,0.0371 1.98437,0.0371 z"
         id="path720" /><path
         style="fill:#353535;stroke-width:0.264583"
         d="m 802.03908,551.5994 -3.2417,-0.21921 -4.31392,-0.67223 -4.31392,-0.67222 -3.2923,-0.90717 -3.29229,-0.90718 -2.02723,-0.66665 -2.02724,-0.66666 -2.60297,-1.08193 -2.60298,-1.08192 -3.5581,-1.86019 -3.55809,-1.86018 -3.18878,-2.12424 -3.18878,-2.12424 -3.16417,-2.55069 -3.16418,-2.55069 -2.37141,-2.24896 -2.37142,-2.24896 -2.88791,-3.29604 -2.88792,-3.29604 -1.96054,-2.69022 -1.96053,-2.69023 -1.72476,-2.74499 -1.72475,-2.74498 -1.42651,-2.77812 -1.42651,-2.77813 -0.92942,-2.24896 -0.92943,-2.24896 -0.94258,-2.73976 -0.94259,-2.73975 -0.92575,-3.68354 -0.92576,-3.68353 -0.52854,-3.63087 -0.52854,-3.63088 -0.29391,-3.83646 -0.2939,-3.83646 0.17213,-4.36562 0.17214,-4.36563 0.38484,-3.175 0.38484,-3.175 0.40973,-2.24896 0.40972,-2.24895 0.78654,-3.13182 0.78654,-3.13182 1.33206,-3.74735 1.33205,-3.74735 1.94889,-3.96875 1.94888,-3.96875 1.80259,-2.84578 1.80258,-2.84578 2.10895,-2.84201 2.10894,-2.84201 2.72774,-3.09506 2.72774,-3.09506 2.71029,-2.51329 2.7103,-2.5133 2.84416,-2.25434 2.84416,-2.25434 3.10261,-2.07373 3.10261,-2.07372 3.57188,-1.88654 3.57187,-1.88653 3.70417,-1.45686 3.70416,-1.45686 3.64421,-1.06471 3.6442,-1.06471 4.82247,-0.81242 4.82246,-0.81242 4.89479,-0.27642 4.89479,-0.27641 3.175,0.16924 3.175,0.16925 3.52954,0.38039 3.52953,0.3804 2.68818,0.54468 2.68817,0.54468 2.51915,0.63537 2.51916,0.63537 3.10976,1.07229 3.10975,1.07229 3.94977,1.81714 3.94977,1.81715 3.3859,2.0632 3.3859,2.06321 1.85209,1.32796 1.85208,1.32796 2.77813,2.24773 2.77812,2.24773 3.58373,3.58709 3.58372,3.58709 2.28005,2.79794 2.28005,2.79793 2.24387,3.28748 2.24388,3.28748 1.75081,3.21983 1.75081,3.21982 1.45058,3.36374 1.45058,3.36373 0.93948,2.90611 0.93948,2.9061 0.64963,2.68117 0.64963,2.68117 0.52233,2.91042 0.52233,2.91041 0.3175,3.04271 0.3175,3.04271 -0.004,5.68854 -0.004,5.68854 -0.31712,3.04271 -0.31713,3.04271 -0.64436,3.57188 -0.64437,3.57187 -0.91729,3.34432 -0.91729,3.34432 -0.9751,2.60881 -0.97511,2.6088 -1.11333,2.51354 -1.11333,2.51354 -1.66026,3.04271 -1.66026,3.04271 -2.24287,3.28748 -2.24287,3.28748 -2.27501,2.79794 -2.27501,2.79793 -3.85335,3.84062 -3.85334,3.84062 -2.91042,2.32771 -2.91041,2.32772 -2.64584,1.7868 -2.64583,1.78681 -2.12753,1.23186 -2.12752,1.23187 -3.56102,1.68625 -3.56101,1.68625 -2.64584,0.95699 -2.64583,0.95699 -1.71979,0.52787 -1.71979,0.52787 -3.70096,0.82617 -3.70094,0.82618 -2.83705,0.37275 -2.83705,0.37275 -4.17762,0.26651 -4.17763,0.2665 -1.98438,-0.0371 -1.98437,-0.0371 -3.2417,-0.21921 z m -17.68982,-50.36642 2.08724,-0.43952 2.17723,-0.78781 2.17724,-0.78782 2.08553,-1.28692 2.08553,-1.28692 1.66063,-1.50737 1.66063,-1.50736 1.15244,-1.62513 1.15245,-1.62513 0.79457,-1.5875 0.79458,-1.5875 0.55954,-1.81381 0.55954,-1.81381 v -0.63955 -0.63956 l -4.79212,0.0721 -4.79211,0.0721 -0.58194,1.60781 -0.58195,1.60782 -0.5969,0.96581 -0.5969,0.96581 -1.63581,1.482 -1.63581,1.48201 -1.85209,0.88599 -1.85208,0.88599 -2.03937,0.41619 -2.03936,0.41619 h -2.36913 -2.36913 l -1.94151,-0.37355 -1.9415,-0.37355 -1.53556,-0.57681 -1.53555,-0.57682 -1.98434,-1.32721 -1.98435,-1.32721 -1.35285,-1.62503 -1.35285,-1.62503 -0.87485,-1.85208 -0.87486,-1.85208 -0.4486,-1.71979 -0.4486,-1.7198 -0.0215,-2.77812 -0.0215,-2.77813 22.55106,-0.0676 22.55106,-0.0676 0.17428,-0.69437 0.17427,-0.69438 -0.30458,-3.31062 -0.30458,-3.31062 -0.52363,-2.56949 -0.52362,-2.56949 -0.69836,-2.08913 -0.69835,-2.08914 -1.05998,-2.11666 -1.05997,-2.11667 -1.03465,-1.52449 -1.03464,-1.52449 -1.57636,-1.68514 -1.57637,-1.68514 -1.38821,-1.07009 -1.38821,-1.07009 -1.58534,-0.95388 -1.58535,-0.95388 -2.3834,-0.76073 -2.38341,-0.76074 -2.62318,-0.32766 -2.62318,-0.32767 -2.93307,0.15965 -2.93307,0.15965 -2.58692,0.65884 -2.58693,0.65884 -2.44015,1.16054 -2.44016,1.16054 -2.17191,1.6425 -2.17191,1.6425 -1.35934,1.50984 -1.35933,1.50985 -1.2605,1.85208 -1.26049,1.85209 -0.79761,1.5875 -0.79761,1.5875 -0.71673,1.98437 -0.71673,1.98438 -0.52113,2.24895 -0.52113,2.24896 -0.1509,4.23334 -0.15092,4.23333 0.44117,3.04271 0.44116,3.04271 0.64878,2.46647 0.64877,2.46646 0.79494,1.98527 0.79494,1.98527 1.03798,1.76597 1.03798,1.76597 1.48484,1.79012 1.48483,1.79012 2.00476,1.5931 2.00475,1.5931 2.68233,1.30156 2.68234,1.30156 2.11667,0.53789 2.11666,0.53789 1.85209,0.25209 1.85208,0.25209 3.83646,-0.0926 3.83646,-0.0926 2.08723,-0.43951 z m -25.15436,-37.343 -0.16407,-0.42755 0.32309,-1.75526 0.32309,-1.75526 0.6845,-1.71979 0.68451,-1.71979 1.028,-1.63373 1.028,-1.63373 1.72192,-1.61077 1.72192,-1.61077 1.8475,-0.93039 1.8475,-0.93038 1.64496,-0.43833 1.64496,-0.43833 3.04271,0.0137 3.04271,0.0137 2.13741,0.69403 2.13741,0.69404 1.69905,1.08676 1.69905,1.08676 1.15766,1.09889 1.15766,1.09888 1.24146,1.87822 1.24145,1.87823 0.73789,2.22282 0.73788,2.22281 0.14089,1.52136 0.14089,1.52135 h -17.24297 -17.24296 l -0.16407,-0.42755 z m 60.55863,37.53537 0.39955,-0.46302 8.4062,-12.51244 8.4062,-12.51245 0.27345,0.0912 0.27345,0.0911 8.62274,12.81817 8.62275,12.81817 6.21223,0.0712 6.21223,0.0712 0.36487,-0.14001 0.36487,-0.14001 -0.47143,-0.72491 -0.47143,-0.72491 -11.61256,-16.20383 -11.61257,-16.20383 0.19006,-0.33263 0.19006,-0.33263 10.43507,-13.96536 10.43508,-13.96536 -0.149,-0.38828 -0.149,-0.38829 h -5.64628 -5.64627 l -0.42621,0.33073 -0.42621,0.33073 -7.56939,10.64948 -7.56939,10.64948 h -0.23495 -0.23495 l -7.18464,-10.51719 -7.18464,-10.51719 -0.53969,-0.46302 -0.5397,-0.46302 h -6.06441 -6.0644 l -0.14209,0.37026 -0.14208,0.37026 10.74525,14.62241 10.74526,14.62242 -0.11884,0.30968 -0.11883,0.30968 -11.54495,16.1912 -11.54495,16.19121 0.15849,0.25644 0.15849,0.25644 h 5.8965 5.8965 z"
         id="path718" /></g></g></svg>
