<?xml version="1.0" encoding="UTF-8" standalone="no"?>
<!-- Created with Inkscape (http://www.inkscape.org/) -->

<svg
   width="95.979301mm"
   height="108.92832mm"
   viewBox="0 0 95.979299 108.92832"
   version="1.1"
   id="svg5"
   xml:space="preserve"
   xmlns="http://www.w3.org/2000/svg"
   xmlns:svg="http://www.w3.org/2000/svg"><defs
     id="defs2" /><g
     id="layer1"
     transform="translate(-1503.7554,799.48267)"><g
       id="g2763"
       transform="translate(12.701047,121.98654)"><path
         style="fill:#f7f3f2;stroke-width:0.264583"
         d="m 1526.6446,-836.67563 -11.7434,-3.27277 -0.2768,-0.27683 -0.2769,-0.27683 -0.7881,-9.02546 -0.7881,-9.02546 0.3729,-0.23605 0.3729,-0.23604 h 5.2916 5.2917 l 0.3222,0.20476 0.3223,0.20476 0.4239,4.48754 0.4239,4.48754 0.1803,0.18564 0.1803,0.18564 6.4391,1.74476 6.439,1.74475 6.6175,-1.78372 6.6175,-1.78373 0.1972,-0.54354 0.1973,-0.54355 0.5984,-6.81347 0.5984,-6.81347 -0.1521,-0.39642 -0.1521,-0.39643 h -20.1984 -20.1984 l -0.4209,-0.33073 -0.4209,-0.33073 -0.5611,-6.35 -0.5611,-6.35 -0.9206,-10.29627 -0.9207,-10.29627 v -1.11865 -1.11865 l 0.4185,-0.1606 0.4186,-0.1606 h 29.3147 29.3147 l 0.2576,0.33073 0.2576,0.33073 -0.5155,5.55625 -0.5156,5.55625 -0.3049,0.19439 -0.305,0.19438 -22.5402,0.004 -22.5401,0.004 -0.1645,0.26628 -0.1646,0.26627 0.4565,5.22383 0.4565,5.22383 0.2151,0.59531 0.215,0.59531 h 21.5784 21.5784 l 0.1668,0.43448 0.1667,0.43447 -1.5365,17.49105 -1.5365,17.49104 -0.2922,0.63364 -0.2922,0.63364 -11.7739,3.26676 -11.774,3.26676 -0.6614,-0.0149 -0.6615,-0.0149 -11.7433,-3.27277 z"
         id="path2771" /><path
         style="fill:#ef6327;stroke-width:0.264583"
         d="m 1520.1316,-817.64367 -17.4625,-4.83964 -1.3872,-0.42852 -1.3873,-0.42851 -0.1313,-0.58236 -0.1313,-0.58235 -2.5011,-28.17812 -2.501,-28.17813 -1.7878,-20.06017 -1.7877,-20.06016 0.3834,-0.24379 0.3834,-0.24379 47.4046,0.0633 47.4045,0.0633 0.2017,0.20175 0.2017,0.20174 -1.1105,12.49826 -1.1105,12.49825 -1.3002,14.55209 -1.3002,14.55208 -1.874,21.16666 -1.874,21.16667 -0.1317,0.58892 -0.1318,0.58892 -1.3856,0.40207 -1.3856,0.40206 -17.5948,4.8797 -17.5948,4.87971 -0.1948,-0.1917 -0.1947,-0.1917 18.837,-5.21836 18.837,-5.21835 0.1875,-0.19605 0.1875,-0.19605 1.4705,-16.40417 1.4705,-16.40417 1.0728,-12.03854 1.0727,-12.03854 0.7818,-8.73125 0.7818,-8.73125 0.9301,-10.28627 0.9301,-10.28628 v -1.02466 -1.02466 h -47.4001 -47.4 l 0.1723,2.44739 0.1723,2.4474 1.5803,17.59479 1.5803,17.59479 2.534,28.44271 2.534,28.44271 0.2063,0.20673 0.2063,0.20674 18.1025,5.02628 18.1024,5.02628 0.787,0.206 0.7869,0.206 -0.3901,0.14691 -0.3901,0.14691 z m 19.0941,-3.4659 -0.1763,-0.17638 v -5.65012 -5.65012 l -0.5954,-0.2514 -0.5953,-0.25141 -11.6416,-3.20807 -11.6417,-3.20808 -0.3436,-0.32743 -0.3435,-0.32743 -0.8283,-9.30983 -0.8283,-9.30983 0.2862,-0.28618 0.2861,-0.28617 6.0379,0.0331 6.0378,0.0331 0.184,0.19244 0.1841,0.19245 0.3976,4.45497 0.3976,4.45498 0.1665,0.16654 0.1666,0.16654 6.1124,1.65302 6.1124,1.65302 0.2242,-0.13859 0.2243,-0.13859 v -8.84793 -8.84792 l -0.1985,-8e-5 -0.1984,-7e-5 -13.2734,-0.0661 -13.2733,-0.0661 -0.2009,-0.20093 -0.2008,-0.20092 -0.4685,-5.09074 -0.4685,-5.09075 -1.0724,-12.09834 -1.0724,-12.09835 v -1.19696 -1.19697 l 14.8828,-0.004 14.8828,-0.004 0.3252,-0.20658 0.3252,-0.20658 0.072,-5.54405 0.072,-5.54406 19.5131,-0.0679 19.513,-0.0679 v 0.60807 0.60806 l -0.6654,7.52958 -0.6653,7.52958 -0.9254,10.31875 -0.9253,10.31875 -0.5189,5.82083 -0.519,5.82083 -1.2052,13.49375 -1.2053,13.49375 -0.3589,3.92512 -0.3588,3.92512 -0.2289,0.2237 -0.2288,0.2237 -3.8365,1.05885 -3.8364,1.05885 -8.7313,2.42843 -8.7312,2.42842 -2.7782,0.76287 -2.7781,0.76287 -0.1543,0.002 -0.1544,0.002 -0.1764,-0.17639 z m 12.2591,-15.53019 11.7739,-3.26676 0.2922,-0.63364 0.2922,-0.63364 1.5365,-17.49105 1.5365,-17.49104 -0.1667,-0.43448 -0.1668,-0.43447 h -21.5784 -21.5784 l -0.215,-0.59531 -0.2151,-0.59532 -0.4565,-5.22382 -0.4565,-5.22383 0.1646,-0.26628 0.1645,-0.26627 22.5401,-0.004 22.5402,-0.004 0.305,-0.19438 0.3049,-0.19439 0.5156,-5.55625 0.5155,-5.55625 -0.2576,-0.33073 -0.2576,-0.33073 h -29.3147 -29.3147 l -0.4186,0.1606 -0.4185,0.16059 v 1.11865 1.11865 l 0.9207,10.29627 0.9206,10.29627 0.5611,6.35 0.5611,6.35 0.4209,0.33073 0.4209,0.33073 h 20.1984 20.1984 l 0.1521,0.39643 0.1521,0.39642 -0.5984,6.81347 -0.5984,6.81347 -0.1973,0.54355 -0.1972,0.54354 -6.6175,1.78373 -6.6175,1.78372 -6.439,-1.74475 -6.4391,-1.74476 -0.1803,-0.18564 -0.1803,-0.18564 -0.4239,-4.48754 -0.4239,-4.48754 -0.3223,-0.20476 -0.3222,-0.20476 h -5.2917 -5.2916 l -0.3729,0.23604 -0.3729,0.23605 0.7881,9.02546 0.7881,9.02546 0.2769,0.27683 0.2768,0.27683 11.7434,3.27277 11.7433,3.27277 0.6615,0.0149 0.6614,0.0149 11.774,-3.26677 z m -12.4354,-46.44219 v -5.52794 l -0.4186,-0.1606 -0.4185,-0.1606 h -7.6356 -7.6357 l -0.1598,0.25864 -0.1599,0.25863 0.4681,5.42991 0.4682,5.4299 h 7.7459 7.7459 z"
         id="path2769" /><path
         style="fill:#e34c24;stroke-width:0.264583"
         d="m 1538.2789,-812.65998 -0.6382,-0.11916 0.2833,-0.17512 0.2833,-0.17512 -18.6584,-5.15867 -18.6584,-5.15867 -0.3585,-0.26458 -0.3584,-0.26458 -2.5294,-28.44271 -2.5293,-28.44271 -1.5803,-17.59479 -1.5803,-17.59479 -0.1723,-2.4474 -0.1723,-2.44739 h 47.4 47.4001 v 1.02466 1.02466 l -0.9196,10.15398 -0.9195,10.15399 -1.0728,12.03854 -1.0727,12.03854 -0.7819,8.73125 -0.7818,8.73125 -1.481,16.53646 -1.481,16.53646 -0.1875,0.19605 -0.1875,0.19605 -18.8236,5.21464 -18.8237,5.21465 0.1309,0.2117 0.1308,0.2117 h -0.2585 -0.2586 l -0.3524,0.0951 -0.3523,0.0951 z m 4.21,-9.03918 2.7782,-0.76287 8.7312,-2.42842 8.7313,-2.42843 3.8364,-1.05885 3.8365,-1.05885 0.2288,-0.2237 0.2289,-0.2237 0.3588,-3.92512 0.3589,-3.92512 1.2053,-13.49375 1.2052,-13.49375 0.519,-5.82083 0.5189,-5.82083 0.9253,-10.31875 0.9254,-10.31875 0.6653,-7.52958 0.6654,-7.52958 v -0.60806 -0.60807 l -19.513,0.0679 -19.5131,0.0679 -0.072,5.54405 -0.072,5.54405 -0.3252,0.20659 -0.3252,0.20658 -14.8828,0.004 -14.8828,0.004 v 1.19697 1.19696 l 1.0724,12.09835 1.0724,12.09834 0.4685,5.09075 0.4685,5.09074 0.2008,0.20092 0.2009,0.20093 13.2733,0.0661 13.2734,0.0661 0.1984,7e-5 0.1985,8e-5 v 8.84792 8.84793 l -0.2243,0.13859 -0.2242,0.13859 -6.1124,-1.65302 -6.1124,-1.65302 -0.1666,-0.16654 -0.1665,-0.16654 -0.3976,-4.45498 -0.3976,-4.45497 -0.1841,-0.19245 -0.184,-0.19244 -6.0378,-0.0331 -6.0379,-0.0331 -0.2861,0.28617 -0.2862,0.28618 0.8283,9.30983 0.8283,9.30983 0.3435,0.32743 0.3436,0.32743 11.6417,3.20808 11.6416,3.20807 0.5953,0.25141 0.5954,0.2514 v 5.65012 5.65012 l 0.1763,0.17638 0.1764,0.17639 0.1544,-0.002 0.1543,-0.002 2.7781,-0.76287 z m -19.3995,-61.28475 -0.4681,-5.42991 0.1599,-0.25863 0.1598,-0.25864 h 7.6357 7.6356 l 0.4185,0.1606 0.4186,0.1606 v 5.52794 5.52794 h -7.7459 -7.7459 z"
         id="path2767" /></g></g></svg>
