<?xml version="1.0" encoding="UTF-8" standalone="no"?>
<!-- Created with Inkscape (http://www.inkscape.org/) -->

<svg
   width="127mm"
   height="127mm"
   viewBox="0 0 127 127"
   version="1.1"
   id="svg5"
   xml:space="preserve"
   xmlns="http://www.w3.org/2000/svg"
   xmlns:svg="http://www.w3.org/2000/svg"><defs
     id="defs2" /><g
     id="layer1"
     transform="translate(-1402.5962,-431.94052)"><g
       id="g1136"
       transform="translate(25.961399,343.71954)"><path
         style="fill:#f5dd1c;stroke-width:0.264583"
         d="M 1376.6348,151.72098 V 88.220978 h 63.5 63.5 v 63.500002 63.5 h -63.5 -63.5 z m 56.3013,53.03634 2.0393,-0.40949 2.2065,-1.04488 2.2065,-1.04487 1.6969,-1.69698 1.697,-1.69697 1.0465,-2.20647 1.0464,-2.20647 0.4139,-2.11667 0.4139,-2.11667 -0.072,-21.82812 -0.072,-21.82813 -5.5226,-0.0716 -5.5225,-0.0716 -0.3571,0.29634 -0.3571,0.29635 -0.073,21.73568 -0.074,21.73569 -0.4505,0.95382 -0.4506,0.95382 -0.935,0.82098 -0.9351,0.82098 -1.1279,0.30523 -1.128,0.30522 -1.5953,-0.12664 -1.5952,-0.12665 -1.0686,-0.54516 -1.0686,-0.54516 -0.9437,-1.04452 -0.9437,-1.04453 -0.717,-1.22359 -0.7171,-1.2236 h -0.3637 -0.3636 l -4.1753,2.54093 -4.1753,2.54091 -0.3614,0.34348 -0.3614,0.34348 0.7001,1.28632 0.7001,1.28632 1.1943,1.50546 1.1943,1.50546 1.7743,1.33411 1.7743,1.33411 1.9605,0.82015 1.9604,0.82014 1.6114,0.35062 1.6115,0.35061 3.12,0.021 3.12,0.021 z m 48.5551,-0.48207 2.3303,-0.70243 1.2454,-0.63113 1.2455,-0.63112 1.6685,-1.25425 1.6685,-1.25424 1.3071,-1.86118 1.307,-1.86118 0.6953,-2.13718 0.6954,-2.13719 0.01,-3.175 0.01,-3.175 -0.4662,-1.71979 -0.4661,-1.71979 -0.9323,-1.77832 -0.9323,-1.77832 -2.0567,-1.96501 -2.0568,-1.96501 -2.4785,-1.4525 -2.4785,-1.45251 -4.6303,-2.03729 -4.6302,-2.03729 -1.3229,-0.7525 -1.3229,-0.75251 -0.7136,-0.74562 -0.7135,-0.74562 -0.4109,-0.98369 -0.411,-0.98369 v -1.26527 -1.26527 l 0.595,-1.05051 0.595,-1.05051 0.8959,-0.6037 0.8958,-0.60369 1.0845,-0.29237 1.0845,-0.29236 1.4552,0.16997 1.4552,0.16996 1.103,0.533 1.1029,0.533 1.0137,1.12531 1.0138,1.1253 0.5504,0.77001 0.5505,0.77001 4.0797,-2.61403 4.0798,-2.61404 0.4927,-0.45592 0.4926,-0.45593 -1.0548,-1.55335 -1.0549,-1.55334 -1.8246,-1.71695 -1.8246,-1.71694 -1.732,-0.839 -1.732,-0.839 -1.5697,-0.43751 -1.5698,-0.43751 -3.3267,-0.14598 -3.3267,-0.14599 -2.2296,0.4503 -2.2295,0.45029 -2.2109,1.03433 -2.2108,1.03433 -2.0331,2.05454 -2.0331,2.05453 -0.8191,1.71979 -0.8191,1.7198 -0.3564,1.4552 -0.3563,1.45521 0.01,2.64584 0.01,2.64583 0.3466,1.45521 0.3466,1.45521 0.9319,1.98437 0.9319,1.98438 2.2815,2.24895 2.2814,2.24896 2.0467,1.15277 2.0466,1.15276 2.9793,1.30919 2.9793,1.30918 2.7221,1.30258 2.722,1.30258 0.9291,0.70865 0.9291,0.70864 0.6778,1.15656 0.6778,1.15656 -0.1034,1.82983 -0.1034,1.82983 -0.7975,1.0071 -0.7974,1.00711 -1.576,0.79375 -1.576,0.79375 -3.175,-0.006 -3.175,-0.006 -1.5462,-0.61762 -1.5461,-0.61762 -1.3643,-1.11151 -1.3642,-1.11151 -1.2659,-1.57218 -1.2658,-1.57219 -0.2614,-0.0901 -0.2613,-0.0901 -4.4894,2.60368 -4.4894,2.60368 v 0.4815 0.48149 l 0.8364,1.2383 0.8364,1.2383 1.1274,1.34097 1.1273,1.34098 1.4097,1.08666 1.4097,1.08666 1.5104,0.90877 1.5105,0.90876 2.5024,0.82979 2.5024,0.82979 1.4111,0.24907 1.4111,0.24907 4.4979,-0.0781 4.498,-0.0781 2.3303,-0.70243 z"
         id="path1140" /><path
         style="fill:#060500;stroke-width:0.264583"
         d="m 1423.0452,204.77413 -1.6114,-0.35062 -1.9604,-0.82014 -1.9605,-0.82015 -1.7743,-1.33411 -1.7743,-1.33411 -1.1943,-1.50546 -1.1943,-1.50546 -0.7001,-1.28632 -0.7001,-1.28632 0.3614,-0.34348 0.3614,-0.34348 4.1753,-2.54091 4.1753,-2.54093 h 0.3636 0.3637 l 0.7171,1.2236 0.717,1.22359 0.9437,1.04453 0.9437,1.04452 1.0686,0.54516 1.0686,0.54516 1.5952,0.12665 1.5953,0.12664 1.128,-0.30522 1.1279,-0.30523 0.9351,-0.82098 0.935,-0.82098 0.4506,-0.95382 0.4505,-0.95382 0.074,-21.73569 0.073,-21.73568 0.3571,-0.29635 0.3571,-0.29634 5.5225,0.0716 5.5226,0.0716 0.072,21.82813 0.072,21.82812 -0.4139,2.11667 -0.4139,2.11667 -1.0464,2.20647 -1.0465,2.20647 -1.697,1.69697 -1.6969,1.69698 -2.2065,1.04487 -2.2065,1.04488 -2.0393,0.40949 -2.0394,0.40949 -3.12,-0.021 -3.12,-0.021 z m 45.7087,0.11059 -1.4111,-0.24906 -2.5024,-0.82979 -2.5024,-0.8298 -1.5105,-0.90876 -1.5104,-0.90876 -1.4097,-1.08667 -1.4097,-1.08666 -1.1273,-1.34097 -1.1274,-1.34098 -0.8364,-1.2383 -0.8364,-1.23829 v -0.4815 -0.48149 l 4.4894,-2.60369 4.4894,-2.60368 0.2613,0.0901 0.2613,0.0901 1.2659,1.57219 1.2658,1.57219 1.3643,1.11151 1.3643,1.11151 1.5461,0.61761 1.5462,0.61762 3.175,0.006 3.175,0.006 1.576,-0.79375 1.576,-0.79375 0.7974,-1.0071 0.7975,-1.00711 0.1034,-1.82982 0.1033,-1.82983 -0.6777,-1.15657 -0.6778,-1.15656 -0.9291,-0.70864 -0.9291,-0.70864 -2.722,-1.30259 -2.7221,-1.30257 -2.9793,-1.30919 -2.9793,-1.30919 -2.0466,-1.15276 -2.0467,-1.15276 -2.2814,-2.24896 -2.2815,-2.24896 -0.9319,-1.98438 -0.9319,-1.98437 -0.3466,-1.45521 -0.3466,-1.45521 -0.01,-2.64583 -0.01,-2.64583 0.3564,-1.45521 0.3564,-1.45521 0.8191,-1.71979 0.8191,-1.71979 2.0331,-2.05454 2.0331,-2.05454 2.2108,-1.03433 2.2109,-1.03432 2.2295,-0.4503 2.2296,-0.45029 3.3267,0.14598 3.3267,0.14598 1.5698,0.43751 1.5697,0.43751 1.732,0.839 1.7319,0.839 1.8247,1.71695 1.8246,1.71694 1.0549,1.55335 1.0548,1.55334 -0.4927,0.45593 -0.4926,0.45592 -4.0798,2.61404 -4.0798,2.61403 -0.5504,-0.77 -0.5504,-0.77001 -1.0138,-1.12531 -1.0137,-1.12531 -1.103,-0.533 -1.1029,-0.53299 -1.4552,-0.16997 -1.4552,-0.16996 -1.0845,0.29236 -1.0845,0.29236 -0.8959,0.6037 -0.8958,0.6037 -0.595,1.05051 -0.595,1.05051 v 1.26526 1.26527 l 0.4109,0.98369 0.411,0.98369 0.7135,0.74562 0.7136,0.74563 1.3229,0.7525 1.3229,0.75251 4.6302,2.03728 4.6302,2.03729 2.4786,1.45251 2.4785,1.45251 2.0568,1.96501 2.0567,1.96501 0.9323,1.77831 0.9323,1.77832 0.4661,1.71979 0.4662,1.7198 -0.01,3.175 -0.01,3.175 -0.6954,2.13718 -0.6953,2.13719 -1.307,1.86117 -1.3071,1.86118 -1.6685,1.25425 -1.6685,1.25424 -1.2455,0.63112 -1.2455,0.63113 -2.3303,0.70243 -2.3303,0.70243 -4.4979,0.0781 -4.4979,0.0781 -1.4111,-0.24906 z"
         id="path1138" /></g></g></svg>
