<?xml version="1.0" encoding="UTF-8" standalone="no"?>
<!-- Created with Inkscape (http://www.inkscape.org/) -->

<svg
   width="323.12061mm"
   height="210.35468mm"
   viewBox="0 0 323.12061 210.35468"
   version="1.1"
   id="svg5"
   xml:space="preserve"
   xmlns="http://www.w3.org/2000/svg"
   xmlns:svg="http://www.w3.org/2000/svg"><defs
     id="defs2" /><g
     id="layer1"
     transform="translate(-1096.1051,-173.65607)"><path
       style="fill:#013545;stroke-width:0.264583"
       d="m 1105.6418,383.67492 -0.9191,-0.3362 -0.3338,-0.66145 -0.3337,-0.66146 v -0.92604 -0.92604 l 0.6216,-1.51144 0.6216,-1.51144 1.2835,-2.06043 1.2835,-2.06044 3.6708,-4.87461 3.6708,-4.8746 0.1246,-0.32478 0.1247,-0.32478 -0.6136,-0.43926 -0.6136,-0.43926 -2.0326,-1.13845 -2.0327,-1.13844 -2.2007,-1.75443 -2.2007,-1.75444 -2.7433,-2.23708 -2.7434,-2.23708 -2.0853,-1.0849 -2.0853,-1.08489 v -0.44153 -0.44154 l 2.0505,-2.01122 2.0506,-2.01123 1.7465,-0.97418 1.7466,-0.97419 2.0899,-0.56889 2.0899,-0.5689 4.7625,-0.005 4.7625,-0.005 3.2341,0.44999 3.2341,0.44998 8.0107,1.31966 8.0107,1.31967 3.8629,0.30684 3.863,0.30685 2.1594,-0.30537 2.1594,-0.30538 1.3265,-0.57067 1.3266,-0.57067 3.1021,-3.2304 3.1021,-3.2304 2.1484,-2.7534 2.1483,-2.7534 1.9319,-2.77812 1.9319,-2.77812 1.535,-1.88864 1.535,-1.88864 2.0577,-2.19188 2.0577,-2.19188 2.9104,-2.63039 2.9104,-2.63039 3.4396,-2.5754 3.4396,-2.5754 2.0007,-1.33764 2.0007,-1.33763 2.2326,-1.2368 2.2326,-1.2368 2.6459,-1.15007 2.6458,-1.15006 7.4083,-2.55657 7.4084,-2.55657 6.4823,-2.24272 6.4823,-2.24272 13.2923,-4.22078 13.2923,-4.22078 4.964,-1.73647 4.9639,-1.73648 6.35,-2.50893 6.35,-2.50893 5.8208,-2.87159 5.8208,-2.87159 2.8566,-1.7331 2.8566,-1.73309 2.3028,-1.66024 2.3028,-1.66024 2.6458,-2.27399 2.6458,-2.274 2.0112,-2.22646 2.0112,-2.22646 2.2285,-2.77813 2.2285,-2.77812 2.012,-2.91042 2.0119,-2.91042 1.9151,-3.03638 1.915,-3.03638 4.6413,-7.94383 4.6414,-7.94382 1.8529,-3.04271 1.8528,-3.04271 2.4032,-3.57187 2.4032,-3.57188 2.096,-2.64583 2.0959,-2.64584 2.1325,-2.3491 2.1324,-2.34911 2.8548,-2.45341 2.8547,-2.4534 2.4434,-1.63173 2.4434,-1.63173 3.1809,-1.56069 3.1809,-1.56069 2.838,-0.92968 2.8381,-0.92968 2.6767,-0.54548 2.6767,-0.54548 3.6075,-0.37518 3.6075,-0.37518 5.1593,-0.2863 5.1594,-0.2863 1.5758,-0.27484 1.5758,-0.27484 2.1284,-0.66821 2.1283,-0.66821 3.4396,-1.6694 3.4396,-1.66941 1.6453,-0.55129 1.6453,-0.55128 h 1.7984 1.7984 l 0.9086,0.48727 0.9085,0.48726 0.5298,1.02073 0.5296,1.02072 0.1112,2.32457 0.1111,2.32457 -0.305,2.91284 -0.3049,2.91284 -0.622,2.45191 -0.622,2.45191 -0.8251,1.81972 -0.8251,1.81971 -1.443,2.16866 -1.443,2.16866 -2.1066,2.12088 -2.1067,2.12088 -2.0182,1.62357 -2.0182,1.62357 -5.1575,3.5966 -5.1574,3.5966 -1.9902,1.58158 -1.9903,1.58158 -1.9885,1.88889 -1.9885,1.8889 -1.6111,2.13039 -1.611,2.1304 -0.893,1.9231 -0.893,1.9231 -1.1515,4.03002 -1.1516,4.03003 -1.0823,4.7625 -1.0824,4.7625 -2.2751,10.31875 -2.2751,10.31875 -1.2945,5.16379 -1.2945,5.1638 -1.4774,5.15495 -1.4773,5.15496 -1.4549,4.35775 -1.4548,4.35775 -1.7295,4.35778 -1.7296,4.35777 -1.4772,3.19073 -1.4772,3.19072 -1.5801,2.91041 -1.58,2.91042 -1.6146,2.60061 -1.6146,2.60061 -2.105,2.82335 -2.105,2.82334 -3.1866,3.26559 -3.1868,3.2656 -2.3812,1.80446 -2.3813,1.80447 -2.9419,1.61067 -2.942,1.61067 h -0.4547 -0.4548 l 0.1535,-0.99219 0.1534,-0.99218 0.3834,-3.96875 0.3834,-3.96875 0.1716,-2.14015 0.1717,-2.14016 -0.4584,-0.45843 -0.4585,-0.45844 -0.3798,0.37987 -0.3799,0.37987 -2.3297,5.5747 -2.3296,5.57471 -2.1247,4.0972 -2.1247,4.0972 -1.8985,2.9912 -1.8985,2.99121 -2.1987,2.91706 -2.1987,2.91707 -2.5013,2.77813 -2.5014,2.77812 -2.5769,2.24406 -2.577,2.24406 -2.4228,1.78333 -2.4228,1.78333 -2.7656,1.64823 -2.7656,1.64823 -3.3198,1.51263 -3.3198,1.51263 -3.9688,1.33605 -3.9687,1.33605 -2.3813,0.41935 -2.3812,0.41936 -3.3735,0.15828 -3.3734,0.15827 v -0.25767 -0.25768 l 2.8172,-3.02342 2.8172,-3.02342 1.3788,-1.85369 1.3788,-1.8537 2.5219,-3.83484 2.5219,-3.83485 1.5016,-2.61933 1.5017,-2.61932 1.2724,-2.54005 1.2723,-2.54005 1.4734,-3.70417 1.4734,-3.70417 0.9194,-3.05303 0.9193,-3.05303 0.6653,-3.16468 0.6652,-3.16467 0.4038,-2.77813 0.4037,-2.77812 0.1811,-2.71198 0.181,-2.71198 h -0.4167 -0.4167 l -0.5132,0.7276 -0.5133,0.72761 -0.6651,1.32291 -0.6652,1.32292 -1.9104,5.29167 -1.9103,5.29166 -1.2663,2.64781 -1.2664,2.6478 -1.2314,1.63813 -1.2314,1.63813 -1.2959,0.95131 -1.296,0.95131 -2.4621,0.28098 -2.4621,0.28097 -7.673,-0.14199 -7.6729,-0.14199 -3.9687,-0.42502 -3.9688,-0.42502 -10.451,-1.29652 -10.4511,-1.29653 -4.8094,-0.41354 -4.8095,-0.41353 h -6.0401 -6.04 l -3.3797,0.39534 -3.3797,0.39534 -2.7041,0.55098 -2.7041,0.55097 -3.6483,1.20403 -3.6483,1.20403 -4.2892,2.16877 -4.2892,2.16878 -2.7781,1.67871 -2.7782,1.67872 -7.1437,4.54395 -7.1438,4.54394 -2.5698,1.50637 -2.5698,1.50637 -3.5156,1.68538 -3.5156,1.68537 -6.7469,3.17579 -6.7469,3.17579 -2.251,0.92973 -2.251,0.92973 -3.0406,0.92051 -3.0407,0.9205 -3.3073,0.56391 -3.3073,0.56391 -4.2333,0.12887 -4.2333,0.12888 z"
       id="path812" /></g></svg>
