<?xml version="1.0" encoding="UTF-8" standalone="no"?>
<!-- Created with Inkscape (http://www.inkscape.org/) -->

<svg
   width="42.0047mm"
   height="91.280403mm"
   viewBox="0 0 42.0047 91.280402"
   version="1.1"
   id="svg5"
   xml:space="preserve"
   xmlns="http://www.w3.org/2000/svg"
   xmlns:svg="http://www.w3.org/2000/svg"><defs
     id="defs2" /><g
     id="layer1"
     transform="translate(-1575.0637,993.73634)"><g
       id="g3002"
       transform="translate(5.1539771,-91.044046)"><path
         style="fill:#9ba3a6;stroke-width:0.264583"
         d="m 1590.676,-812.41903 -0.1438,-1.00727 -0.4728,-4.33661 -0.4727,-4.33662 -1.4583,-1.0773 -1.4583,-1.07729 -2.216,-2.12672 -2.216,-2.12671 -1.6551,-1.98437 -1.655,-1.98438 -1.7968,-2.64583 -1.7968,-2.64584 -1.5204,-3.175 -1.5203,-3.175 -0.1569,-0.66146 -0.1569,-0.66145 0.3069,0.66145 0.3069,0.66146 1.2927,2.76835 1.2927,2.76835 1.3611,2.12644 1.361,2.12645 1.3193,1.71979 1.3193,1.71979 1.873,2.09671 1.8731,2.09671 2.3251,1.93819 2.3251,1.93818 h 0.2611 0.2611 l 0.2874,-0.7276 0.2874,-0.72761 c -1.6734,-16.53127 4.9679,-9.87838 12.1358,-17.29262 -2.2199,4.59784 -5.1377,8.3514 -8.5052,17.54401 l 0.5706,0.51604 0.9148,-0.49265 0.9148,-0.49265 2.1026,-1.95339 2.1026,-1.95339 1.6444,-2.03875 1.6445,-2.03875 1.4575,-2.24896 1.4575,-2.24896 1.3753,-2.91041 1.3754,-2.91042 0.3236,-1.00991 0.3236,-1.00992 0.1248,0.12484 0.1249,0.12484 -0.8282,2.0757 -0.8281,2.0757 -1.4602,2.76536 -1.4603,2.76535 -1.6251,2.26173 -1.6251,2.26173 -2.6169,2.69983 -2.6169,2.69984 -1.4114,0.97207 -1.4114,0.97206 -0.2699,1.25869 -0.2699,1.25868 -0.5434,3.2715 -0.5433,3.27149 -0.1948,1.19063 -0.1947,1.19062 -0.7006,0.0812 -0.7006,0.0812 z"
         id="path3014" /><path
         style="fill:#0fa94e;stroke-width:0.264583"
         d="m 1587.1621,-822.61505 -1.7051,-1.41442 -2.1167,-2.2236 -2.1166,-2.2236 -1.5875,-2.11561 -1.5875,-2.11561 -1.005,-1.55108 -1.0049,-1.55108 -1.4166,-2.8156 -1.4166,-2.8156 -0.9448,-2.78047 -0.9448,-2.78047 -0.563,-2.64349 -0.563,-2.64349 -0.1402,-4.00788 -0.1401,-4.00788 0.3131,-3.00358 0.3132,-3.00357 0.6219,-3.175 0.622,-3.175 0.9734,-3.00314 0.9734,-3.00313 1.2124,-2.68541 1.2124,-2.68541 1.6492,-2.77812 1.6493,-2.77813 1.6553,-2.11666 1.6553,-2.11667 3.608,-3.57188 3.6081,-3.57187 0.3519,-0.8599 0.352,-0.85989 h 0.2231 0.2232 l 0.28,0.52321 0.28,0.52321 -0.4489,-0.17227 -0.4489,-0.17227 0.1922,0.5009 0.1922,0.50091 0.2385,8.87159 0.2385,8.87159 0.209,14.55209 0.209,14.55208 -0.043,4.89479 -0.043,4.89479 -0.3155,5.52921 -0.3155,5.52921 0.1781,1.57392 0.178,1.57391 -0.2824,-0.17458 -0.2825,-0.17458 -0.1233,0.3475 -0.1233,0.3475 -0.5158,3.57187 -0.5157,3.57188 -0.2786,0.7276 -0.2786,0.72761 h -0.2196 -0.2197 z"
         id="path3008" /><path
         style="fill:#11914f;stroke-width:0.264583"
         d="m 1593.809,-822.3725 -0.5846,-0.62226 -0.6218,-1.95797 -0.6217,-1.95797 -0.3124,-3.23889 -0.3124,-3.2389 0.3127,-5.48159 0.3128,-5.48159 0.043,-4.89479 0.043,-4.89479 -0.209,-14.55208 -0.209,-14.55209 -0.2385,-8.87159 -0.2385,-8.87159 -0.1884,-0.49107 -0.1885,-0.49108 0.3729,0.12203 0.3729,0.12203 0.926,1.69748 0.9261,1.69747 2.1381,2.2515 2.1381,2.25149 1.9276,2.24896 1.9276,2.24896 1.5711,2.38125 1.5711,2.38125 1.7152,3.4815 1.7152,3.4815 1.2915,3.95501 1.2916,3.95501 0.6169,2.88224 0.6168,2.88224 v 6.2177 6.21771 l -0.6095,2.77813 -0.6095,2.77812 -0.5023,1.5875 -0.5023,1.5875 -0.502,1.45658 -0.5021,1.45657 -1.3626,2.71549 -1.3627,2.71548 -1.2248,1.91336 -1.2248,1.91336 -1.5121,1.85289 -1.5121,1.85289 -1.3812,1.38846 -1.3811,1.38846 -1.1027,0.89086 -1.1026,0.89086 -0.5588,0.28933 -0.5588,0.28933 -0.5845,-0.62225 z"
         id="path3006" /></g></g></svg>
