<?xml version="1.0" encoding="UTF-8" standalone="no"?>
<!-- Created with Inkscape (http://www.inkscape.org/) -->

<svg
   width="178.07777mm"
   height="173.88921mm"
   viewBox="0 0 178.07777 173.8892"
   version="1.1"
   id="svg5"
   xml:space="preserve"
   xmlns="http://www.w3.org/2000/svg"
   xmlns:svg="http://www.w3.org/2000/svg"><defs
     id="defs2" /><g
     id="layer1"
     transform="translate(-1323.9748,-443.01363)"><path
       style="fill:#006089;stroke-width:0.352778"
       d="m 1500.96,616.442 c -0.4788,-0.19111 -1.5153,-1.01448 -2.3034,-1.82972 -2.4178,-2.50137 -9.2072,-6.97089 -14.4375,-9.50433 -11.9377,-5.78243 -17.7135,-9.86781 -21.5409,-15.23642 -1.8186,-2.55094 -3.4433,-6.07756 -3.1809,-6.90438 0.6863,-2.16218 12.8459,-5.14751 22.7339,-5.58141 6.4116,-0.28135 6.315,-0.81209 -1.0351,-5.68979 -2.233,-1.4819 -6.3501,-4.26385 -9.1491,-6.1821 -5.5837,-3.82668 -7.0297,-4.49879 -16.4144,-7.62977 -9.8276,-3.27874 -10.1511,-3.64238 -17.2296,-19.36657 -1.2665,-2.8134 -3.567,-7.74461 -5.1122,-10.95825 -1.5451,-3.21364 -3.3957,-7.34114 -4.1124,-9.17222 -2.3453,-5.99233 -2.7244,-6.81484 -4.8676,-10.56119 -15.4947,-27.08536 -42.9911,-47.27222 -64.3892,-47.27222 -2.933,0 -2.933,0 -6.712,-2.68415 -19.9344,-14.15876 -30.242,-10.63972 -17.2976,5.9054 6.2132,7.94154 7.7319,10.87389 11.0698,21.37342 3.4272,10.78026 5.838,15.73894 9.7163,19.98508 3.7701,4.12777 3.883,5.32362 1.2004,12.72413 -2.9776,8.21419 -3.5351,11.73546 -3.2432,20.48362 0.3955,11.85318 4.4198,22.54661 8.9092,23.67338 1.1752,0.29494 1.0935,0.49085 1.5607,-3.74144 1.3525,-12.24973 2.1114,-14.30586 8.0594,-21.83476 0.8431,-1.06716 1.3488,-0.75671 1.8309,1.12396 2.8572,11.14635 17.827,35.93588 26.2966,43.54641 1.437,1.29128 2.2082,2.2009 1.8693,2.20486 -0.3173,0.004 -1.9842,-1.26331 -3.7042,-2.8156 -1.72,-1.5523 -4.9216,-4.35019 -7.1148,-6.21753 -7.304,-6.21902 -11.6544,-11.71632 -14.944,-18.88412 -2.8724,-6.25863 -3.0148,-6.38173 -3.5077,-3.03196 -1.7954,12.2021 -2.5725,14.21753 -6.0987,15.81892 -10.3655,4.70733 -21.0221,-17.77428 -18.2478,-38.4963 0.4648,-3.47168 3.4166,-15.59436 4.1377,-16.99289 0.7522,-1.45903 0.6161,-1.94186 -1.0536,-3.7368 -4.2504,-4.5693 -9.793,-16.53212 -12.9435,-27.93676 -1.0206,-3.69432 -2.6145,-6.52268 -6.6632,-11.82382 -9.8567,-12.90592 -11.0863,-17.29364 -6.5227,-23.27686 4.4008,-5.76969 20.7015,-2.52669 30.2027,6.00878 2.4952,2.2416 2.8114,2.34829 7.9514,2.68265 6.568,0.42726 13.8979,2.24553 18.6242,4.61996 21.8937,10.99912 43.9453,34.0347 52.0073,54.32788 6.8663,17.28343 16.2877,35.62274 18.8057,36.60654 6.4027,2.50159 14.1378,6.27602 17.5578,8.56756 12.2249,8.1911 23.2834,18.19431 23.2834,21.06152 0,1.03629 -4.9444,2.43719 -11.6417,3.29851 -2.2313,0.28696 -5.9394,1.01106 -8.2402,1.60913 -2.3008,0.59806 -4.4836,1.08739 -4.8507,1.08739 -2.6515,0 1.9927,4.33543 9.4382,8.8108 4.9373,2.96767 10.4923,7.46064 13.4324,10.86419 1.1211,1.29784 3.1373,3.51438 4.4805,4.92566 1.6801,1.76519 5.3664,7.28488 4.2885,6.42143 -0.015,-0.0123 -0.4196,-0.17872 -0.8984,-0.36982 z"
       id="path1224" /></g></svg>
