<?xml version="1.0" encoding="UTF-8" standalone="no"?>
<!-- Created with Inkscape (http://www.inkscape.org/) -->

<svg
   width="338mm"
   height="388.14273mm"
   viewBox="0 0 337.99999 388.14273"
   version="1.1"
   id="svg5"
   xml:space="preserve"
   inkscape:version="1.2.2 (b0a8486541, 2022-12-01)"
   sodipodi:docname="nginx.svg"
   xmlns:inkscape="http://www.inkscape.org/namespaces/inkscape"
   xmlns:sodipodi="http://sodipodi.sourceforge.net/DTD/sodipodi-0.dtd"
   xmlns="http://www.w3.org/2000/svg"
   xmlns:svg="http://www.w3.org/2000/svg"><sodipodi:namedview
     id="namedview7"
     pagecolor="#505050"
     bordercolor="#eeeeee"
     borderopacity="1"
     inkscape:showpageshadow="0"
     inkscape:pageopacity="0"
     inkscape:pagecheckerboard="0"
     inkscape:deskcolor="#505050"
     inkscape:document-units="mm"
     showgrid="false"
     inkscape:zoom="0.37951902"
     inkscape:cx="238.45972"
     inkscape:cy="884.01366"
     inkscape:window-width="1521"
     inkscape:window-height="1128"
     inkscape:window-x="10"
     inkscape:window-y="62"
     inkscape:window-maximized="1"
     inkscape:current-layer="layer1" /><defs
     id="defs2"><inkscape:perspective
       sodipodi:type="inkscape:persp3d"
       inkscape:vp_x="0 : 239.64269 : 1"
       inkscape:vp_y="0 : 999.99998 : 0"
       inkscape:vp_z="210 : 239.64269 : 1"
       inkscape:persp3d-origin="105 : 190.1428 : 1"
       id="perspective517" /></defs><g
     inkscape:label="Layer 1"
     inkscape:groupmode="layer"
     id="layer1"
     transform="translate(-1555.0268,1115.6743)"><rect
       style="fill:#ffffff;stroke-width:0.264583"
       id="rect2499"
       width="271.40585"
       height="218.55524"
       x="1586.6694"
       y="-1029.3655" /><path
       style="fill:#009538;stroke-width:0.264583"
       d="m 1721.2738,-727.98299 c -0.6061,-0.24675 -37.5078,-21.46316 -82.0039,-47.14759 l -80.902,-46.69896 -1.0816,-1.05833 c -0.5948,-0.58209 -1.3466,-1.62259 -1.6705,-2.31222 l -0.589,-1.25389 v -95.05445 -95.05447 l 0.6286,-1.3499 c 0.3457,-0.7425 1.0384,-1.7545 1.5393,-2.249 l 0.9105,-0.899 81.3389,-46.9503 81.3389,-46.9504 1.3229,-0.3564 1.3229,-0.3564 1.455,0.1721 c 1.8955,0.2241 -7.5502,-5.1402 84.0047,47.7072 85.6911,49.4628 82.2667,47.4209 83.4001,49.7289 l 0.7382,1.5032 v 95.11773 95.11771 l -0.704,1.32292 c -0.3872,0.7276 -1.1016,1.70159 -1.5875,2.1644 -0.9254,0.88132 -162.6528,94.38986 -164.2637,94.97499 -0.5094,0.185 -1.6405,0.3351 -2.5136,0.33356 l -1.5875,-0.003 -1.1019,-0.44863 z m -69.5418,-97.14067 c 7.3965,-1.92455 12.9471,-7.13009 15.5307,-14.56526 l 0.8734,-2.51354 0.1323,-56.18121 0.1323,-56.18122 49.4118,59.13377 49.4117,59.13377 1.8375,1.70124 c 6.1161,5.66256 14.5281,9.17945 23.9671,10.02014 l 3.3193,0.29565 2.7779,-0.293 c 4.7748,-0.50364 8.2436,-1.60719 12.1673,-3.8708 l 1.8345,-1.05834 2.3812,-2.38302 c 3.2785,-3.28089 4.979,-6.32658 5.8413,-10.46176 l 0.3808,-1.8265 -0.068,-78.91853 -0.068,-78.91853 -0.4714,-1.5875 c -2.4392,-8.2144 -8.9152,-14.2312 -17.0997,-15.8868 l -2.2253,-0.4502 -3.5956,0.1382 -3.5955,0.1382 -1.9391,0.5625 c -7.7667,2.2532 -13.8741,8.7978 -15.5386,16.6509 l -0.3725,1.7576 v 55.36409 c 0,30.45023 -0.094,55.35775 -0.2031,55.35004 -0.1092,-0.008 -21.9274,-26.03703 -48.4849,-57.84292 -26.5576,-31.8059 -48.9095,-58.53121 -49.6709,-59.38961 -5.3053,-5.9815 -12.5663,-10.0138 -21.3698,-11.8677 l -2.6458,-0.5572 -3.8586,-0.1563 -3.8586,-0.1564 -2.2018,0.3219 c -5.1544,0.7537 -9.6853,2.647 -13.2965,5.5562 l -2.1553,1.7363 -1.4168,1.852 c -1.773,2.3178 -3.1011,5.0283 -3.7808,7.7159 l -0.5253,2.0775 0.069,79.37312 0.069,79.37311 0.748,2.11666 c 1.5542,4.39846 3.7567,7.64958 7.0131,10.35206 l 1.7639,1.46397 2.6459,1.2764 c 2.3495,1.13345 4.6993,1.86547 7.1437,2.22544 0.4366,0.0643 2.163,0.0749 3.8365,0.0236 l 3.0427,-0.0932 2.1167,-0.55073 z"
       id="path2436"
       transform="translate(-5.833333e-6)" /></g></svg>
