<?xml version="1.0" encoding="UTF-8" standalone="no"?>
<!-- Created with Inkscape (http://www.inkscape.org/) -->

<svg
   width="211.55949mm"
   height="233.0063mm"
   viewBox="0 0 211.5595 233.00631"
   version="1.1"
   id="svg5"
   xml:space="preserve"
   xmlns="http://www.w3.org/2000/svg"
   xmlns:svg="http://www.w3.org/2000/svg"><defs
     id="defs2" /><g
     id="layer1"
     transform="translate(-1173.6175,-228.20116)"><path
       style="fill:#8ac64b;stroke-width:0.264583"
       d="m 1275.7646,460.82439 -1.8521,-0.33904 -1.6495,-0.69703 -1.6495,-0.69703 -3.5099,-2.00997 -3.5098,-2.00996 -4.1011,-2.39438 -4.101,-2.39437 -2.7782,-1.63353 -2.7781,-1.63352 -4.8616,-2.75792 -4.8615,-2.75792 -0.935,-0.86445 -0.9349,-0.86445 0.5942,-0.63256 0.5943,-0.63257 3.1868,-1.12766 3.1869,-1.12766 4.1089,-2.06594 4.1089,-2.06593 0.6846,0.16883 0.6847,0.16883 1.9843,1.11192 1.9844,1.11192 2.5136,1.44173 2.5135,1.44174 7.0115,4.08428 7.0114,4.08428 1.0584,-0.0201 1.0583,-0.0201 1.8521,-1.07234 1.8521,-1.07234 9.7895,-5.54515 9.7896,-5.54515 1.8521,-1.00303 1.8521,-1.00302 1.7198,-0.98714 1.7198,-0.98713 3.9687,-2.24549 3.9688,-2.24549 6.35,-3.57598 6.35,-3.57598 5.5562,-3.13061 5.5563,-3.13061 2.6458,-1.50252 2.6458,-1.50253 4.1011,-2.30983 4.101,-2.30984 5.6886,-3.17759 5.6885,-3.17759 0.7183,-0.51038 0.7183,-0.51039 0.2724,-0.98079 0.2724,-0.98078 v -49.08021 -49.08021 l -0.4627,-0.92109 -0.4626,-0.92109 -1.0583,-0.6984 -1.0583,-0.69841 -4.3657,-2.46001 -4.3656,-2.46001 -1.7198,-0.9688 -1.7198,-0.9688 -5.5562,-3.12043 -5.5563,-3.12044 -4.2333,-2.38552 -4.2333,-2.38552 -6.0854,-3.43388 -6.0855,-3.43389 -3.175,-1.77904 -3.175,-1.77903 -4.3656,-2.46454 -4.3656,-2.46453 -2.3813,-1.38047 -2.3812,-1.38048 -5.9531,-3.31248 -5.9532,-3.31248 -2.7781,-1.56845 -2.7781,-1.56845 -2.3813,-1.34131 -2.3812,-1.34132 -0.7135,-0.16236 -0.7134,-0.16237 -2.3293,1.22421 -2.3292,1.22422 -5.424,3.04503 -5.4239,3.04504 -0.2646,0.20429 -0.2646,0.20428 -2.3813,1.3119 -2.3812,1.31189 -4.1011,2.31655 -4.101,2.31655 -3.5719,1.985 -3.5719,1.985 -7.9375,4.49854 -7.9375,4.49854 -3.175,1.77846 -3.175,1.77846 -4.3656,2.45963 -4.3656,2.45963 -1.4552,0.86274 -1.4552,0.86274 -2.3813,1.30664 -2.3812,1.30664 -4.6302,2.60147 -4.6302,2.60148 -2.1167,1.16143 -2.1167,1.16144 -0.7296,0.78432 -0.7296,0.78433 0.068,50.25705 0.068,50.25706 0.5291,0.51736 0.5292,0.51737 5.2917,3.00733 5.2916,3.00732 4.6302,2.60441 4.6302,2.60441 1.4552,0.85808 1.4553,0.85808 1.3229,0.66126 1.3229,0.66125 2.1167,0.69201 2.1166,0.692 1.7855,0.24583 1.7854,0.24582 1.5941,-0.22532 1.5941,-0.22533 1.3164,-0.43724 1.3164,-0.43723 1.535,-1.12998 1.5349,-1.12997 0.869,-1.35418 0.869,-1.35417 0.5594,-1.39733 0.5594,-1.39732 0.048,-42.20104 0.048,-42.20105 0.032,-7.8917 0.032,-7.89171 0.7734,-0.7734 0.7734,-0.77339 h 6.2512 6.2512 l 0.7291,0.37703 0.7291,0.37703 0.3161,0.69375 0.316,0.69375 v 49.41868 49.41868 l -0.2899,2.88093 -0.2899,2.88093 -0.4996,1.99367 -0.4996,1.99367 -1.4409,2.91042 -1.4409,2.91041 -1.4897,1.79824 -1.4897,1.79824 -1.6377,1.21726 -1.6377,1.21725 -2.1181,1.00182 -2.1181,1.00181 -2.2475,0.64932 -2.2475,0.64932 -2.7224,0.29431 -2.7223,0.29431 h -1.7112 -1.7112 l -2.6006,-0.39062 -2.6007,-0.39062 -1.6971,-0.39408 -1.697,-0.39408 -1.5268,-0.52582 -1.5267,-0.52582 -2.1774,-0.97119 -2.1775,-0.97119 -3.4395,-1.86001 -3.4396,-1.86002 -2.9104,-1.6495 -2.9105,-1.6495 -5.5562,-3.10454 -5.5563,-3.10454 -2.1166,-1.39673 -2.1167,-1.39673 -1.3509,-1.6799 -1.3508,-1.6799 -0.6886,-1.05834 -0.6886,-1.05833 -0.6669,-1.77709 -0.6669,-1.77709 -0.212,-2.58854 -0.2119,-2.58853 0.034,-50.00625 0.034,-50.00625 0.5832,-2.10474 0.5831,-2.10475 0.9782,-1.8625 0.9781,-1.8625 1.6583,-1.75847 1.6584,-1.75848 1.3843,-0.91733 1.3844,-0.91733 6.4823,-3.6509 6.4823,-3.65091 4.8948,-2.75887 4.8948,-2.75887 2.6458,-1.47993 2.6458,-1.47993 3.5719,-2.03157 3.5719,-2.03157 3.9687,-2.24827 3.9688,-2.24828 3.3073,-1.85361 3.3073,-1.85361 6.2177,-3.51138 6.2177,-3.51138 4.2333,-2.38996 4.2333,-2.38995 1.7198,-0.97355 1.7198,-0.97355 4.6303,-2.59977 4.6302,-2.59978 2.4205,-1.40355 2.4206,-1.40356 1.9452,-0.65299 1.9453,-0.65299 1.9842,-0.23624 1.9842,-0.23623 2.2784,0.18718 2.2784,0.18718 1.4258,0.4676 1.4257,0.46761 2.3297,1.16332 2.3297,1.16332 4.6818,2.67023 4.6817,2.67023 5.1594,2.90847 5.1594,2.90847 2.9104,1.64584 2.9104,1.64584 3.7042,2.06939 3.7042,2.0694 2.3812,1.38028 2.3813,1.38029 3.0427,1.71951 3.0427,1.7195 3.4396,1.92685 3.4395,1.92685 2.9105,1.63727 2.9104,1.63729 2.2489,1.25805 2.249,1.25805 1.4552,0.87324 1.4552,0.87324 2.3813,1.30933 2.3812,1.30934 4.2333,2.37654 4.2334,2.37653 2.5135,1.40782 2.5136,1.40782 1.9843,1.19034 1.9844,1.19035 1.0301,0.68019 1.03,0.6802 1.5672,1.858 1.5673,1.85801 1.0412,2.11666 1.0413,2.11667 0.4011,1.98437 0.4011,1.98438 -0.071,51.72604 -0.071,51.72604 -0.6198,1.7198 -0.6197,1.71979 -0.9139,1.74684 -0.9138,1.74685 -1.2866,1.44356 -1.2866,1.44357 -1.4131,1.07266 -1.4132,1.07267 -1.852,0.99804 -1.8521,0.99805 -5.8209,3.29584 -5.8208,3.29584 -2.1167,1.21763 -2.1166,1.21764 -2.9104,1.62081 -2.9105,1.6208 -4.8948,2.74032 -4.8947,2.74032 -2.249,1.30143 -2.249,1.30143 -5.4239,3.04755 -5.424,3.04754 -2.6458,1.47202 -2.6458,1.47202 -3.7042,2.10819 -3.7042,2.10819 -3.5719,2.03151 -3.5718,2.0315 -2.6459,1.47092 -2.6458,1.47092 -6.35,3.57189 -6.35,3.57189 -1.1194,0.56305 -1.1194,0.56306 -2.1879,0.52451 -2.1879,0.52452 -1.9844,-0.022 -1.9843,-0.022 -1.8521,-0.33904 z m 25.5323,-67.61868 -4.6302,-0.18456 -3.175,-0.43888 -3.175,-0.43888 -3.6892,-0.8121 -3.6891,-0.81211 -1.8671,-0.67187 -1.8671,-0.67186 -2.1597,-0.99603 -2.1597,-0.99601 -1.8909,-1.22322 -1.8909,-1.22322 -1.7105,-1.37075 -1.7106,-1.37075 -1.5851,-1.99787 -1.5852,-1.99788 -1.0252,-1.98437 -1.0252,-1.98438 -0.7072,-1.98025 -0.7072,-1.98026 -0.3801,-1.80735 -0.3802,-1.80736 v -2.73918 -2.73919 l 0.1643,-0.4283 0.1644,-0.4283 0.7485,-0.38709 0.7486,-0.38709 h 6.0813 6.0813 l 0.6649,0.25277 0.6648,0.25278 0.3961,0.60712 0.396,0.60712 0.4334,2.11667 0.4334,2.11666 0.4552,1.3564 0.4553,1.3564 0.9119,1.545 0.912,1.54501 1.2247,1.2463 1.2247,1.2463 1.818,0.91229 1.818,0.91228 1.8953,0.68071 1.8952,0.68071 2.8673,0.56207 2.8672,0.56207 6.4823,0.24467 6.4823,0.24467 5.059,-0.39449 5.0589,-0.39449 2.4871,-0.64619 2.487,-0.64619 1.2532,-0.5372 1.2533,-0.5372 1.5639,-1.06206 1.564,-1.06206 0.9427,-1.15045 0.9427,-1.15045 0.5784,-1.30184 0.5785,-1.30184 0.1202,-2.65441 0.1202,-2.65441 -0.593,-1.37827 -0.5929,-1.37828 -1.0172,-0.91898 -1.0172,-0.91898 -1.3061,-0.66185 -1.3061,-0.66185 -3.0029,-0.90973 -3.0028,-0.90973 -3.5719,-0.67983 -3.5719,-0.67983 -5.4239,-0.65018 -5.424,-0.65018 -3.0427,-0.30398 -3.0427,-0.30398 -4.2334,-0.64787 -4.2333,-0.64787 -3.2365,-0.77999 -3.2366,-0.77999 -2.5843,-0.96092 -2.5843,-0.96092 -2.0193,-1.04277 -2.0193,-1.04276 -1.9997,-1.66251 -1.9997,-1.66251 -0.9258,-1.10804 -0.9257,-1.10804 -0.7904,-1.38338 -0.7905,-1.38338 -0.6779,-2.0219 -0.6778,-2.02191 -0.4293,-2.87288 -0.4293,-2.87289 0.1587,-1.73441 0.1587,-1.73441 0.4008,-2.29861 0.4009,-2.29861 1.0098,-2.34219 1.0097,-2.34219 1.2579,-1.89207 1.2578,-1.89206 1.9817,-1.78689 1.9818,-1.78689 1.5043,-0.99656 1.5043,-0.99656 1.9844,-1.02984 1.9844,-1.02985 2.7781,-0.96427 2.7781,-0.96426 2.249,-0.4926 2.2489,-0.4926 3.4396,-0.47727 3.4396,-0.47728 7.1437,-0.008 7.1438,-0.008 2.9104,0.34556 2.9104,0.34557 2.1167,0.40183 2.1167,0.40183 3.1487,0.9298 3.1488,0.9298 2.9366,1.33949 2.9367,1.33951 1.9285,1.32295 1.9286,1.32295 1.9098,2.0302 1.9099,2.03021 1.4882,2.49369 1.4882,2.49369 0.6817,1.85209 0.6817,1.85208 0.5403,1.97982 0.5404,1.97983 0.2754,2.21615 0.2754,2.21615 -0.2977,0.90185 -0.2976,0.90186 -0.7586,0.39227 -0.7586,0.39228 h -6.3483 -6.3484 l -0.6907,-0.59531 -0.6907,-0.59532 -0.6671,-2.38125 -0.6672,-2.38125 -1.1043,-2.10852 -1.1043,-2.10852 -1.5887,-1.60175 -1.5887,-1.60174 -2.2478,-1.11032 -2.2477,-1.11033 -2.2828,-0.53947 -2.2828,-0.53946 -2.992,-0.39464 -2.9921,-0.39464 h -5.0965 -5.0965 l -3.1123,0.40798 -3.1122,0.40798 -1.73,0.41631 -1.7299,0.41631 -2.2293,1.05783 -2.2292,1.05784 -1.2563,1.28982 -1.2564,1.28983 -0.5179,1.39211 -0.518,1.39212 -0.1906,1.40479 -0.1907,1.40479 0.3307,1.75237 0.3306,1.75236 1.037,1.12502 1.037,1.12503 1.9005,0.78881 1.9005,0.78881 1.6445,0.42398 1.6444,0.42398 3.7795,0.76812 3.7795,0.76812 7.0115,0.95956 7.0114,0.95957 5.1594,0.7992 5.1594,0.79919 4.101,0.94132 4.1011,0.94132 2.6458,0.91734 2.6458,0.91735 1.9122,0.88126 1.9122,0.88125 1.9963,1.37999 1.9962,1.37998 1.438,1.5532 1.4379,1.55319 0.967,1.72912 0.967,1.72912 0.3849,1.24468 0.3848,1.24468 0.5117,2.58907 0.5116,2.58907 v 2.17343 2.17343 l -0.3974,2.64583 -0.3975,2.64584 -0.4335,1.32291 -0.4335,1.32292 -1.003,2.12148 -1.003,2.12147 -1.3143,1.73613 -1.3142,1.73612 -1.6789,1.52184 -1.6788,1.52183 -1.7198,1.14516 -1.7198,1.14515 -2.1167,1.04902 -2.1166,1.04903 -3.0825,1.07613 -3.0825,1.07612 -3.1352,0.65376 -3.1353,0.65376 -2.3812,0.28798 -2.3813,0.28798 -3.8364,0.26163 -3.8365,0.26164 -0.926,-0.0412 -0.9261,-0.0412 -4.6302,-0.18455 z"
       id="path767" /></g></svg>
