<?xml version="1.0" encoding="UTF-8" standalone="no"?>
<!-- Created with Inkscape (http://www.inkscape.org/) -->

<svg
   width="62.563141mm"
   height="62.876102mm"
   viewBox="0 0 62.563139 62.876102"
   version="1.1"
   id="svg5"
   xml:space="preserve"
   inkscape:version="1.2.2 (b0a8486541, 2022-12-01)"
   sodipodi:docname="php.svg"
   xmlns:inkscape="http://www.inkscape.org/namespaces/inkscape"
   xmlns:sodipodi="http://sodipodi.sourceforge.net/DTD/sodipodi-0.dtd"
   xmlns="http://www.w3.org/2000/svg"
   xmlns:svg="http://www.w3.org/2000/svg"><sodipodi:namedview
     id="namedview7"
     pagecolor="#505050"
     bordercolor="#eeeeee"
     borderopacity="1"
     inkscape:showpageshadow="0"
     inkscape:pageopacity="0"
     inkscape:pagecheckerboard="0"
     inkscape:deskcolor="#505050"
     inkscape:document-units="mm"
     showgrid="false"
     inkscape:zoom="2.1468838"
     inkscape:cx="-9.0829322"
     inkscape:cy="120.87287"
     inkscape:window-width="1521"
     inkscape:window-height="1128"
     inkscape:window-x="10"
     inkscape:window-y="62"
     inkscape:window-maximized="1"
     inkscape:current-layer="layer1" /><defs
     id="defs2"><inkscape:perspective
       sodipodi:type="inkscape:persp3d"
       inkscape:vp_x="0 : -85.623944 : 1"
       inkscape:vp_y="0 : 999.99991 : 0"
       inkscape:vp_z="210 : -85.623944 : 1"
       inkscape:persp3d-origin="105 : -135.12383 : 1"
       id="perspective517" /></defs><g
     inkscape:label="Layer 1"
     inkscape:groupmode="layer"
     id="layer1"
     transform="translate(-1493.7343,803.86146)"><rect
       style="fill:#ffffff;stroke-width:0.264583"
       id="rect2647"
       width="49.224178"
       height="27.768301"
       x="1500.1921"
       y="-785.97046" /><path
       style="fill:#4e5b92;stroke-width:0.264583"
       d="m 1511.5905,-744.10918 c -21.6133,-10.22185 -24.1629,-40.16884 -4.594,-53.95943 11.5823,-7.29528 23.5913,-7.91935 35.1247,-0.61954 20.549,13.34288 18.3388,44.26539 -3.9091,54.69113 -9.1936,4.00577 -17.6244,4.06262 -26.6216,-0.11216 z m -4.079,-18.58946 c 0.1339,-0.25466 0.3282,-1.09119 0.4319,-1.85896 0.2729,-2.02036 0.5211,-2.17593 3.4717,-2.17593 1.6159,0 2.8367,-0.13935 3.444,-0.39313 4.6287,-1.934 6.2396,-8.44189 2.7323,-11.0385 -1.2492,-0.92483 -9.3796,-1.45353 -10.3504,-0.67306 -0.4759,0.38253 -3.564,15.51303 -3.3044,16.18969 0.2409,0.62779 3.2406,0.58574 3.5749,-0.0501 z m 2.1155,-7.25331 c -0.4364,-0.35239 0.085,-4.77833 0.6754,-5.73371 0.4066,-0.65795 3.8131,-0.3827 4.5646,0.36883 1.1715,1.17153 0.2918,4.3407 -1.4223,5.12355 -1.1358,0.51875 -3.3043,0.65582 -3.8177,0.24133 z m 27.0284,5.72871 c 0.5561,-2.59974 0.4329,-2.51029 3.4581,-2.51029 3.2105,0 4.4448,-0.48587 6.2035,-2.4419 2.8275,-3.14482 2.5887,-7.65811 -0.4896,-9.25401 -1.2437,-0.64476 -9.3655,-0.91345 -9.9517,-0.32922 -0.3458,0.3446 -3.5024,15.96552 -3.2943,16.30225 0.083,0.13416 0.9442,0.20896 1.914,0.16622 1.7631,-0.0777 1.7631,-0.0777 2.16,-1.93305 z m 1.8112,-5.72871 c -0.407,-0.32863 -0.4053,-0.53158 0.024,-2.88944 0.5934,-3.26228 0.4998,-3.15256 2.6909,-3.15256 3.0744,0 4.0433,1.89615 2.3604,4.61912 -0.8515,1.37779 -4.0277,2.26833 -5.0748,1.42288 z m -15.7234,3.25331 c 0.078,-0.12633 0.5476,-2.15648 1.0434,-4.51144 1.0606,-5.03802 0.7816,-4.61656 3.0108,-4.54717 2.6606,0.0828 2.6577,0.0757 1.8254,4.47609 -0.9794,5.17811 -1.0676,4.81221 1.1591,4.81221 2.2696,0 2.1137,0.27434 3.0291,-5.33161 0.9732,-5.9597 0.4363,-6.78282 -4.6222,-7.08563 -2.8526,-0.17076 -2.6849,0.0422 -2.2544,-2.86245 0.2059,-1.38906 0.2059,-1.38906 -1.6625,-1.38906 -1.551,0 -1.8915,0.0786 -2.0046,0.46302 -0.2501,0.84948 -3.0744,15.34437 -3.0744,15.77832 0,0.47216 3.2682,0.65417 3.5503,0.19772 z"
       id="path2636"
       sodipodi:nodetypes="cccccssscssssssssssssssscssccssccscssssssscss"
       transform="translate(-1.2499999e-5,-1.1041667e-5)" /></g></svg>
