<?xml version="1.0" encoding="UTF-8" standalone="no"?>
<!-- Created with Inkscape (http://www.inkscape.org/) -->

<svg
   width="1320.3618mm"
   height="1313.3142mm"
   viewBox="0 0 1320.3618 1313.3142"
   version="1.1"
   id="svg5"
   xml:space="preserve"
   xmlns="http://www.w3.org/2000/svg"
   xmlns:svg="http://www.w3.org/2000/svg"><defs
     id="defs2" /><g
     id="layer1"
     transform="translate(696.08393,-211.87079)"><g
       id="g1332"
       transform="translate(-961.95975,1334.3146)"><path
         style="fill:#fed141;stroke-width:0.264583"
         d="M 915.6266,190.70938 C 820.9345,189.08286 747.45509,174.58229 695.04603,147.17955 637.79099,117.24303 604.31064,68.398679 607.47437,19.421582 c 0.23926,-3.704087 0.3162,-40.735724 0.31552,-151.874532 0,-142.86163 0.0416,-151.35118 0.80549,-160.86665 7.05964,-87.93898 66.6482,-143.05131 164.68539,-152.31445 4.40471,-0.41619 17.57326,-0.4622 175.28645,-0.61249 189.98948,-0.18102 171.93038,-0.003 186.54558,-1.84602 86.672,-10.93364 141.9302,-71.0901 151.1783,-164.57911 0.9121,-9.22017 0.9375,-11.78237 0.9402,-94.66119 0,-82.88725 0,-82.88725 61.0552,-82.80021 55.5687,0.0793 61.3496,0.12729 64.3599,0.53486 99.6022,13.4856 161.9522,113.07878 171.9688,274.69008 13.0822,211.07245 -53.4852,345.18579 -180.3032,363.25652 -11.2993,1.61006 8.7006,1.49042 -246.2609,1.47298 -233.03179,-0.0159 -233.03179,-0.0159 -233.03179,22.48093 0,22.49684 0,22.49684 159.76579,22.49684 159.7657,0 159.7657,0 159.9428,14.089057 0.097,7.748984 0.2,35.044061 0.2281,60.655726 0.028,25.6116646 0.1296,54.722444 0.2257,64.690621 0.2661,27.602231 -0.6573,33.914845 -7.1742,49.045809 C 1207.2466,154.70081 1090.1914,193.70788 915.6266,190.70938 Z M 1112.7614,89.251443 c 39.8403,-3.873712 63.7038,-46.471308 46.1617,-82.4012728 -20.9085,-42.8249532 -82.2839,-42.9823002 -103.2059,-0.2645833 -19.8078,40.4426711 12.3288,87.0135421 57.0442,82.6658561 z"
         id="path1336" /><path
         style="fill:#3571a3;stroke-width:0.264583"
         d="m 447.18183,-141.348 c -95.40621,-5.45169 -162.58731,-99.93418 -177.38422,-249.47055 -13.75326,-138.98927 9.03942,-256.53583 62.51345,-322.39478 36.1797,-44.55913 92.02176,-71.00606 144.14059,-68.2653 3.22424,0.16955 84.00378,0.26345 227.97131,0.26498 222.9776,0.002 222.9776,0.002 222.9776,-22.61946 0,-22.62188 0,-22.62188 -159.94062,-22.62188 -159.94062,0 -159.94062,0 -159.97861,-46.50051 -0.0209,-25.57529 -0.0694,-47.39349 -0.10785,-48.4849 -0.3556,-10.09931 -0.13874,-67.10384 0.26575,-69.84923 10.90488,-74.01817 104.34124,-121.11537 256.92279,-129.50367 165.03118,-9.0727 287.95868,19.4891 344.26528,79.9889 22.925,24.6322 36.0209,54.7749 36.0535,82.9838 0.04,34.60404 -0.5081,312.131 -0.6187,313.26664 -0.085,0.87313 -0.277,3.25438 -0.4266,5.29167 -6.4663,88.03777 -64.9131,142.86317 -163.3735,153.2506 -3.9074,0.41225 -17.3635,0.46056 -174.75728,0.62749 -93.78817,0.0995 -171.11926,0.25503 -171.84686,0.3457 -0.72761,0.0906 -3.04932,0.29012 -5.15938,0.44326 -94.74636,6.8762 -153.84236,68.72789 -163.16207,170.77043 -0.42191,4.61947 -0.46609,11.81166 -0.54497,88.70156 -0.0858,83.67447 -0.0858,83.67447 -55.1774,83.67566 -30.30037,0 -56.40127,0.0455 -58.002,0.0995 -1.60073,0.0541 -3.68432,0.0541 -4.63021,5e-5 z m 303.87394,-765.01264 c 71.31997,-7.83919 65.77394,-114.63666 -5.95312,-114.63666 -72.23577,0 -77.18753,107.35371 -5.29167,114.72313 2.06822,0.21199 9.01541,0.15857 11.24479,-0.0865 z"
         id="path1334" /></g></g></svg>
