<?xml version="1.0" encoding="UTF-8" standalone="no"?>
<!-- Created with Inkscape (http://www.inkscape.org/) -->

<svg
   width="1303.7769mm"
   height="1159.948mm"
   viewBox="0 0 1303.7768 1159.948"
   version="1.1"
   id="svg5"
   xml:space="preserve"
   xmlns="http://www.w3.org/2000/svg"
   xmlns:svg="http://www.w3.org/2000/svg"><defs
     id="defs2" /><g
     id="layer1"
     transform="translate(803.52815,174.32147)"><path
       style="fill:#00d7fe;stroke-width:0.264583"
       d="m 106.48862,985.43868 c -71.163403,-3.5157 -158.063003,-50.31234 -245.6188,-132.26898 -11.4723,-10.7387 -9.9278,-9.67327 -11.6411,-8.03032 -116.8731,112.07694 -241.201,163.01142 -317.0929,129.9059 -80.9921,-35.33032 -105.6286,-168.46728 -63.431,-342.78358 0.7372,-3.04544 1.2484,-5.61504 1.1361,-5.71024 -0.1124,-0.0952 -2.1688,-0.7403 -4.5699,-1.43359 -146.68628,-42.35371 -252.52452,-122.20704 -267.06863,-201.4992 -16.57225,-90.34925 86.93883,-181.68149 265.08423,-233.8951 4.0746,-1.19425 7.4387,-2.19856 7.4758,-2.23179 0.037,-0.0332 -0.7592,-3.50271 -1.7695,-7.70998 -39.4264,-164.192077 -20.6732,-292.53798 49.1176,-336.15884 72.1965,-45.1245 201.4564,3.35469 327.6152,122.8728 3.2932,3.119787 3.2932,3.119787 6.2187,0.2432 16.8299,-16.548432 43.8624,-39.822076 65.102597,-56.050162 100.8908,-77.083408 193.110103,-103.412708 252.637303,-72.129888 71.0556,37.34116 95.5963,157.7291476 64.3574,315.71393 -2.0718,10.47798 -6.5591,30.74837 -7.4435,33.62447 -0.1027,0.33414 0.476,0.59563 2.8516,1.28826 153.27,44.68825 254.9056,119.03302 269.1273,196.86227 14.9847,82.00434 -71.6221,167.60308 -225.9301,223.30055 -13.1632,4.75122 -41.5475,14.03069 -42.9176,14.03069 -0.4701,0 -0.5104,-0.23352 1.1075,6.42247 26.8161,110.31937 24.8719,214.98874 -5.2007,279.98615 -24.2611,52.43688 -65.0331,78.32448 -119.1476,75.65098 z m 18.2563,-56.30444 c 16.8328,-2.59659 28.0333,-9.05555 37.9738,-21.89823 33.4479,-43.21308 40.6531,-137.51139 18.6161,-243.64026 -1.9921,-9.59395 -5.6625,-25.49311 -5.9521,-25.78267 -0.059,-0.0586 -1.8915,0.30636 -4.0732,0.81097 -47.5895,11.00699 -105.553803,19.96057 -166.7996029,25.76508 -3.1187,0.29556 -5.6933,0.56538 -5.7212,0.59962 -0.028,0.0342 -2.1702,3.0983 -4.7607,6.80908 -32.7826001,46.96055 -66.9984001,90.40892 -99.5834971,126.45458 -5.517,6.10288 -6.209,4.33213 6.198297,15.86098 83.9537,78.00972 171.7878,123.0907 224.102103,115.02085 z m -531.2833,-0.18457 c 58.9541,-4.61394 140.6234,-50.9393 215.1004,-122.01167 3.1691,-3.0243 3.1691,-3.0243 -2.3946,-9.08796 -35.3478,-38.52429 -70.3548,-81.88553 -103.4756,-128.16954 -2.9351,-4.10168 -2.9351,-4.10168 -8.59,-4.56454 -55.2129,-4.51921 -111.1324,-12.52064 -161.4106,-23.09598 -4.4651,-0.93916 -8.2349,-1.70757 -8.3774,-1.70757 -0.4269,0 -4.8639,19.01431 -7.8107,33.47223 -18.6861,91.67868 -16.1823,170.90024 6.8658,217.24008 14.7507,29.65746 35.0932,40.66413 70.0927,37.92495 z m 260.5195,-168.97945 c 16.4404,-18.24431 34.2921,-39.67395 51.961197,-62.37552 6.5621,-8.43105 21.0483,-27.71542 20.9177,-27.84604 -0.059,-0.0591 -3.0651,0.0206 -6.68,0.17695 -39.015797,1.68812 -93.213797,1.85227 -135.821497,0.41132 -6.3302,-0.21407 -11.6663,-0.38968 -11.8582,-0.39021 -0.4443,0 -0.3369,0.1483 6.1768,8.59798 21.6216,28.04814 44.6011,55.49196 66.7398,79.70573 5.8117,6.35646 4.6044,6.11402 8.5642,1.71979 z m 37.1367,-144.78142 c 27.862097,-0.7832 76.165897,-3.15556 76.731497,-3.76854 0.041,-0.0438 1.9516,-2.93722 4.2468,-6.42972 40.824,-62.117 75.5263,-122.22257 107.0478,-185.41023 7.2281,-14.48938 7.2281,-14.48938 3.8354,-21.29896 -32.0324,-64.29327 -74.5449999,-137.36108 -112.8106,-193.89171 -3.3223,-4.90803 -1.4756,-4.25517 -14.4925,-5.12337 -69.990197,-4.66818 -137.690697,-4.84383 -206.507297,-0.53581 -14.6732,0.91858 -19.4283,1.31734 -19.7558,1.65669 -0.5086,0.52713 -15.4823,23.04272 -20.6239,31.01173 -26.9435,41.76035 -50.4957,82.11127 -73.5875,126.07396 -8.888,16.92129 -24.1453,47.54634 -24.1453,48.4655 0,1.80171 27.486,54.91488 41.6685,80.51887 13.7421,24.80908 31.0257,53.91676 46.66,78.58125 11.0575,17.44419 30.1631,46.31486 30.9861,46.82352 0.7575,0.46818 39.9812,2.35863 63.6447,3.06745 25.5493,0.76528 74.4565,0.89593 97.1021,0.25937 z m -50.0062,-94.49009 c -82.8326,-5.05301 -134.1311,-94.04101 -96.9157,-168.12066 44.2889,-88.16009 171.029697,-84.90037 210.888397,5.42395 34.8922,79.06973 -27.3903,167.97845 -113.972697,162.69671 z m -182.8639,83.43193 c -25.2787,-39.28014 -51.486,-84.29095 -72.7155,-124.88827 -2.1511,-4.11369 -3.9881,-7.527 -4.0821,-7.58513 -0.1896,-0.11719 -6.3536,14.68787 -10.8986,26.17705 -9.5556,24.15524 -17.4611,45.86592 -24.8084,68.13021 -5.641,17.09409 -6.6534,20.39072 -6.3004,20.51674 0.5765,0.20585 11.3921,2.45967 18.9043,3.93941 26.2722,5.17496 53.2709,9.47576 82.2104,13.09584 21.1711,2.64832 18.9498,2.5712 17.6903,0.61415 z m 393.339897,-1.0051 c 23.6154,-3.0267 49.657403,-7.17399 72.363503,-11.52421 14.7185,-2.81988 35.5337,-7.24604 35.947,-7.64382 0.3399,-0.3271 -7.1286,-22.57652 -13.0116,-38.7628 -8.6342,-23.75591 -18.5046,-48.34962 -29.9449,-74.6125 -0.5762,-1.32292 -0.5762,-1.32292 -1.1085,-0.26458 -15.6451,31.1105 -47.007903,85.96434 -72.282003,126.42204 -2.7104,4.33877 -4.9281,7.91929 -4.9281,7.95671 0,0.0753 2.2166,-0.19328 12.9646,-1.57084 z M -514.48338,571.32231 c 11.5184,-39.87421 38.7244,-110.69656 62.0055,-161.41191 1.8597,-4.05099 1.8597,-4.05099 0.2572,-7.54063 -23.626,-51.45074 -46.516,-110.80422 -61.0635,-158.33703 -0.4565,-1.49159 -0.9588,-2.71198 -1.116,-2.71198 -1.8675,0 -34.8529,10.47858 -49.5653,15.74556 -102.36687,36.64686 -173.80148,90.43382 -182.92565,137.73452 -9.93772,51.51821 67.2591,119.55874 184.38085,162.5116 14.1802,5.20038 45.0792,15.33562 47.2755,15.50691 0.1716,0.0132 0.5097,-0.66029 0.7514,-1.49704 z m 735.7236,-3.51718 c 123.8727,-37.89358 215.255,-102.18862 222.8738,-156.81029 6.913,-49.56124 -70.9857,-113.5911 -188.4004,-154.85808 -14.449,-5.07833 -42.4955,-14.02225 -43.9711,-14.02225 -0.1278,0 -0.5733,1.16086 -0.9902,2.57969 -1.4929,5.08092 -11.2608,34.23451 -14.3833,42.92864 -13.3261,37.10413 -27.3218,71.38477 -44.413,108.78336 -3.8269,8.37398 -3.8269,8.37398 -1.856,12.5677 25.2869,53.80765 45.4006,103.77292 60.9338,151.3682 1.7216,5.27513 3.1571,9.59115 3.1899,9.59115 0.033,0 3.1903,-0.95766 7.0165,-2.12812 z m -635.8496,-235.24419 c 20.531,-39.34388 43.8014,-79.70588 67.858,-117.69851 5.2183,-8.24127 4.9356,-7.68171 3.8025,-7.52536 -0.4858,0.067 -4.5742,0.60473 -9.0853,1.19486 -33.7662,4.41708 -72.0904,11.04905 -102.1292,17.67334 -5.209,1.14872 -5.8115,1.33617 -5.7318,1.78343 0.6718,3.77282 13.829,42.22678 21.1283,61.75081 5.5155,14.7529 19.7383,50.51988 20.0949,50.53393 0.02,0 1.8486,-3.46982 4.0626,-7.7125 z m 533.0826,1.62857 c 14.2129,-33.86164 26.5314,-66.85902 36.2603,-97.12934 3.1089,-9.67285 2.962,-8.87439 1.6952,-9.21491 -8.2939,-2.22953 -44.5052,-9.34344 -65.285903,-12.82573 -16.6349,-2.78759 -49.2879,-7.56544 -51.704,-7.56544 -0.7245,0 -1.2238,-0.90302 4.6085,8.33438 22.8198,36.14224 48.5054,80.53017 68.463603,118.31362 1.781,3.37164 3.3139,6.05054 3.4064,5.95312 0.093,-0.0974 1.2427,-2.73701 2.5559,-5.8657 z m 54.7537,-162.47547 c 35.2207,-147.060438 18.4391,-271.14512 -38.9088,-287.6945 -51.532403,-14.87115 -145.305103,30.966586 -235.6593,115.19436664 -11.706,10.91238836 -10.9558,9.73548396 -8.144,12.77571836 32.982797,35.662052 68.687497,80.008375 101.1363971,125.614465 3.4685,4.87495 6.3776,8.94419 6.4646,9.04277 0.087,0.0986 2.12279996,0.36955 4.5239,0.60214 19.8942999,1.9272 52.6759999,5.85417 66.4103999,7.95542 1.3825,0.21148 5.371,0.80838 8.8635,1.3264 29.429203,4.36513 68.097403,11.61452 91.545903,17.1627 3.3461,0.79172 3.0688,0.93742 3.7674,-1.97948 z m -639.6892,0.17238 c 48.5032,-10.59863 102.9774,-19.04947 156.419,-24.26597 8.918,-0.8705 8.918,-0.8705 10.0368,-2.46687 29.9371,-42.71364 71.4153,-94.194233 106.1269,-131.71916 4.3881,-4.7436704 4.594,-3.4556174 -1.4552,-9.1029504 -95.241,-88.9147316 -194.8277,-136.3552796 -247.5838,-117.9426496 -46.5289,16.239206 -64.5737,108.8076566 -44.5609,228.5934 3.685,22.05622 11.7352,59.07889 12.7745,58.74906 0.243,-0.0771 3.9522,-0.90731 8.2427,-1.84486 z M -74.519683,141.5067 c -0.2959,-0.49697 -3.6554,-4.94602 -8.5411,-11.31094 -17.869097,-23.2796 -36.264997,-45.64054 -53.981397,-65.61666 -7.4369,-8.385567 -13.8439,-15.367699 -14.0304,-15.289983 -0.44,0.183314 -12.2911,13.290993 -20.642,22.830603 -10.8159,12.35567 -19.0232,22.07734 -29.1494,34.52813 -11.4095,14.02865 -27.3918,34.56982 -27.1137,34.84784 0.09,0.09 3.7657,0.0206 8.1681,-0.15449 28.7913,-1.14445 47.8638,-1.4538 78.2514,-1.26923 14.1883,0.0862 29.6664,0.27773 34.3958,0.42571 11.779197,0.36854 30.678997,1.07501 31.485397,1.1769 0.3638,0.046 0.8174,0.10141 1.0078,0.12321 0.2097,0.0241 0.2687,-0.0909 0.1495,-0.29109 z"
       id="path1278" /></g></svg>
