<?xml version="1.0" encoding="UTF-8" standalone="no"?>
<!-- Created with Inkscape (http://www.inkscape.org/) -->

<svg
   width="83.343697mm"
   height="84.364098mm"
   viewBox="0 0 83.343696 84.364098"
   version="1.1"
   id="svg5"
   xml:space="preserve"
   xmlns="http://www.w3.org/2000/svg"
   xmlns:svg="http://www.w3.org/2000/svg"><defs
     id="defs2" /><g
     id="layer1"
     transform="translate(-1458.8007,986.76947)"><g
       id="g1951"
       transform="translate(-76.391716,99.777726)"><path
         style="fill:#fbfbfb;stroke-width:0.264583"
         d="m 1556.3706,-1004.6427 -20.5124,-81.0127 81.2493,24.3129 c -39.4289,36.2141 -29.9729,28.9385 -60.7369,56.6998 z"
         id="path1955" /><path
         style="fill:#1e1e1e;stroke-width:0.264583"
         d="m 1555.7315,-1002.7784 -0.3752,-0.5953 -1.6066,-6.6146 -1.6067,-6.6146 -4.2224,-17.0656 -4.2224,-17.0656 -4.2529,-17.2381 -4.2529,-17.2381 v -0.4136 -0.4135 l 0.4762,-0.2549 0.4763,-0.2549 10.4378,2.9947 10.4378,2.9947 19.4469,5.5982 19.4468,5.5981 10.5834,3.0424 10.5833,3.0424 0.7276,0.2841 0.7276,0.2841 v 0.5668 0.5668 l -3.638,3.5953 -3.638,3.5953 -24.474,23.4979 -24.4739,23.4979 -2.6737,2.6027 -2.6736,2.6027 h -0.4291 -0.4292 z m 8.8296,-9.4363 5.424,-5.2693 -0.1868,-0.1872 -0.1867,-0.1871 -7.7508,-2.2229 -7.7507,-2.2229 -0.5953,-0.1546 -0.5954,-0.1546 v 0.4453 0.4453 l 1.8503,7.587 1.8502,7.587 0.2697,0.615 0.2697,0.6149 0.9889,-0.8133 0.989,-0.8133 z m 5.8208,-7.8308 v -0.1354 l -2.0173,-8.0667 -2.0174,-8.0667 -0.2977,5e-4 -0.2978,5e-4 -5.8208,5.6019 -5.8208,5.6018 -0.083,0.3384 -0.083,0.3383 1.5384,0.4553 1.5384,0.4553 6.0854,1.7795 6.0854,1.7794 0.5953,0.027 0.5953,0.026 v -0.1354 z m 8.3538,-5.8452 5.9337,-5.7159 v -0.3104 -0.3105 l -7.739,-2.2205 -7.7391,-2.2206 -0.3307,-0.1157 -0.3307,-0.1158 v 0.548 0.5481 l 1.8556,7.4839 1.8555,7.4839 0.1205,0.3307 0.1205,0.3308 h 0.1599 0.16 z m -20.26,-6.1672 5.9531,-5.7842 -0.1345,-0.1424 -0.1346,-0.1423 -8.0006,-2.3136 -8.0007,-2.3136 -0.1789,0.1789 -0.1788,0.1789 1.9317,7.8696 1.9317,7.8696 0.1141,0.1984 0.1141,0.1985 0.3152,-0.01 0.3151,-0.01 z m 26.9769,-2.6028 -0.011,-0.463 -1.9349,-7.8765 -1.9348,-7.8766 -0.1715,-0.1715 -0.1716,-0.1715 -2.0502,1.9582 -2.0502,1.9581 -4.1936,4.0571 -4.1936,4.057 0.168,0.1808 0.1679,0.1807 7.7298,2.2822 7.7298,2.2822 0.4631,0.033 0.463,0.033 -0.011,-0.4631 z m 5.2858,-2.7675 2.53,-2.4369 3.5098,-3.4328 3.5098,-3.4329 -0.2196,-0.2196 -0.2196,-0.2196 -7.8473,-2.2451 -7.8474,-2.245 h -0.2715 -0.2715 v 0.4166 0.4166 l 1.8545,7.587 1.8545,7.587 0.1216,0.3308 0.1216,0.3307 h 0.3225 0.3226 z m -25.3835,-2.8614 v -0.2712 l -2.0009,-7.9971 -2.0008,-7.997 -0.2273,-0.2305 -0.2272,-0.2305 -6.1063,5.8933 -6.1063,5.8933 v 0.2325 0.2324 l 0.463,0.1814 0.4631,0.1813 7.4083,2.1675 7.4083,2.1675 0.463,0.024 0.4631,0.024 v -0.2711 z m 8.4573,-6.5763 5.8513,-5.6568 -0.091,-0.2716 -0.091,-0.2715 -7.6389,-2.2076 -7.639,-2.2076 h -0.4832 -0.4832 v 0.1393 0.1394 l 1.8552,7.4674 1.8552,7.4675 0.1386,0.6129 0.1387,0.6128 0.3675,-0.084 0.3676,-0.084 z m -21.5325,-4.5527 5.0054,-4.7855 1.1778,-1.1583 1.1779,-1.1583 -0.148,-0.148 -0.148,-0.148 -7.7767,-2.2473 -7.7768,-2.2473 -0.463,-0.1454 -0.463,-0.1454 v 0.6512 0.6511 l 1.858,7.5027 1.858,7.5026 0.1181,0.3307 0.118,0.3307 h 0.2284 0.2285 z m 48.3703,1.8466 -0.027,-0.3684 -1.9181,-7.8713 -1.9181,-7.8714 h -0.272 -0.272 l -5.9282,5.7273 -5.9282,5.7274 0.096,0.2919 0.096,0.292 7.7846,2.2889 7.7846,2.289 0.2646,-0.068 0.2645,-0.069 z m 8.6257,-5.6924 5.9531,-5.7111 0.082,-0.3533 0.082,-0.3534 -1.8022,-0.5302 -1.8023,-0.5302 -6.0808,-1.7348 -6.0807,-1.7348 h -0.4727 -0.4727 l 0.1426,0.5953 0.1425,0.5953 1.8482,7.5019 1.8481,7.5018 0.1466,0.2372 0.1466,0.2372 0.1829,-0.01 h 0.1828 l 5.9531,-5.711 z m -28.8502,-0.034 -0.011,-0.1984 -1.9348,-7.8765 -1.9349,-7.8766 -0.16,-0.16 -0.1601,-0.16 -0.8452,0.7111 -0.8452,0.7112 -5.3089,5.1292 -5.3088,5.1292 0.1964,0.1964 0.1965,0.1965 7.4678,2.1728 7.4678,2.1728 0.5953,0.025 0.5953,0.025 -0.011,-0.1984 z m 4.0877,-1.8422 1.6115,-1.5115 4.4756,-4.3404 4.4757,-4.3404 -0.3814,-0.2134 -0.3813,-0.2134 -7.457,-2.1368 -7.457,-2.1368 h -0.4076 -0.4077 v 0.4167 0.4166 l 1.8477,7.5389 1.8476,7.5389 0.1523,0.2466 0.1524,0.2465 h 0.1589 0.1589 z m -24.4433,-4.2432 0.01,-0.463 -1.9222,-7.7463 -1.9222,-7.7462 -0.3313,0.073 -0.3314,0.073 -5.7568,5.5562 -5.7568,5.5563 v 0.3968 0.3969 l 7.4083,2.1568 7.4084,2.1568 0.5953,0.026 0.5953,0.026 0.01,-0.4631 z m 8.5952,-5.8071 5.9593,-5.7409 -0.09,-0.2689 -0.09,-0.269 -7.9186,-2.2922 -7.9186,-2.2923 -0.2046,0.1855 -0.2045,0.1856 1.853,7.5213 1.8529,7.5212 0.1426,0.5954 0.1425,0.5953 h 0.2579 0.2579 z m -20.3759,-5.7487 6.0855,-5.921 -0.2646,-0.2679 -0.2646,-0.2679 -7.9075,-2.2883 -7.9076,-2.2883 -0.2141,0.2152 -0.2141,0.2152 1.9781,7.9375 1.9782,7.9375 0.1159,0.3307 0.1159,0.3307 0.2068,-0.01 0.2067,-0.01 6.0854,-5.9211 z"
         id="path1953" /></g></g></svg>
