<?xml version="1.0" encoding="UTF-8" standalone="no"?>
<!-- Created with Inkscape (http://www.inkscape.org/) -->

<svg
   width="317.23541mm"
   height="317.32181mm"
   viewBox="0 0 317.23541 317.32181"
   version="1.1"
   id="svg5"
   xml:space="preserve"
   xmlns="http://www.w3.org/2000/svg"
   xmlns:svg="http://www.w3.org/2000/svg"><defs
     id="defs2" /><g
     id="layer1"
     transform="translate(-1401.6577,1180.8748)"><g
       id="g1900"
       transform="translate(21.61101,-74.697217)"><path
         style="fill:#fafbfd;stroke-width:0.264583"
         d="m 1609.9266,-815.02685 -4.5409,-0.20738 -4.3178,-0.55193 -4.3177,-0.55189 -3.3122,-0.67048 -3.3121,-0.67045 -2.3813,-0.65607 -2.3812,-0.65606 -2.9105,-1.06931 -2.9104,-1.06931 -1.4552,-0.713 -1.4552,-0.713 -0.068,-15.27397 -0.068,-15.27395 h 0.2979 0.2979 l 1.9731,1.48506 1.9732,1.48506 2.5309,1.59071 2.5309,1.5907 3.2039,1.53767 3.2038,1.53767 2.7574,0.94972 2.7575,0.94973 2.5342,0.63817 2.5342,0.63814 2.3813,0.4385 2.3812,0.43847 5.2181,0.14068 5.2181,0.14067 2.5871,-0.31773 2.5872,-0.31774 1.9843,-0.50075 1.9844,-0.50075 1.6513,-0.64975 1.6513,-0.64974 1.5422,-0.93685 1.5423,-0.93685 1.3848,-1.46428 1.3849,-1.46428 0.6654,-1.45358 0.6655,-1.45359 0.2852,-1.72109 0.2852,-1.72109 -0.3157,-1.91145 -0.3156,-1.91144 -0.8478,-1.7276 -0.8477,-1.7276 -2.249,-2.26524 -2.249,-2.26524 -2.5135,-1.65101 -2.5135,-1.65102 -4.498,-2.20951 -4.4979,-2.20952 -6.0854,-2.56951 -6.0854,-2.56951 -3.4385,-1.7209 -3.4385,-1.7209 -2.4285,-1.52636 -2.4286,-1.52637 -2.0393,-1.53483 -2.0393,-1.53484 -2.2451,-2.12519 -2.2452,-2.12519 -1.6429,-2.12451 -1.6429,-2.12451 -0.9808,-1.63701 -0.9808,-1.637 -0.7541,-1.67029 -0.7541,-1.67029 -0.8083,-2.53292 -0.8084,-2.53292 -0.4447,-3.02333 -0.4447,-3.02333 0.143,-4.89479 0.143,-4.89479 0.5314,-2.45581 0.5313,-2.45582 0.6901,-2.07221 0.6901,-2.07222 1.1148,-2.1546 1.1147,-2.15461 1.6798,-2.37095 1.6798,-2.37096 2.7067,-2.60703 2.7067,-2.60704 2.4815,-1.65987 2.4815,-1.65986 2.594,-1.30171 2.5939,-1.3017 1.9838,-0.78803 1.9837,-0.78803 2.6262,-0.78016 2.6261,-0.78017 3.3262,-0.6736 3.3263,-0.67361 3.2394,-0.42681 3.2394,-0.42682 6.7691,-0.13847 6.769,-0.13847 4.4758,0.31116 4.4757,0.31115 3.6308,0.5062 3.6307,0.50619 3.1161,0.69723 3.1162,0.69722 3.0205,0.91384 3.0206,0.91384 0.4852,0.25965 0.4851,0.25966 v 14.27818 14.2782 h -0.2375 -0.2376 l -1.8129,-1.10487 -1.813,-1.10487 -2.6458,-1.25029 -2.6459,-1.25028 -2.6817,-0.9327 -2.6818,-0.9327 -3.2713,-0.80636 -3.2714,-0.80635 -3.0427,-0.46615 -3.0427,-0.46616 -5.424,0.006 -5.424,0.006 -2.3812,0.46063 -2.3813,0.46063 -2.1166,0.68148 -2.1167,0.68148 -1.8521,0.96412 -1.8521,0.96413 -1.7838,1.74972 -1.7839,1.74971 -0.6757,1.4759 -0.6757,1.47591 -0.2578,1.60113 -0.2579,1.60113 0.2725,1.70589 0.2726,1.70589 0.4922,1.14057 0.4922,1.14056 1.2216,1.61921 1.2216,1.6192 2.1366,1.68809 2.1367,1.68809 1.6371,1.00763 1.6372,1.00763 3.5868,1.81278 3.5869,1.81278 4.8798,2.10684 4.8798,2.10685 3.0427,1.38346 3.0427,1.38347 3.4396,1.86778 3.4396,1.86779 2.5135,1.65681 2.5136,1.65682 2.1425,1.72659 2.1425,1.7266 2.0583,2.18798 2.0583,2.18798 1.3139,1.86052 1.3139,1.86052 1.266,2.51354 1.266,2.51354 0.8005,2.51354 0.8004,2.51355 0.4452,2.77812 0.4451,2.77813 v 4.6302 4.63021 l -0.4223,2.8089 -0.4224,2.80889 -0.6733,2.35048 -0.6734,2.35048 -1.3992,2.91042 -1.3992,2.91042 -1.5166,2.11666 -1.5167,2.11667 -2.0276,2.07018 -2.0276,2.07018 -2.0362,1.54474 -2.0361,1.54474 -2.5941,1.46569 -2.594,1.46566 -2.7067,1.0832 -2.7066,1.08321 -2.585,0.76988 -2.5851,0.76991 -3.3072,0.65667 -3.3073,0.6567 -3.3911,0.4277 -3.3911,0.4277 -4.9433,0.24146 -4.9433,0.24145 -0.7937,-0.0315 -0.7938,-0.0315 -4.5409,-0.20741 z m -116.8367,-1.85008 -0.463,-0.26969 v -56.47369 -56.4737 l -19.6453,-0.0678 -19.6453,-0.0678 -0.069,-12.63386 -0.069,-12.63385 h 55.4353 55.4353 l -0.069,12.63385 -0.069,12.63386 -19.7776,0.0678 -19.7776,0.0678 v 56.47755 56.47754 l -0.5118,0.27389 -0.5117,0.2739 -14.9003,-0.008 -14.9002,-0.008 -0.463,-0.26968 z"
         id="path1904" /><path
         style="fill:#3077c5;stroke-width:0.264583"
         d="m 1405.7113,-789.1981 -1.8521,-0.34229 -1.5875,-0.46286 -1.5875,-0.46284 -2.2917,-0.98401 -2.2917,-0.98401 -2.3385,-1.54829 -2.3385,-1.54829 -2.3943,-2.39429 -2.3943,-2.39429 -1.5483,-2.33852 -1.5483,-2.33855 -1.0478,-2.42395 -1.0479,-2.42398 -0.6981,-2.51355 -0.6981,-2.51354 v -132.68854 -132.6885 l 0.7153,-2.5914 0.7153,-2.5913 1.0446,-2.3671 1.0446,-2.3672 1.5343,-2.3176 1.5344,-2.3175 2.3943,-2.3943 2.3943,-2.3943 2.3385,-1.5483 2.3385,-1.5483 2.3736,-1.0233 2.3736,-1.0233 2.5639,-0.7227 2.564,-0.7226 h 132.6885 132.6885 l 2.5914,0.7153 2.5913,0.7153 2.3671,1.0446 2.3672,1.0446 2.3176,1.5343 2.3175,1.5344 2.3943,2.3943 2.3943,2.3943 1.5483,2.3385 1.5483,2.3385 1.0233,2.3736 1.0233,2.3736 0.7227,2.5639 0.7226,2.564 v 132.6885 132.68854 l -0.7226,2.56395 -0.7227,2.56397 -1.0233,2.37355 -1.0233,2.37355 -1.5483,2.33855 -1.5483,2.33852 -2.3943,2.39429 -2.3943,2.39429 -2.3385,1.54829 -2.3385,1.54829 -2.424,1.04786 -2.424,1.04783 -2.5135,0.69813 -2.5136,0.6981 -131.8947,0.0432 -131.8948,0.0432 z m 215.287,-25.79981 4.9433,-0.24146 3.3911,-0.4277 3.3911,-0.4277 3.3073,-0.65669 3.3073,-0.65667 2.585,-0.76991 2.585,-0.76989 2.7066,-1.0832 2.7067,-1.0832 2.594,-1.46566 2.5941,-1.46569 2.0362,-1.54474 2.0361,-1.54475 2.0276,-2.07018 2.0277,-2.07018 1.5166,-2.11666 1.5166,-2.11667 1.3992,-2.91042 1.3992,-2.91041 0.6734,-2.35048 0.6733,-2.35048 0.4224,-2.8089 0.4223,-2.80889 v -4.63021 -4.63021 l -0.4451,-2.77812 -0.4452,-2.77813 -0.8004,-2.51354 -0.8004,-2.51354 -1.2661,-2.51354 -1.266,-2.51355 -1.3139,-1.86051 -1.3139,-1.86052 -2.0583,-2.18798 -2.0583,-2.18798 -2.1425,-1.7266 -2.1425,-1.72659 -2.5136,-1.65682 -2.5135,-1.65682 -3.4396,-1.86778 -3.4396,-1.86779 -3.0427,-1.38346 -3.0427,-1.38347 -4.8798,-2.10684 -4.8798,-2.10684 -3.5869,-1.81278 -3.5868,-1.81278 -1.6372,-1.00763 -1.6371,-1.00764 -2.1366,-1.68808 -2.1367,-1.68809 -1.2216,-1.61921 -1.2215,-1.6192 -0.4923,-1.14056 -0.4922,-1.14057 -0.2725,-1.70589 -0.2726,-1.70589 0.2579,-1.60113 0.2579,-1.60114 0.6756,-1.4759 0.6757,-1.4759 1.7839,-1.74972 1.7839,-1.74971 1.852,-0.96413 1.8521,-0.96413 2.1167,-0.68148 2.1167,-0.68148 2.3812,-0.46062 2.3813,-0.46063 5.4239,-0.006 5.424,-0.006 3.0427,0.46615 3.0427,0.46616 3.2714,0.80635 3.2713,0.80635 2.6818,0.9327 2.6817,0.9327 2.6459,1.25029 2.6458,1.25029 1.813,1.10486 1.813,1.10487 h 0.2375 0.2375 v -14.27819 -14.27819 l -0.4851,-0.25965 -0.4852,-0.25965 -3.0206,-0.91384 -3.0205,-0.91384 -3.1161,-0.69723 -3.1162,-0.69722 -3.6307,-0.50619 -3.6308,-0.5062 -4.4757,-0.31116 -4.4757,-0.31115 -6.7691,0.13847 -6.769,0.13847 -3.2395,0.42681 -3.2394,0.42682 -3.3262,0.6736 -3.3263,0.67361 -2.6261,0.78016 -2.6262,0.78017 -1.9837,0.78803 -1.9837,0.78803 -2.594,1.3017 -2.5939,1.3017 -2.4816,1.65987 -2.4815,1.65986 -2.7067,2.60704 -2.7067,2.60704 -1.6798,2.37095 -1.6797,2.37096 -1.1148,2.1546 -1.1148,2.15461 -0.6901,2.07221 -0.6901,2.07222 -0.5313,2.45581 -0.5313,2.45581 -0.1431,4.8948 -0.143,4.89479 0.4447,3.02333 0.4447,3.02333 0.8084,2.53292 0.8084,2.53292 0.754,1.67028 0.7541,1.67029 0.9808,1.637 0.9808,1.63701 1.6429,2.12452 1.643,2.12451 2.2451,2.12519 2.2451,2.12519 2.0393,1.53483 2.0393,1.53484 2.4286,1.52636 2.4285,1.52637 3.4385,1.7209 3.4385,1.7209 6.0854,2.56951 6.0854,2.56951 4.498,2.20951 4.4979,2.20952 2.5135,1.65101 2.5136,1.65102 2.2489,2.26524 2.249,2.26524 0.8477,1.72759 0.8478,1.7276 0.3156,1.91145 0.3157,1.91144 -0.2852,1.7211 -0.2852,1.72109 -0.6654,1.45358 -0.6655,1.45359 -1.3849,1.46428 -1.3848,1.46428 -1.5422,0.93685 -1.5423,0.93685 -1.6513,0.64973 -1.6513,0.64975 -1.9844,0.50075 -1.9843,0.50075 -2.5872,0.31774 -2.5871,0.31774 -5.2181,-0.14068 -5.218,-0.14068 -2.3813,-0.43847 -2.3812,-0.43849 -2.5343,-0.63815 -2.5342,-0.63816 -2.7574,-0.94973 -2.7575,-0.94972 -3.2038,-1.53767 -3.2039,-1.53767 -2.5309,-1.59071 -2.5309,-1.5907 -1.9732,-1.48507 -1.9731,-1.48505 h -0.2979 -0.2979 l 0.068,15.27394 0.068,15.27397 1.4552,0.713 1.4552,0.713 2.9105,1.06932 2.9104,1.06931 2.3812,0.65606 2.3813,0.65606 3.3121,0.67046 3.3122,0.67048 4.3177,0.55189 4.3178,0.55192 4.5409,0.20738 4.5409,0.20741 0.7938,0.0315 0.7937,0.0315 4.9433,-0.24146 z m -97.1332,-1.86714 0.5118,-0.27389 v -56.47754 -56.47755 l 19.7776,-0.0678 19.7776,-0.0678 0.069,-12.63386 0.069,-12.63385 h -55.4353 -55.4353 l 0.069,12.63385 0.069,12.63386 19.6453,0.0678 19.6453,0.0678 v 56.4737 56.47369 l 0.463,0.26969 0.463,0.26969 14.9002,0.008 14.9003,0.008 0.5117,-0.2739 z"
         id="path1902" /></g></g></svg>
