<?xml version="1.0" encoding="UTF-8" standalone="no"?>
<!-- Created with Inkscape (http://www.inkscape.org/) -->

<svg
   width="78.713501mm"
   height="78.957489mm"
   viewBox="0 0 78.7135 78.95749"
   version="1.1"
   id="svg5"
   xml:space="preserve"
   inkscape:version="1.2.2 (b0a8486541, 2022-12-01)"
   sodipodi:docname="vite.svg"
   xmlns:inkscape="http://www.inkscape.org/namespaces/inkscape"
   xmlns:sodipodi="http://sodipodi.sourceforge.net/DTD/sodipodi-0.dtd"
   xmlns="http://www.w3.org/2000/svg"
   xmlns:svg="http://www.w3.org/2000/svg"><sodipodi:namedview
     id="namedview7"
     pagecolor="#505050"
     bordercolor="#eeeeee"
     borderopacity="1"
     inkscape:showpageshadow="0"
     inkscape:pageopacity="0"
     inkscape:pagecheckerboard="0"
     inkscape:deskcolor="#505050"
     inkscape:document-units="mm"
     showgrid="false"
     inkscape:zoom="0.53672095"
     inkscape:cx="-243.14311"
     inkscape:cy="267.36426"
     inkscape:window-width="1521"
     inkscape:window-height="1128"
     inkscape:window-x="10"
     inkscape:window-y="62"
     inkscape:window-maximized="1"
     inkscape:current-layer="layer1" /><defs
     id="defs2"><inkscape:perspective
       sodipodi:type="inkscape:persp3d"
       inkscape:vp_x="0 : -69.542565 : 1"
       inkscape:vp_y="0 : 999.99998 : 0"
       inkscape:vp_z="210.00001 : -69.542565 : 1"
       inkscape:persp3d-origin="105 : -119.04246 : 1"
       id="perspective517" /></defs><g
     inkscape:label="Layer 1"
     inkscape:groupmode="layer"
     id="layer1"
     transform="translate(-1535.4425,901.30457)"><g
       id="g2338"
       transform="translate(4.1932234,78.394727)"><path
         style="fill:#fce156;stroke-width:0.264583"
         d="m 1559.7652,-965.80077 c -0.091,-0.63915 -0.052,-2.66253 0.087,-4.49641 l 0.2523,-3.33431 0.3352,-0.3352 0.3352,-0.33521 12.1585,-2.37507 c 6.6871,-1.30629 12.9734,-2.54703 13.9695,-2.7572 0.9961,-0.21017 1.9784,-0.31795 2.1828,-0.2395 l 0.3717,0.14264 v 0.83159 c 0,1.04789 -2.9278,11.54721 -3.2233,11.54721 -0.3406,0 -0.2875,-0.27168 0.839,-4.29363 0.9574,-3.41826 1.2224,-4.7022 0.9704,-4.7022 -0.1124,0 -20.8121,3.00473 -24.4952,3.55566 -3.3282,0.49786 -2.902,-0.0169 -3.2166,3.88451 -0.334,4.1429 -0.3685,4.31888 -0.5691,2.90712 z"
         id="path2360" /><path
         style="fill:#4bc9fd;stroke-width:0.264583"
         d="m 1535.3088,-961.54049 c -0.7504,-1.12193 -1.9708,-3.08531 -2.7119,-4.36309 l -1.3476,-2.32322 v -0.87692 -0.87691 l 0.5185,-0.46922 0.5184,-0.46922 1.0029,0.0196 c 2.2878,0.0446 13.9715,2.44944 14.4943,2.98329 l 0.2669,0.27262 -0.3018,-0.085 c -0.166,-0.0468 -1.1185,0.52283 -2.1166,1.26579 -0.9982,0.74297 -3.2437,2.39894 -4.9899,3.67995 -1.7463,1.28101 -3.3536,2.54357 -3.5719,2.80569 l -0.3969,0.47659 z"
         id="path2358" /><path
         style="fill:#56b2fd;stroke-width:0.264583"
         d="m 1541.6171,-950.68192 c -0.5587,-0.78757 -5.4919,-9.12042 -5.9131,-9.98802 l -0.2569,-0.52916 0.541,0.66145 c 0.2976,0.36381 0.5464,0.78052 0.5529,0.92605 0.01,0.14552 0.2174,0.0156 0.4689,-0.28881 0.2514,-0.30436 1.8858,-1.60148 3.6321,-2.88249 1.7462,-1.28101 3.9917,-2.93698 4.9899,-3.67995 0.9981,-0.74296 1.9297,-1.31812 2.0702,-1.27814 0.1404,0.04 0.1799,-0.0493 0.088,-0.19843 -0.092,-0.14913 -0.359,-0.27114 -0.5929,-0.27114 -0.234,0 -0.3614,-0.064 -0.2831,-0.14231 0.1731,-0.17312 11.9026,1.98108 12.1838,2.23763 0.278,0.25364 -0.3556,4.51926 -0.6712,4.51926 -0.2663,0 -1.2892,0.72903 -7.9948,5.69803 -9.245,6.85071 -8.1251,6.18796 -8.8145,5.21603 z"
         id="path2356" /><path
         style="fill:#7191fd;stroke-width:0.264583"
         d="m 1546.2062,-942.74772 c -1.862,-3.16326 -3.6305,-6.15942 -3.93,-6.65813 -0.2996,-0.4987 -0.4074,-0.82191 -0.2396,-0.71823 l 0.305,0.1885 2.0606,-1.51073 c 1.1333,-0.8309 3.8466,-2.83414 6.0294,-4.45164 6.7711,-5.01754 7.7288,-5.69803 8.0192,-5.69803 0.1549,0 0.3296,-0.38695 0.3883,-0.8599 l 0.1067,-0.85989 0.042,1.03493 c 0.023,0.56922 -0.2046,4.61734 -0.5065,8.99584 -0.3018,4.37849 -0.4811,8.39432 -0.3984,8.92406 l 0.1505,0.96316 -1.5964,1.1535 c -1.4164,1.02355 -5.9992,4.42973 -6.7581,5.02302 l -0.2877,0.22493 z"
         id="path2354" /><path
         style="fill:#fdd22a;stroke-width:0.264583"
         d="m 1559.3354,-953.92306 c -0.064,-1.95196 1.1366,-17.93387 1.3643,-18.16151 0.053,-0.0526 1.3356,-0.28112 2.8512,-0.50783 3.6831,-0.55093 24.3828,-3.55566 24.4952,-3.55566 0.3229,0 -0.2286,2.23892 -2.9789,12.09263 -1.0642,3.81279 -1.0881,4.17862 -0.3059,4.68402 l 0.5953,0.38468 3.9687,-0.77317 c 2.1828,-0.42525 4.1771,-0.7742 4.4318,-0.77546 l 0.463,-0.002 -0.012,0.59532 c -0.011,0.55147 -1.2724,3.2362 -1.299,2.76498 -0.01,-0.11637 0.1767,-0.57653 0.4074,-1.02259 l 0.4194,-0.81101 -0.221,-0.19765 c -0.1215,-0.10871 -2.0664,0.0822 -4.322,0.42433 -4.3646,0.66196 -10.4451,1.55756 -17.9916,2.65001 -2.5466,0.36865 -6.0542,0.89438 -7.7945,1.16829 l -3.1642,0.49801 -0.195,-0.31545 -0.195,-0.31545 -0.1351,0.38946 c -0.074,0.2142 -0.182,0.74665 -0.2392,1.18321 l -0.104,0.79375 z"
         id="path2352" /><path
         style="fill:#8c6efd;stroke-width:0.264583"
         d="m 1552.7289,-931.31698 c -3.5959,-6.52532 -4.093,-5.13656 3.9121,-10.92841 0.8777,-0.63503 1.5958,-1.28392 1.5958,-1.44198 v -0.28736 l 0.3175,0.3175 c 0.466,0.46602 0.934,0.41065 5.1801,-0.61298 l 3.8597,-0.93049 0.2746,0.27458 0.2746,0.27459 -0.9665,4.87126 -0.9666,4.87126 -0.5162,0.5162 c -0.6484,0.64845 -9.2227,6.91147 -9.7269,7.10494 l -0.3724,0.14289 0.1591,0.63388 c 0.2859,1.1389 0.01,0.69481 -3.0249,-4.80588 z m 40.8087,-25.20996 c 1.6219,-3.23386 1.7242,-3.70432 0.9568,-4.39879 l -0.5194,-0.47009 -4.3092,0.80718 -4.3092,0.80717 -0.2352,-0.22958 -0.2351,-0.22958 0.4926,-1.89925 0.4926,-1.89926 0.404,-0.142 c 0.2222,-0.0781 1.2374,-0.76047 2.2561,-1.51637 3.0909,-2.29366 19.2608,-5.72857 20.8603,-4.43128 l 0.5709,0.46302 v 0.66146 c 0,0.3638 -0.076,0.72099 -0.1687,0.79375 -0.093,0.0728 -0.6214,0.9573 -1.1748,1.96564 -0.5534,1.00834 -1.0531,1.69226 -1.1106,1.51982 l -0.1045,-0.31352 -1.8114,1.39059 c -0.9962,0.76483 -2.4899,1.86684 -3.3192,2.44893 -0.8294,0.58208 -1.9565,1.41552 -2.5048,1.85208 -0.5483,0.43656 -1.6794,1.27 -2.5135,1.85208 -0.8342,0.58209 -1.9765,1.41552 -2.5385,1.85209 -0.562,0.43656 -1.3894,1.07853 -1.8386,1.42661 l -0.8168,0.63286 z"
         id="path2350" /><path
         style="fill:#9b5afd;stroke-width:0.264583"
         d="m 1558.5166,-921.05139 c -1.6508,-2.87594 -2.5692,-4.68833 -2.759,-5.44467 l -0.1629,-0.64892 0.3724,-0.14289 c 0.6063,-0.23267 9.2621,-6.58838 9.4927,-6.97023 0.1164,-0.19271 0.3262,-0.35038 0.4662,-0.35038 h 0.2545 l -0.1592,0.99578 -0.1592,0.99577 0.5635,0.50996 0.5635,0.50995 2.7472,-0.80634 2.7472,-0.80633 0.3191,0.19723 0.3192,0.19723 -0.1883,1.5069 c -0.1036,0.82879 -0.2401,1.45506 -0.3035,1.3917 -0.063,-0.0634 -0.5091,0.25404 -0.9906,0.70533 -0.4815,0.45129 -3.4019,2.66579 -6.4898,4.92112 l -5.6143,4.10058 0.1495,0.59577 c 0.2291,0.91277 0.1,0.75124 -1.1682,-1.45756 z m 28.4208,-22.33558 c 1.0915,-2.22959 2.7228,-5.46228 3.6251,-7.18375 l 1.6405,-3.12996 0.746,-0.57421 c 0.4103,-0.31582 1.2058,-0.9314 1.7678,-1.36796 0.562,-0.43657 1.7043,-1.27 2.5385,-1.85209 0.8341,-0.58208 1.9652,-1.41552 2.5135,-1.85208 0.5483,-0.43656 1.6754,-1.27 2.5048,-1.85208 0.8293,-0.58209 2.3331,-1.69199 3.3418,-2.46646 1.0086,-0.77446 1.8339,-1.30656 1.8339,-1.18244 0,0.56796 -8.6409,16.45771 -9.3223,17.14265 -0.1447,0.14552 -0.056,-0.15214 0.196,-0.66146 l 0.4592,-0.92604 -0.7597,0.68323 c -0.4178,0.37578 -3.0219,2.33171 -5.7868,4.34651 -2.7649,2.0148 -5.2652,3.86655 -5.5562,4.115 -0.291,0.24845 -0.7986,0.53345 -1.1279,0.63334 l -0.5987,0.18161 z"
         id="path2348" /><path
         style="fill:#a84bfc;stroke-width:0.264583"
         d="m 1561.7279,-915.62463 c -1.0258,-1.78263 -1.9388,-3.539 -2.0289,-3.90305 l -0.1637,-0.66192 5.6143,-4.10058 c 3.0879,-2.25533 6.0104,-4.47184 6.4945,-4.92558 l 0.8802,-0.82499 -0.01,0.42811 c -0.02,0.89582 -2.5909,12.5628 -2.6131,11.85678 l -0.023,-0.74217 -1.1339,1.06269 c -0.9841,0.9224 -4.4644,3.4223 -5.436,3.90472 -0.048,0.0239 0.045,0.29181 0.2077,0.59531 0.1625,0.30351 0.2462,0.55183 0.1861,0.55183 -0.06,0 -0.9486,-1.45852 -1.9745,-3.24115 z m 18.9677,-15.15738 4.225,-8.47666 0.8167,-0.38688 c 0.8738,-0.4139 11.0185,-7.81554 12.2823,-8.96126 l 0.7567,-0.68604 -1.1217,2.24895 c -1.3267,2.65976 -8.4209,15.36036 -8.7934,15.74271 -0.1418,0.14552 -0.066,-0.11645 0.1693,-0.58217 0.6185,-1.22612 0.5315,-1.27487 -0.394,-0.22079 -0.4517,0.51439 -0.9343,0.93525 -1.0725,0.93525 -0.1382,0 -1.0972,0.68461 -2.1312,1.52136 -1.034,0.83674 -2.3909,1.87854 -3.0155,2.3151 -4.111,2.87352 -4.681,3.33534 -5.5507,4.49792 -0.2178,0.29104 1.5053,-3.28533 3.829,-7.94749 z"
         id="path2346" /><path
         style="fill:#b836fd;stroke-width:0.264583"
         d="m 1570.2753,-901.0064 c 0.09,-0.14552 0.047,-0.26458 -0.096,-0.26458 -0.4471,0 -7.2245,-12.14255 -6.8529,-12.27787 0.6246,-0.22746 4.4395,-2.96951 5.4531,-3.91954 l 1.1691,-1.09574 -0.1896,2.27604 -0.1896,2.27603 0.6835,0.44785 0.6835,0.44784 0.6634,-0.43466 0.6633,-0.43466 1.8692,-3.73114 c 2.124,-4.24005 3.0064,-5.68359 3.9367,-6.44061 0.9421,-0.76664 3.152,-2.38687 4.3768,-3.20894 0.582,-0.39069 1.9121,-1.40609 2.9557,-2.25643 1.0436,-0.85035 2.0135,-1.54609 2.1554,-1.54609 0.1419,0 0.6275,-0.42086 1.0792,-0.93525 0.4516,-0.51438 0.8211,-0.85271 0.8211,-0.75183 0,0.63908 -16.2836,30.16975 -17.2734,31.32585 -0.2256,0.26345 -0.3406,0.5486 -0.2555,0.63366 0.085,0.0851 -0.289,0.15466 -0.8311,0.15466 h -0.9858 z"
         id="path2344" /><path
         style="fill:#fdc41b;stroke-width:0.264583"
         d="m 1567.524,-937.65119 c -0.017,-0.14552 0.2913,-1.84472 0.6855,-3.776 l 0.7168,-3.51143 -0.5616,-0.56159 -0.5616,-0.56159 -4.2765,0.99456 -4.2765,0.99455 -0.2445,-0.24447 -0.2445,-0.24447 0.4037,-4.97774 c 0.2221,-2.73775 0.4762,-5.09491 0.5647,-5.23813 l 0.1609,-0.26039 0.1761,0.28496 0.1762,0.28497 3.1642,-0.49801 c 1.7403,-0.27391 5.2479,-0.79964 7.7945,-1.16829 7.5465,-1.09245 13.627,-1.98805 17.9916,-2.65001 5.474,-0.83022 5.5553,-2.04179 -0.7212,10.74695 -3.1158,6.34868 -5.0901,9.9663 -3.129,5.73336 l 0.659,-1.42239 -0.2161,-0.21613 -0.2161,-0.21613 -2.4878,0.40101 c -2.7557,0.4442 -6.7964,1.03025 -11.212,1.62613 -3.4189,0.46138 -3.215,0.31291 -3.8291,2.78849 -0.2669,1.076 -0.4994,1.83731 -0.5167,1.69179 z"
         id="path2342" /><path
         style="fill:#fdb50d;stroke-width:0.264583"
         d="m 1570.2867,-914.21711 c -0.084,-0.13538 0.6941,-4.32067 1.7283,-9.30066 l 1.8805,-9.05452 -0.2831,-0.62122 -0.283,-0.62122 h -0.6571 c -0.3614,0 -1.5843,0.29614 -2.7176,0.65808 -1.1334,0.36194 -2.3285,0.6596 -2.6559,0.66146 l -0.5953,0.003 v -0.59532 c 0,-0.83047 1.7839,-8.17546 2.0463,-8.43784 0.118,-0.11807 1.5212,-0.39099 3.1181,-0.6065 4.4156,-0.59588 8.4563,-1.18193 11.2121,-1.62613 l 2.4877,-0.40101 0.2155,0.21548 0.2155,0.21549 -1.8016,3.96427 c -0.9909,2.18034 -4.2614,8.87559 -7.2679,14.87833 l -5.4664,10.91406 h -0.5129 c -0.2821,0 -0.5814,-0.11076 -0.665,-0.24613 z"
         id="path2340" /></g></g></svg>
