<?xml version="1.0" encoding="UTF-8" standalone="no"?>
<!-- Created with Inkscape (http://www.inkscape.org/) -->

<svg
   width="277.81256mm"
   height="307.44583mm"
   viewBox="0 0 277.81256 307.44583"
   version="1.1"
   id="svg5"
   xml:space="preserve"
   xmlns="http://www.w3.org/2000/svg"
   xmlns:svg="http://www.w3.org/2000/svg"><defs
     id="defs2" /><g
     id="layer1"
     transform="translate(-723.81069,-280.34795)"><g
       id="g633"
       transform="translate(139.29177,187.33712)"><path
         style="fill:#8cd5f9;stroke-width:0.264583"
         d="m 672.22829,375.09629 -44.71458,-25.31803 -17.0614,-9.65195 -17.0614,-9.65195 -0.002,-0.26458 -0.002,-0.26458 23.28135,-13.42409 23.28135,-13.42409 0.38721,0.14215 0.38721,0.14214 38.24196,21.04976 38.24195,21.04977 0.33073,0.26821 0.33073,0.26823 v 27.21967 27.2197 l -0.46302,-0.0212 -0.46302,-0.0212 -44.71458,-25.31803 z m 56.75312,-1.85934 v -27.21967 l 0.33073,-0.27008 0.33073,-0.27009 38.58415,-21.21905 38.58415,-21.21904 6.26274,3.59832 6.26271,3.59832 17.04329,9.85477 17.04327,9.85477 0.0172,0.26458 0.0172,0.26458 -16.53141,9.353 -16.5314,9.35299 -45.33026,25.63815 -45.33026,25.63815 h -0.37651 -0.37651 v -27.2197 z m -49.87395,-60.96741 -38.1,-20.95538 -0.067,-41.78918 -0.067,-41.78918 0.2461,-0.24609 0.24609,-0.2461 37.92088,21.89885 37.92087,21.89885 0.46302,0.40076 0.46302,0.40077 v 40.70482 40.70483 l -0.46302,-0.0138 -0.46302,-0.0138 z m 38.69616,-19.79935 0.067,-40.07674 -0.33158,-0.43127 -0.33157,-0.43126 -37.814,-21.84547 -37.814,-21.84546 h -0.0876 -0.0876 v 41.60976 41.60976 l 37.90157,20.83005 37.90156,20.83005 0.26458,-0.0863 0.26458,-0.0863 z m 10.97852,-0.0297 0.067,-40.81198 1.19063,-0.75057 1.19062,-0.75056 37.11715,-21.41813 37.11716,-21.41813 0.25524,0.15775 0.25524,0.15775 v 41.75615 41.75615 l -0.33073,0.26701 -0.33073,0.267 -37.8942,20.79977 -37.89419,20.79977 h -0.40508 -0.40507 z m 38.78792,19.45208 37.39802,-20.53331 0.37124,-0.37125 0.37126,-0.37126 -0.004,-41.05766 -0.004,-41.05766 -0.20198,-0.31776 -0.20201,-0.31776 -37.82796,21.83145 -37.82782,21.83146 -0.33073,0.43114 -0.33073,0.43115 v 39.98971 39.9897 l 0.18462,0.18462 0.18462,0.18462 0.4107,-0.15694 0.41069,-0.15694 z M 584.51892,248.57436 v -73.60442 l 0.46302,0.12964 0.46302,0.12964 22.225,12.82803 22.225,12.82802 0.0669,47.6358 0.0669,47.6358 -22.40858,12.92541 -22.40858,12.92542 -0.3463,0.0855 -0.34631,0.0856 z m 254.72688,60.52503 -22.42415,-12.98703 0.0669,-47.59473 0.0669,-47.59474 22.225,-12.84681 22.225,-12.84681 0.46302,-0.12967 0.46302,-0.12966 v 73.58502 73.58503 l -0.33073,-0.0268 -0.33073,-0.0268 z m -154.58187,-88.93029 -38.09978,-22.02173 -0.0733,-0.38052 -0.0733,-0.38051 38.3219,-21.09922 38.32191,-21.09921 h 0.36119 0.3612 l 38.31756,21.07299 38.31756,21.07299 v 0.35216 0.35216 l -0.59531,0.384 -0.59531,0.38399 -37.66363,21.71481 -37.66364,21.71481 -0.56866,-0.0225 -0.56865,-0.0225 -38.09978,-22.02173 z m 77.27325,-0.34765 37.95646,-21.89168 -0.0826,-0.24791 -0.0827,-0.2479 -37.92244,-20.85844 -37.92245,-20.85844 h -0.46123 -0.46122 l -37.92808,20.88411 -37.92808,20.88412 -0.0681,0.2164 -0.0681,0.21641 38.16208,22.02497 38.16207,22.02496 0.34393,-0.12746 0.34393,-0.12745 z m -149.24014,-41.49708 -22.225,-12.85267 -0.22802,-0.22377 -0.22802,-0.22377 1.02177,-0.65854 1.02177,-0.65854 39.55521,-22.35064 39.55521,-22.35064 22.97543,-12.99749 22.97543,-12.997483 h 0.37405 0.37405 v 26.410153 26.41014 l -41.00316,22.56064 -41.00316,22.56064 -0.47028,0.11233 -0.47028,0.11232 z m 157.49323,-9.82459 -41.20886,-22.67733 V 119.41663 93.010827 h 0.37163 0.37162 l 58.29971,32.968623 58.29975,32.96863 4.89479,2.76599 4.89479,2.766 0.35671,0.35028 0.35669,0.35028 -2.47335,1.44858 -2.47338,1.44858 -19.83089,11.45314 -19.83089,11.45314 -0.40974,0.0965 -0.40973,0.0965 z"
         id="path637" /><path
         style="fill:#1c77c0;stroke-width:0.264583"
         d="m 679.3059,311.88956 -37.90157,-20.83005 v -41.60976 -41.60976 h 0.0876 0.0876 l 37.814,21.84546 37.814,21.84547 0.33157,0.43126 0.33158,0.43127 -0.067,40.07674 -0.067,40.07675 -0.26458,0.0863 -0.26458,0.0863 z m 49.86013,20.6656 -0.18462,-0.18462 v -39.9897 -39.98971 l 0.33073,-0.43115 0.33073,-0.43114 37.82782,-21.83146 37.8278,-21.83145 0.20201,0.31776 0.20198,0.31776 0.004,41.05766 0.004,41.05766 -0.37126,0.37126 -0.37124,0.37125 -37.39786,20.53331 -37.39802,20.53331 -0.41069,0.15694 -0.4107,0.15694 z m -44.03523,-112.61207 -38.16208,-22.02497 0.0681,-0.21641 0.0681,-0.2164 37.92808,-20.88412 37.92808,-20.88411 h 0.46122 0.46123 l 37.92245,20.85844 37.92244,20.85844 0.0827,0.2479 0.0826,0.24791 -37.95646,21.89168 -37.95645,21.89169 -0.34393,0.12745 -0.34393,0.12746 z"
         id="path635" /></g></g></svg>
